<?xml version="1.0" encoding="utf-8" standalone="no"?>
<!DOCTYPE svg PUBLIC "-//W3C//DTD SVG 1.1//EN"
  "http://www.w3.org/Graphics/SVG/1.1/DTD/svg11.dtd">
<svg xmlns:xlink="http://www.w3.org/1999/xlink" width="857.568437pt" height="425.049687pt" viewBox="0 0 857.568437 425.049687" xmlns="http://www.w3.org/2000/svg" version="1.1">
 <metadata>
  <rdf:RDF xmlns:dc="http://purl.org/dc/elements/1.1/" xmlns:cc="http://creativecommons.org/ns#" xmlns:rdf="http://www.w3.org/1999/02/22-rdf-syntax-ns#">
   <cc:Work>
    <dc:type rdf:resource="http://purl.org/dc/dcmitype/StillImage"/>
    <dc:date>2025-11-23T05:33:10.785423</dc:date>
    <dc:format>image/svg+xml</dc:format>
    <dc:creator>
     <cc:Agent>
      <dc:title>Matplotlib v3.10.6, https://matplotlib.org/</dc:title>
     </cc:Agent>
    </dc:creator>
   </cc:Work>
  </rdf:RDF>
 </metadata>
 <defs>
  <style type="text/css">*{stroke-linejoin: round; stroke-linecap: butt}</style>
 </defs>
 <g id="figure_1">
  <g id="patch_1">
   <path d="M 0 425.049687 
L 857.568437 425.049687 
L 857.568437 0 
L 0 0 
z
" style="fill: #ffffff"/>
  </g>
  <g id="axes_1">
   <g id="patch_2">
    <path d="M 50.918438 385.557812 
L 850.368438 385.557812 
L 850.368438 23.837812 
L 50.918438 23.837812 
z
" style="fill: #ffffff"/>
   </g>
   <g id="matplotlib.axis_1">
    <g id="xtick_1">
     <g id="line2d_1">
      <path d="M 87.257074 385.557812 
L 87.257074 23.837812 
" clip-path="url(#pe78fced54c)" style="fill: none; stroke: #b0b0b0; stroke-opacity: 0.3; stroke-width: 0.8; stroke-linecap: square"/>
     </g>
     <g id="line2d_2">
      <defs>
       <path id="mf8e35751c4" d="M 0 0 
L 0 3.5 
" style="stroke: #000000; stroke-width: 0.8"/>
      </defs>
      <g>
       <use xlink:href="#mf8e35751c4" x="87.257074" y="385.557812" style="stroke: #000000; stroke-width: 0.8"/>
      </g>
     </g>
     <g id="text_1">
      <!-- 0 -->
      <g transform="translate(84.075824 400.15625) scale(0.1 -0.1)">
       <defs>
        <path id="DejaVuSans-30" d="M 2034 4250 
Q 1547 4250 1301 3770 
Q 1056 3291 1056 2328 
Q 1056 1369 1301 889 
Q 1547 409 2034 409 
Q 2525 409 2770 889 
Q 3016 1369 3016 2328 
Q 3016 3291 2770 3770 
Q 2525 4250 2034 4250 
z
M 2034 4750 
Q 2819 4750 3233 4129 
Q 3647 3509 3647 2328 
Q 3647 1150 3233 529 
Q 2819 -91 2034 -91 
Q 1250 -91 836 529 
Q 422 1150 422 2328 
Q 422 3509 836 4129 
Q 1250 4750 2034 4750 
z
" transform="scale(0.015625)"/>
       </defs>
       <use xlink:href="#DejaVuSans-30"/>
      </g>
     </g>
    </g>
    <g id="xtick_2">
     <g id="line2d_3">
      <path d="M 232.902911 385.557812 
L 232.902911 23.837812 
" clip-path="url(#pe78fced54c)" style="fill: none; stroke: #b0b0b0; stroke-opacity: 0.3; stroke-width: 0.8; stroke-linecap: square"/>
     </g>
     <g id="line2d_4">
      <g>
       <use xlink:href="#mf8e35751c4" x="232.902911" y="385.557812" style="stroke: #000000; stroke-width: 0.8"/>
      </g>
     </g>
     <g id="text_2">
      <!-- 100 -->
      <g transform="translate(223.359161 400.15625) scale(0.1 -0.1)">
       <defs>
        <path id="DejaVuSans-31" d="M 794 531 
L 1825 531 
L 1825 4091 
L 703 3866 
L 703 4441 
L 1819 4666 
L 2450 4666 
L 2450 531 
L 3481 531 
L 3481 0 
L 794 0 
L 794 531 
z
" transform="scale(0.015625)"/>
       </defs>
       <use xlink:href="#DejaVuSans-31"/>
       <use xlink:href="#DejaVuSans-30" transform="translate(63.623047 0)"/>
       <use xlink:href="#DejaVuSans-30" transform="translate(127.246094 0)"/>
      </g>
     </g>
    </g>
    <g id="xtick_3">
     <g id="line2d_5">
      <path d="M 378.548748 385.557812 
L 378.548748 23.837812 
" clip-path="url(#pe78fced54c)" style="fill: none; stroke: #b0b0b0; stroke-opacity: 0.3; stroke-width: 0.8; stroke-linecap: square"/>
     </g>
     <g id="line2d_6">
      <g>
       <use xlink:href="#mf8e35751c4" x="378.548748" y="385.557812" style="stroke: #000000; stroke-width: 0.8"/>
      </g>
     </g>
     <g id="text_3">
      <!-- 200 -->
      <g transform="translate(369.004998 400.15625) scale(0.1 -0.1)">
       <defs>
        <path id="DejaVuSans-32" d="M 1228 531 
L 3431 531 
L 3431 0 
L 469 0 
L 469 531 
Q 828 903 1448 1529 
Q 2069 2156 2228 2338 
Q 2531 2678 2651 2914 
Q 2772 3150 2772 3378 
Q 2772 3750 2511 3984 
Q 2250 4219 1831 4219 
Q 1534 4219 1204 4116 
Q 875 4013 500 3803 
L 500 4441 
Q 881 4594 1212 4672 
Q 1544 4750 1819 4750 
Q 2544 4750 2975 4387 
Q 3406 4025 3406 3419 
Q 3406 3131 3298 2873 
Q 3191 2616 2906 2266 
Q 2828 2175 2409 1742 
Q 1991 1309 1228 531 
z
" transform="scale(0.015625)"/>
       </defs>
       <use xlink:href="#DejaVuSans-32"/>
       <use xlink:href="#DejaVuSans-30" transform="translate(63.623047 0)"/>
       <use xlink:href="#DejaVuSans-30" transform="translate(127.246094 0)"/>
      </g>
     </g>
    </g>
    <g id="xtick_4">
     <g id="line2d_7">
      <path d="M 524.194585 385.557812 
L 524.194585 23.837812 
" clip-path="url(#pe78fced54c)" style="fill: none; stroke: #b0b0b0; stroke-opacity: 0.3; stroke-width: 0.8; stroke-linecap: square"/>
     </g>
     <g id="line2d_8">
      <g>
       <use xlink:href="#mf8e35751c4" x="524.194585" y="385.557812" style="stroke: #000000; stroke-width: 0.8"/>
      </g>
     </g>
     <g id="text_4">
      <!-- 300 -->
      <g transform="translate(514.650835 400.15625) scale(0.1 -0.1)">
       <defs>
        <path id="DejaVuSans-33" d="M 2597 2516 
Q 3050 2419 3304 2112 
Q 3559 1806 3559 1356 
Q 3559 666 3084 287 
Q 2609 -91 1734 -91 
Q 1441 -91 1130 -33 
Q 819 25 488 141 
L 488 750 
Q 750 597 1062 519 
Q 1375 441 1716 441 
Q 2309 441 2620 675 
Q 2931 909 2931 1356 
Q 2931 1769 2642 2001 
Q 2353 2234 1838 2234 
L 1294 2234 
L 1294 2753 
L 1863 2753 
Q 2328 2753 2575 2939 
Q 2822 3125 2822 3475 
Q 2822 3834 2567 4026 
Q 2313 4219 1838 4219 
Q 1578 4219 1281 4162 
Q 984 4106 628 3988 
L 628 4550 
Q 988 4650 1302 4700 
Q 1616 4750 1894 4750 
Q 2613 4750 3031 4423 
Q 3450 4097 3450 3541 
Q 3450 3153 3228 2886 
Q 3006 2619 2597 2516 
z
" transform="scale(0.015625)"/>
       </defs>
       <use xlink:href="#DejaVuSans-33"/>
       <use xlink:href="#DejaVuSans-30" transform="translate(63.623047 0)"/>
       <use xlink:href="#DejaVuSans-30" transform="translate(127.246094 0)"/>
      </g>
     </g>
    </g>
    <g id="xtick_5">
     <g id="line2d_9">
      <path d="M 669.840422 385.557812 
L 669.840422 23.837812 
" clip-path="url(#pe78fced54c)" style="fill: none; stroke: #b0b0b0; stroke-opacity: 0.3; stroke-width: 0.8; stroke-linecap: square"/>
     </g>
     <g id="line2d_10">
      <g>
       <use xlink:href="#mf8e35751c4" x="669.840422" y="385.557812" style="stroke: #000000; stroke-width: 0.8"/>
      </g>
     </g>
     <g id="text_5">
      <!-- 400 -->
      <g transform="translate(660.296672 400.15625) scale(0.1 -0.1)">
       <defs>
        <path id="DejaVuSans-34" d="M 2419 4116 
L 825 1625 
L 2419 1625 
L 2419 4116 
z
M 2253 4666 
L 3047 4666 
L 3047 1625 
L 3713 1625 
L 3713 1100 
L 3047 1100 
L 3047 0 
L 2419 0 
L 2419 1100 
L 313 1100 
L 313 1709 
L 2253 4666 
z
" transform="scale(0.015625)"/>
       </defs>
       <use xlink:href="#DejaVuSans-34"/>
       <use xlink:href="#DejaVuSans-30" transform="translate(63.623047 0)"/>
       <use xlink:href="#DejaVuSans-30" transform="translate(127.246094 0)"/>
      </g>
     </g>
    </g>
    <g id="xtick_6">
     <g id="line2d_11">
      <path d="M 815.48626 385.557812 
L 815.48626 23.837812 
" clip-path="url(#pe78fced54c)" style="fill: none; stroke: #b0b0b0; stroke-opacity: 0.3; stroke-width: 0.8; stroke-linecap: square"/>
     </g>
     <g id="line2d_12">
      <g>
       <use xlink:href="#mf8e35751c4" x="815.48626" y="385.557812" style="stroke: #000000; stroke-width: 0.8"/>
      </g>
     </g>
     <g id="text_6">
      <!-- 500 -->
      <g transform="translate(805.94251 400.15625) scale(0.1 -0.1)">
       <defs>
        <path id="DejaVuSans-35" d="M 691 4666 
L 3169 4666 
L 3169 4134 
L 1269 4134 
L 1269 2991 
Q 1406 3038 1543 3061 
Q 1681 3084 1819 3084 
Q 2600 3084 3056 2656 
Q 3513 2228 3513 1497 
Q 3513 744 3044 326 
Q 2575 -91 1722 -91 
Q 1428 -91 1123 -41 
Q 819 9 494 109 
L 494 744 
Q 775 591 1075 516 
Q 1375 441 1709 441 
Q 2250 441 2565 725 
Q 2881 1009 2881 1497 
Q 2881 1984 2565 2268 
Q 2250 2553 1709 2553 
Q 1456 2553 1204 2497 
Q 953 2441 691 2322 
L 691 4666 
z
" transform="scale(0.015625)"/>
       </defs>
       <use xlink:href="#DejaVuSans-35"/>
       <use xlink:href="#DejaVuSans-30" transform="translate(63.623047 0)"/>
       <use xlink:href="#DejaVuSans-30" transform="translate(127.246094 0)"/>
      </g>
     </g>
    </g>
    <g id="text_7">
     <!-- Exchange Step -->
     <g transform="translate(405.755 415.354062) scale(0.12 -0.12)">
      <defs>
       <path id="DejaVuSans-45" d="M 628 4666 
L 3578 4666 
L 3578 4134 
L 1259 4134 
L 1259 2753 
L 3481 2753 
L 3481 2222 
L 1259 2222 
L 1259 531 
L 3634 531 
L 3634 0 
L 628 0 
L 628 4666 
z
" transform="scale(0.015625)"/>
       <path id="DejaVuSans-78" d="M 3513 3500 
L 2247 1797 
L 3578 0 
L 2900 0 
L 1881 1375 
L 863 0 
L 184 0 
L 1544 1831 
L 300 3500 
L 978 3500 
L 1906 2253 
L 2834 3500 
L 3513 3500 
z
" transform="scale(0.015625)"/>
       <path id="DejaVuSans-63" d="M 3122 3366 
L 3122 2828 
Q 2878 2963 2633 3030 
Q 2388 3097 2138 3097 
Q 1578 3097 1268 2742 
Q 959 2388 959 1747 
Q 959 1106 1268 751 
Q 1578 397 2138 397 
Q 2388 397 2633 464 
Q 2878 531 3122 666 
L 3122 134 
Q 2881 22 2623 -34 
Q 2366 -91 2075 -91 
Q 1284 -91 818 406 
Q 353 903 353 1747 
Q 353 2603 823 3093 
Q 1294 3584 2113 3584 
Q 2378 3584 2631 3529 
Q 2884 3475 3122 3366 
z
" transform="scale(0.015625)"/>
       <path id="DejaVuSans-68" d="M 3513 2113 
L 3513 0 
L 2938 0 
L 2938 2094 
Q 2938 2591 2744 2837 
Q 2550 3084 2163 3084 
Q 1697 3084 1428 2787 
Q 1159 2491 1159 1978 
L 1159 0 
L 581 0 
L 581 4863 
L 1159 4863 
L 1159 2956 
Q 1366 3272 1645 3428 
Q 1925 3584 2291 3584 
Q 2894 3584 3203 3211 
Q 3513 2838 3513 2113 
z
" transform="scale(0.015625)"/>
       <path id="DejaVuSans-61" d="M 2194 1759 
Q 1497 1759 1228 1600 
Q 959 1441 959 1056 
Q 959 750 1161 570 
Q 1363 391 1709 391 
Q 2188 391 2477 730 
Q 2766 1069 2766 1631 
L 2766 1759 
L 2194 1759 
z
M 3341 1997 
L 3341 0 
L 2766 0 
L 2766 531 
Q 2569 213 2275 61 
Q 1981 -91 1556 -91 
Q 1019 -91 701 211 
Q 384 513 384 1019 
Q 384 1609 779 1909 
Q 1175 2209 1959 2209 
L 2766 2209 
L 2766 2266 
Q 2766 2663 2505 2880 
Q 2244 3097 1772 3097 
Q 1472 3097 1187 3025 
Q 903 2953 641 2809 
L 641 3341 
Q 956 3463 1253 3523 
Q 1550 3584 1831 3584 
Q 2591 3584 2966 3190 
Q 3341 2797 3341 1997 
z
" transform="scale(0.015625)"/>
       <path id="DejaVuSans-6e" d="M 3513 2113 
L 3513 0 
L 2938 0 
L 2938 2094 
Q 2938 2591 2744 2837 
Q 2550 3084 2163 3084 
Q 1697 3084 1428 2787 
Q 1159 2491 1159 1978 
L 1159 0 
L 581 0 
L 581 3500 
L 1159 3500 
L 1159 2956 
Q 1366 3272 1645 3428 
Q 1925 3584 2291 3584 
Q 2894 3584 3203 3211 
Q 3513 2838 3513 2113 
z
" transform="scale(0.015625)"/>
       <path id="DejaVuSans-67" d="M 2906 1791 
Q 2906 2416 2648 2759 
Q 2391 3103 1925 3103 
Q 1463 3103 1205 2759 
Q 947 2416 947 1791 
Q 947 1169 1205 825 
Q 1463 481 1925 481 
Q 2391 481 2648 825 
Q 2906 1169 2906 1791 
z
M 3481 434 
Q 3481 -459 3084 -895 
Q 2688 -1331 1869 -1331 
Q 1566 -1331 1297 -1286 
Q 1028 -1241 775 -1147 
L 775 -588 
Q 1028 -725 1275 -790 
Q 1522 -856 1778 -856 
Q 2344 -856 2625 -561 
Q 2906 -266 2906 331 
L 2906 616 
Q 2728 306 2450 153 
Q 2172 0 1784 0 
Q 1141 0 747 490 
Q 353 981 353 1791 
Q 353 2603 747 3093 
Q 1141 3584 1784 3584 
Q 2172 3584 2450 3431 
Q 2728 3278 2906 2969 
L 2906 3500 
L 3481 3500 
L 3481 434 
z
" transform="scale(0.015625)"/>
       <path id="DejaVuSans-65" d="M 3597 1894 
L 3597 1613 
L 953 1613 
Q 991 1019 1311 708 
Q 1631 397 2203 397 
Q 2534 397 2845 478 
Q 3156 559 3463 722 
L 3463 178 
Q 3153 47 2828 -22 
Q 2503 -91 2169 -91 
Q 1331 -91 842 396 
Q 353 884 353 1716 
Q 353 2575 817 3079 
Q 1281 3584 2069 3584 
Q 2775 3584 3186 3129 
Q 3597 2675 3597 1894 
z
M 3022 2063 
Q 3016 2534 2758 2815 
Q 2500 3097 2075 3097 
Q 1594 3097 1305 2825 
Q 1016 2553 972 2059 
L 3022 2063 
z
" transform="scale(0.015625)"/>
       <path id="DejaVuSans-20" transform="scale(0.015625)"/>
       <path id="DejaVuSans-53" d="M 3425 4513 
L 3425 3897 
Q 3066 4069 2747 4153 
Q 2428 4238 2131 4238 
Q 1616 4238 1336 4038 
Q 1056 3838 1056 3469 
Q 1056 3159 1242 3001 
Q 1428 2844 1947 2747 
L 2328 2669 
Q 3034 2534 3370 2195 
Q 3706 1856 3706 1288 
Q 3706 609 3251 259 
Q 2797 -91 1919 -91 
Q 1588 -91 1214 -16 
Q 841 59 441 206 
L 441 856 
Q 825 641 1194 531 
Q 1563 422 1919 422 
Q 2459 422 2753 634 
Q 3047 847 3047 1241 
Q 3047 1584 2836 1778 
Q 2625 1972 2144 2069 
L 1759 2144 
Q 1053 2284 737 2584 
Q 422 2884 422 3419 
Q 422 4038 858 4394 
Q 1294 4750 2059 4750 
Q 2388 4750 2728 4690 
Q 3069 4631 3425 4513 
z
" transform="scale(0.015625)"/>
       <path id="DejaVuSans-74" d="M 1172 4494 
L 1172 3500 
L 2356 3500 
L 2356 3053 
L 1172 3053 
L 1172 1153 
Q 1172 725 1289 603 
Q 1406 481 1766 481 
L 2356 481 
L 2356 0 
L 1766 0 
Q 1100 0 847 248 
Q 594 497 594 1153 
L 594 3053 
L 172 3053 
L 172 3500 
L 594 3500 
L 594 4494 
L 1172 4494 
z
" transform="scale(0.015625)"/>
       <path id="DejaVuSans-70" d="M 1159 525 
L 1159 -1331 
L 581 -1331 
L 581 3500 
L 1159 3500 
L 1159 2969 
Q 1341 3281 1617 3432 
Q 1894 3584 2278 3584 
Q 2916 3584 3314 3078 
Q 3713 2572 3713 1747 
Q 3713 922 3314 415 
Q 2916 -91 2278 -91 
Q 1894 -91 1617 61 
Q 1341 213 1159 525 
z
M 3116 1747 
Q 3116 2381 2855 2742 
Q 2594 3103 2138 3103 
Q 1681 3103 1420 2742 
Q 1159 2381 1159 1747 
Q 1159 1113 1420 752 
Q 1681 391 2138 391 
Q 2594 391 2855 752 
Q 3116 1113 3116 1747 
z
" transform="scale(0.015625)"/>
      </defs>
      <use xlink:href="#DejaVuSans-45"/>
      <use xlink:href="#DejaVuSans-78" transform="translate(63.183594 0)"/>
      <use xlink:href="#DejaVuSans-63" transform="translate(120.613281 0)"/>
      <use xlink:href="#DejaVuSans-68" transform="translate(175.59375 0)"/>
      <use xlink:href="#DejaVuSans-61" transform="translate(238.972656 0)"/>
      <use xlink:href="#DejaVuSans-6e" transform="translate(300.251953 0)"/>
      <use xlink:href="#DejaVuSans-67" transform="translate(363.630859 0)"/>
      <use xlink:href="#DejaVuSans-65" transform="translate(427.107422 0)"/>
      <use xlink:href="#DejaVuSans-20" transform="translate(488.630859 0)"/>
      <use xlink:href="#DejaVuSans-53" transform="translate(520.417969 0)"/>
      <use xlink:href="#DejaVuSans-74" transform="translate(583.894531 0)"/>
      <use xlink:href="#DejaVuSans-65" transform="translate(623.103516 0)"/>
      <use xlink:href="#DejaVuSans-70" transform="translate(684.626953 0)"/>
     </g>
    </g>
   </g>
   <g id="matplotlib.axis_2">
    <g id="ytick_1">
     <g id="line2d_13">
      <path d="M 50.918438 341.712964 
L 850.368438 341.712964 
" clip-path="url(#pe78fced54c)" style="fill: none; stroke: #b0b0b0; stroke-opacity: 0.3; stroke-width: 0.8; stroke-linecap: square"/>
     </g>
     <g id="line2d_14">
      <defs>
       <path id="mcce693929c" d="M 0 0 
L -3.5 0 
" style="stroke: #000000; stroke-width: 0.8"/>
      </defs>
      <g>
       <use xlink:href="#mcce693929c" x="50.918438" y="341.712964" style="stroke: #000000; stroke-width: 0.8"/>
      </g>
     </g>
     <g id="text_8">
      <!-- −10 -->
      <g transform="translate(22.81375 345.512183) scale(0.1 -0.1)">
       <defs>
        <path id="DejaVuSans-2212" d="M 678 2272 
L 4684 2272 
L 4684 1741 
L 678 1741 
L 678 2272 
z
" transform="scale(0.015625)"/>
       </defs>
       <use xlink:href="#DejaVuSans-2212"/>
       <use xlink:href="#DejaVuSans-31" transform="translate(83.789062 0)"/>
       <use xlink:href="#DejaVuSans-30" transform="translate(147.412109 0)"/>
      </g>
     </g>
    </g>
    <g id="ytick_2">
     <g id="line2d_15">
      <path d="M 50.918438 273.205388 
L 850.368438 273.205388 
" clip-path="url(#pe78fced54c)" style="fill: none; stroke: #b0b0b0; stroke-opacity: 0.3; stroke-width: 0.8; stroke-linecap: square"/>
     </g>
     <g id="line2d_16">
      <g>
       <use xlink:href="#mcce693929c" x="50.918438" y="273.205388" style="stroke: #000000; stroke-width: 0.8"/>
      </g>
     </g>
     <g id="text_9">
      <!-- −5 -->
      <g transform="translate(29.17625 277.004607) scale(0.1 -0.1)">
       <use xlink:href="#DejaVuSans-2212"/>
       <use xlink:href="#DejaVuSans-35" transform="translate(83.789062 0)"/>
      </g>
     </g>
    </g>
    <g id="ytick_3">
     <g id="line2d_17">
      <path d="M 50.918438 204.697812 
L 850.368438 204.697812 
" clip-path="url(#pe78fced54c)" style="fill: none; stroke: #b0b0b0; stroke-opacity: 0.3; stroke-width: 0.8; stroke-linecap: square"/>
     </g>
     <g id="line2d_18">
      <g>
       <use xlink:href="#mcce693929c" x="50.918438" y="204.697812" style="stroke: #000000; stroke-width: 0.8"/>
      </g>
     </g>
     <g id="text_10">
      <!-- 0 -->
      <g transform="translate(37.555937 208.497031) scale(0.1 -0.1)">
       <use xlink:href="#DejaVuSans-30"/>
      </g>
     </g>
    </g>
    <g id="ytick_4">
     <g id="line2d_19">
      <path d="M 50.918438 136.190237 
L 850.368438 136.190237 
" clip-path="url(#pe78fced54c)" style="fill: none; stroke: #b0b0b0; stroke-opacity: 0.3; stroke-width: 0.8; stroke-linecap: square"/>
     </g>
     <g id="line2d_20">
      <g>
       <use xlink:href="#mcce693929c" x="50.918438" y="136.190237" style="stroke: #000000; stroke-width: 0.8"/>
      </g>
     </g>
     <g id="text_11">
      <!-- 5 -->
      <g transform="translate(37.555937 139.989455) scale(0.1 -0.1)">
       <use xlink:href="#DejaVuSans-35"/>
      </g>
     </g>
    </g>
    <g id="ytick_5">
     <g id="line2d_21">
      <path d="M 50.918438 67.682661 
L 850.368438 67.682661 
" clip-path="url(#pe78fced54c)" style="fill: none; stroke: #b0b0b0; stroke-opacity: 0.3; stroke-width: 0.8; stroke-linecap: square"/>
     </g>
     <g id="line2d_22">
      <g>
       <use xlink:href="#mcce693929c" x="50.918438" y="67.682661" style="stroke: #000000; stroke-width: 0.8"/>
      </g>
     </g>
     <g id="text_12">
      <!-- 10 -->
      <g transform="translate(31.193438 71.48188) scale(0.1 -0.1)">
       <use xlink:href="#DejaVuSans-31"/>
       <use xlink:href="#DejaVuSans-30" transform="translate(63.623047 0)"/>
      </g>
     </g>
    </g>
    <g id="text_13">
     <!-- Energy E -->
     <g transform="translate(16.318125 231.403437) rotate(-90) scale(0.12 -0.12)">
      <defs>
       <path id="DejaVuSans-72" d="M 2631 2963 
Q 2534 3019 2420 3045 
Q 2306 3072 2169 3072 
Q 1681 3072 1420 2755 
Q 1159 2438 1159 1844 
L 1159 0 
L 581 0 
L 581 3500 
L 1159 3500 
L 1159 2956 
Q 1341 3275 1631 3429 
Q 1922 3584 2338 3584 
Q 2397 3584 2469 3576 
Q 2541 3569 2628 3553 
L 2631 2963 
z
" transform="scale(0.015625)"/>
       <path id="DejaVuSans-79" d="M 2059 -325 
Q 1816 -950 1584 -1140 
Q 1353 -1331 966 -1331 
L 506 -1331 
L 506 -850 
L 844 -850 
Q 1081 -850 1212 -737 
Q 1344 -625 1503 -206 
L 1606 56 
L 191 3500 
L 800 3500 
L 1894 763 
L 2988 3500 
L 3597 3500 
L 2059 -325 
z
" transform="scale(0.015625)"/>
      </defs>
      <use xlink:href="#DejaVuSans-45"/>
      <use xlink:href="#DejaVuSans-6e" transform="translate(63.183594 0)"/>
      <use xlink:href="#DejaVuSans-65" transform="translate(126.5625 0)"/>
      <use xlink:href="#DejaVuSans-72" transform="translate(188.085938 0)"/>
      <use xlink:href="#DejaVuSans-67" transform="translate(227.449219 0)"/>
      <use xlink:href="#DejaVuSans-79" transform="translate(290.925781 0)"/>
      <use xlink:href="#DejaVuSans-20" transform="translate(350.105469 0)"/>
      <use xlink:href="#DejaVuSans-45" transform="translate(381.892578 0)"/>
     </g>
    </g>
   </g>
   <g id="line2d_23">
    <path d="M 87.257074 40.279631 
L 814.029801 40.279631 
L 814.029801 40.279631 
" clip-path="url(#pe78fced54c)" style="fill: none; stroke: #1f77b4; stroke-opacity: 0.7; stroke-width: 1.5; stroke-linecap: square"/>
   </g>
   <g id="line2d_24">
    <path d="M 87.257074 113.354378 
L 88.713532 40.279631 
L 168.818743 40.279631 
L 170.275201 58.548318 
L 171.731659 58.548318 
L 173.188118 40.279631 
L 337.767914 40.279631 
L 339.224372 58.548318 
L 340.68083 40.279631 
L 613.038546 40.279631 
L 614.495004 58.548318 
L 615.951463 40.279631 
L 814.029801 40.279631 
L 814.029801 40.279631 
" clip-path="url(#pe78fced54c)" style="fill: none; stroke: #ff7f0e; stroke-opacity: 0.7; stroke-width: 1.5; stroke-linecap: square"/>
   </g>
   <g id="line2d_25">
    <path d="M 87.257074 113.354378 
L 88.713532 40.279631 
L 90.169991 58.548318 
L 91.626449 40.279631 
L 95.995824 40.279631 
L 97.452282 58.548318 
L 98.908741 40.279631 
L 106.191033 40.279631 
L 107.647491 58.548318 
L 109.103949 40.279631 
L 110.560408 58.548318 
L 112.016866 40.279631 
L 125.124992 40.279631 
L 126.58145 58.548318 
L 128.037908 40.279631 
L 129.494367 40.279631 
L 130.950825 58.548318 
L 132.407283 40.279631 
L 146.971867 40.279631 
L 148.428325 58.548318 
L 149.884784 40.279631 
L 152.797701 40.279631 
L 154.254159 58.548318 
L 155.710617 40.279631 
L 160.079992 40.279631 
L 161.536451 58.548318 
L 162.992909 40.279631 
L 164.449368 40.279631 
L 165.905826 58.548318 
L 167.362284 40.279631 
L 170.275201 40.279631 
L 171.731659 58.548318 
L 173.188118 58.548318 
L 174.644576 40.279631 
L 179.013951 40.279631 
L 180.47041 58.548318 
L 181.926868 58.548318 
L 183.383326 40.279631 
L 184.839785 58.548318 
L 186.296243 40.279631 
L 187.752701 40.279631 
L 189.20916 58.548318 
L 190.665618 40.279631 
L 199.404368 40.279631 
L 200.860827 58.548318 
L 202.317285 40.279631 
L 243.09812 40.279631 
L 244.554578 58.548318 
L 246.011036 40.279631 
L 248.923953 40.279631 
L 250.380411 58.548318 
L 251.83687 58.548318 
L 253.293328 40.279631 
L 260.57562 40.279631 
L 262.032078 58.548318 
L 263.488537 40.279631 
L 264.944995 40.279631 
L 266.401454 58.548318 
L 267.857912 40.279631 
L 275.140204 40.279631 
L 276.596662 58.548318 
L 278.053121 40.279631 
L 286.791871 40.279631 
L 288.248329 58.548318 
L 289.704787 58.548318 
L 291.161246 40.279631 
L 302.812913 40.279631 
L 304.269371 58.548318 
L 305.72583 40.279631 
L 321.746872 40.279631 
L 323.20333 58.548318 
L 324.659788 58.548318 
L 326.116247 76.817004 
L 329.029163 40.279631 
L 336.311455 40.279631 
L 337.767914 58.548318 
L 339.224372 40.279631 
L 340.68083 58.548318 
L 342.137289 58.548318 
L 343.593747 40.279631 
L 356.701873 40.279631 
L 358.158331 113.354378 
L 359.614789 40.279631 
L 365.440623 40.279631 
L 366.897081 58.548318 
L 368.35354 40.279631 
L 391.656873 40.279631 
L 393.113332 58.548318 
L 394.56979 40.279631 
L 407.677916 40.279631 
L 409.134374 58.548318 
L 410.590832 40.279631 
L 417.873124 40.279631 
L 419.329583 58.548318 
L 420.786041 58.548318 
L 422.242499 40.279631 
L 425.155416 40.279631 
L 426.611874 58.548318 
L 428.068333 40.279631 
L 430.981249 40.279631 
L 432.437708 76.817004 
L 433.894166 40.279631 
L 435.350625 40.279631 
L 436.807083 58.548318 
L 438.263541 58.548318 
L 439.72 40.279631 
L 465.93625 40.279631 
L 467.392709 58.548318 
L 468.849167 40.279631 
L 476.131459 40.279631 
L 477.587917 58.548318 
L 479.044376 40.279631 
L 483.413751 40.279631 
L 484.870209 58.548318 
L 486.326668 40.279631 
L 489.239584 40.279631 
L 490.696043 58.548318 
L 492.152501 40.279631 
L 493.608959 58.548318 
L 496.521876 58.548318 
L 497.978335 40.279631 
L 505.260626 40.279631 
L 506.717085 58.548318 
L 508.173543 58.548318 
L 509.630002 40.279631 
L 511.08646 58.548318 
L 512.542918 40.279631 
L 515.455835 40.279631 
L 516.912293 58.548318 
L 518.368752 40.279631 
L 537.302711 40.279631 
L 538.759169 58.548318 
L 540.215627 58.548318 
L 541.672086 40.279631 
L 543.128544 40.279631 
L 544.585002 58.548318 
L 546.041461 40.279631 
L 548.954378 40.279631 
L 550.410836 58.548318 
L 551.867294 40.279631 
L 553.323753 58.548318 
L 554.780211 40.279631 
L 556.236669 58.548318 
L 557.693128 40.279631 
L 564.97542 40.279631 
L 566.431878 58.548318 
L 567.888336 40.279631 
L 580.996462 40.279631 
L 582.45292 58.548318 
L 583.909378 40.279631 
L 589.735212 40.279631 
L 591.19167 58.548318 
L 594.104587 58.548318 
L 595.561045 40.279631 
L 597.017504 40.279631 
L 598.473962 58.548318 
L 602.843337 58.548318 
L 604.299796 40.279631 
L 607.212712 40.279631 
L 608.669171 58.548318 
L 610.125629 40.279631 
L 614.495004 40.279631 
L 615.951463 58.548318 
L 618.864379 58.548318 
L 620.320838 40.279631 
L 629.059588 40.279631 
L 630.516046 58.548318 
L 631.972505 58.548318 
L 633.428963 40.279631 
L 634.885421 58.548318 
L 636.34188 40.279631 
L 640.711255 40.279631 
L 642.167713 58.548318 
L 643.624172 40.279631 
L 646.537088 40.279631 
L 647.993547 58.548318 
L 649.450005 40.279631 
L 666.927506 40.279631 
L 668.383964 58.548318 
L 669.840422 40.279631 
L 674.209797 40.279631 
L 675.666256 58.548318 
L 677.122714 40.279631 
L 690.23084 40.279631 
L 691.687298 58.548318 
L 693.143756 40.279631 
L 713.534174 40.279631 
L 714.990632 58.548318 
L 716.44709 40.279631 
L 745.576258 40.279631 
L 747.032716 58.548318 
L 748.489174 40.279631 
L 758.684383 40.279631 
L 760.140841 58.548318 
L 761.5973 40.279631 
L 764.510217 40.279631 
L 765.966675 58.548318 
L 768.879592 58.548318 
L 770.33605 40.279631 
L 814.029801 40.279631 
L 814.029801 40.279631 
" clip-path="url(#pe78fced54c)" style="fill: none; stroke: #2ca02c; stroke-opacity: 0.7; stroke-width: 1.5; stroke-linecap: square"/>
   </g>
   <g id="line2d_26">
    <path d="M 87.257074 168.160439 
L 88.713532 40.279631 
L 90.169991 40.279631 
L 91.626449 58.548318 
L 93.082907 40.279631 
L 97.452282 40.279631 
L 98.908741 58.548318 
L 100.365199 113.354378 
L 101.821658 58.548318 
L 103.278116 58.548318 
L 104.734574 76.817004 
L 107.647491 40.279631 
L 109.103949 58.548318 
L 110.560408 40.279631 
L 113.473325 40.279631 
L 114.929783 58.548318 
L 116.386241 58.548318 
L 117.8427 40.279631 
L 123.668533 40.279631 
L 125.124992 58.548318 
L 129.494367 58.548318 
L 130.950825 40.279631 
L 132.407283 58.548318 
L 133.863742 95.085691 
L 135.3202 58.548318 
L 136.776658 40.279631 
L 138.233117 58.548318 
L 139.689575 40.279631 
L 142.602492 40.279631 
L 144.05895 58.548318 
L 145.515409 58.548318 
L 146.971867 40.279631 
L 152.797701 40.279631 
L 154.254159 58.548318 
L 155.710617 40.279631 
L 157.167076 40.279631 
L 158.623534 58.548318 
L 160.079992 40.279631 
L 162.992909 40.279631 
L 164.449368 58.548318 
L 165.905826 40.279631 
L 167.362284 58.548318 
L 168.818743 40.279631 
L 170.275201 58.548318 
L 171.731659 40.279631 
L 173.188118 58.548318 
L 174.644576 58.548318 
L 176.101035 40.279631 
L 180.47041 40.279631 
L 181.926868 58.548318 
L 184.839785 58.548318 
L 186.296243 40.279631 
L 190.665618 40.279631 
L 192.122077 76.817004 
L 195.034993 40.279631 
L 196.491452 58.548318 
L 197.94791 40.279631 
L 199.404368 40.279631 
L 200.860827 58.548318 
L 202.317285 40.279631 
L 211.056035 40.279631 
L 212.512494 58.548318 
L 213.968952 58.548318 
L 215.425411 40.279631 
L 218.338327 40.279631 
L 219.794786 58.548318 
L 221.251244 58.548318 
L 222.707702 40.279631 
L 224.164161 58.548318 
L 225.620619 40.279631 
L 229.989994 40.279631 
L 231.446453 58.548318 
L 232.902911 58.548318 
L 234.359369 40.279631 
L 235.815828 40.279631 
L 237.272286 58.548318 
L 240.185203 58.548318 
L 241.641661 40.279631 
L 243.09812 58.548318 
L 244.554578 40.279631 
L 247.467495 40.279631 
L 248.923953 58.548318 
L 250.380411 58.548318 
L 251.83687 40.279631 
L 257.662703 40.279631 
L 259.119162 58.548318 
L 260.57562 40.279631 
L 270.770829 40.279631 
L 272.227287 58.548318 
L 273.683745 58.548318 
L 275.140204 40.279631 
L 276.596662 40.279631 
L 278.053121 58.548318 
L 279.509579 40.279631 
L 280.966037 58.548318 
L 282.422496 58.548318 
L 283.878954 40.279631 
L 289.704787 40.279631 
L 291.161246 58.548318 
L 292.617704 58.548318 
L 294.074163 40.279631 
L 299.899996 40.279631 
L 301.356454 58.548318 
L 302.812913 95.085691 
L 304.269371 58.548318 
L 305.72583 40.279631 
L 307.182288 58.548318 
L 308.638746 40.279631 
L 311.551663 40.279631 
L 313.008121 58.548318 
L 314.46458 40.279631 
L 315.921038 40.279631 
L 317.377497 58.548318 
L 318.833955 40.279631 
L 323.20333 40.279631 
L 324.659788 76.817004 
L 327.572705 40.279631 
L 329.029163 58.548318 
L 339.224372 58.548318 
L 340.68083 40.279631 
L 349.419581 40.279631 
L 350.876039 95.085691 
L 352.332497 40.279631 
L 353.788956 58.548318 
L 355.245414 40.279631 
L 356.701873 58.548318 
L 358.158331 58.548318 
L 359.614789 76.817004 
L 361.071248 40.279631 
L 362.527706 58.548318 
L 363.984164 40.279631 
L 368.35354 40.279631 
L 369.809998 58.548318 
L 371.266456 40.279631 
L 375.635831 40.279631 
L 377.09229 76.817004 
L 380.005206 40.279631 
L 381.461665 58.548318 
L 382.918123 40.279631 
L 385.83104 76.817004 
L 387.287498 40.279631 
L 388.743957 58.548318 
L 390.200415 40.279631 
L 391.656873 40.279631 
L 393.113332 58.548318 
L 394.56979 58.548318 
L 396.026249 40.279631 
L 397.482707 40.279631 
L 398.939165 58.548318 
L 404.764999 58.548318 
L 406.221457 76.817004 
L 409.134374 40.279631 
L 410.590832 58.548318 
L 412.047291 40.279631 
L 414.960207 40.279631 
L 416.416666 58.548318 
L 417.873124 40.279631 
L 419.329583 58.548318 
L 420.786041 58.548318 
L 422.242499 40.279631 
L 425.155416 76.817004 
L 426.611874 40.279631 
L 429.524791 40.279631 
L 430.981249 95.085691 
L 432.437708 58.548318 
L 433.894166 40.279631 
L 435.350625 40.279631 
L 436.807083 58.548318 
L 438.263541 40.279631 
L 441.176458 40.279631 
L 442.632916 58.548318 
L 444.089375 58.548318 
L 445.545833 40.279631 
L 449.915208 40.279631 
L 451.371667 58.548318 
L 452.828125 40.279631 
L 454.284583 76.817004 
L 455.741042 40.279631 
L 457.1975 40.279631 
L 458.653959 76.817004 
L 460.110417 58.548318 
L 461.566875 58.548318 
L 463.023334 40.279631 
L 468.849167 40.279631 
L 470.305626 58.548318 
L 473.218542 58.548318 
L 474.675001 95.085691 
L 476.131459 40.279631 
L 477.587917 40.279631 
L 479.044376 58.548318 
L 480.500834 40.279631 
L 483.413751 40.279631 
L 486.326668 76.817004 
L 487.783126 76.817004 
L 489.239584 58.548318 
L 492.152501 58.548318 
L 493.608959 40.279631 
L 495.065418 58.548318 
L 496.521876 40.279631 
L 497.978335 40.279631 
L 499.434793 76.817004 
L 500.891251 40.279631 
L 508.173543 40.279631 
L 509.630002 58.548318 
L 511.08646 40.279631 
L 512.542918 58.548318 
L 513.999377 40.279631 
L 515.455835 58.548318 
L 516.912293 95.085691 
L 518.368752 95.085691 
L 519.82521 40.279631 
L 522.738127 40.279631 
L 524.194585 58.548318 
L 525.651044 40.279631 
L 530.020419 40.279631 
L 532.933335 76.817004 
L 534.389794 40.279631 
L 535.846252 40.279631 
L 537.302711 76.817004 
L 538.759169 40.279631 
L 540.215627 58.548318 
L 541.672086 40.279631 
L 543.128544 76.817004 
L 546.041461 40.279631 
L 550.410836 40.279631 
L 551.867294 58.548318 
L 553.323753 40.279631 
L 554.780211 58.548318 
L 556.236669 58.548318 
L 557.693128 76.817004 
L 560.606045 40.279631 
L 562.062503 40.279631 
L 563.518961 95.085691 
L 564.97542 58.548318 
L 566.431878 40.279631 
L 567.888336 58.548318 
L 569.344795 40.279631 
L 572.257712 40.279631 
L 573.71417 58.548318 
L 575.170628 40.279631 
L 579.540003 40.279631 
L 580.996462 58.548318 
L 583.909378 58.548318 
L 585.365837 40.279631 
L 586.822295 58.548318 
L 588.278754 58.548318 
L 589.735212 40.279631 
L 591.19167 40.279631 
L 592.648129 58.548318 
L 594.104587 40.279631 
L 595.561045 40.279631 
L 597.017504 58.548318 
L 598.473962 95.085691 
L 599.930421 40.279631 
L 604.299796 40.279631 
L 605.756254 58.548318 
L 607.212712 58.548318 
L 608.669171 40.279631 
L 611.582088 40.279631 
L 613.038546 58.548318 
L 614.495004 40.279631 
L 615.951463 95.085691 
L 617.407921 40.279631 
L 618.864379 40.279631 
L 620.320838 58.548318 
L 621.777296 40.279631 
L 623.233754 40.279631 
L 624.690213 58.548318 
L 626.146671 40.279631 
L 629.059588 40.279631 
L 630.516046 58.548318 
L 631.972505 58.548318 
L 633.428963 40.279631 
L 634.885421 58.548318 
L 636.34188 40.279631 
L 637.798338 40.279631 
L 640.711255 76.817004 
L 642.167713 76.817004 
L 645.08063 40.279631 
L 646.537088 40.279631 
L 647.993547 58.548318 
L 649.450005 40.279631 
L 652.362922 40.279631 
L 653.81938 58.548318 
L 655.275839 58.548318 
L 656.732297 40.279631 
L 658.188755 40.279631 
L 659.645214 58.548318 
L 664.014589 58.548318 
L 665.471047 40.279631 
L 666.927506 76.817004 
L 668.383964 40.279631 
L 671.296881 40.279631 
L 672.753339 58.548318 
L 674.209797 40.279631 
L 675.666256 40.279631 
L 677.122714 113.354378 
L 678.579173 76.817004 
L 680.035631 58.548318 
L 681.492089 58.548318 
L 682.948548 40.279631 
L 684.405006 58.548318 
L 685.861464 40.279631 
L 698.96959 40.279631 
L 700.426048 58.548318 
L 701.882507 58.548318 
L 703.338965 40.279631 
L 704.795423 40.279631 
L 706.251882 58.548318 
L 707.70834 58.548318 
L 709.164798 40.279631 
L 710.621257 40.279631 
L 712.077715 58.548318 
L 713.534174 40.279631 
L 716.44709 76.817004 
L 717.903549 58.548318 
L 720.816465 58.548318 
L 722.272924 76.817004 
L 723.729382 40.279631 
L 725.18584 58.548318 
L 726.642299 58.548318 
L 728.098757 40.279631 
L 731.011674 40.279631 
L 732.468132 76.817004 
L 733.924591 40.279631 
L 735.381049 76.817004 
L 736.837507 40.279631 
L 738.293966 58.548318 
L 739.750424 58.548318 
L 741.206883 40.279631 
L 742.663341 58.548318 
L 747.032716 58.548318 
L 748.489174 40.279631 
L 749.945633 40.279631 
L 751.402091 76.817004 
L 752.85855 40.279631 
L 755.771466 40.279631 
L 757.227925 58.548318 
L 758.684383 58.548318 
L 760.140841 40.279631 
L 761.5973 40.279631 
L 763.053758 58.548318 
L 764.510217 58.548318 
L 765.966675 40.279631 
L 767.423133 40.279631 
L 768.879592 58.548318 
L 770.33605 40.279631 
L 771.792508 40.279631 
L 773.248967 58.548318 
L 774.705425 40.279631 
L 776.161883 40.279631 
L 777.618342 58.548318 
L 779.0748 58.548318 
L 780.531259 40.279631 
L 786.357092 40.279631 
L 787.81355 58.548318 
L 789.270009 40.279631 
L 790.726467 58.548318 
L 792.182926 58.548318 
L 793.639384 40.279631 
L 795.095842 58.548318 
L 796.552301 40.279631 
L 798.008759 58.548318 
L 799.465217 40.279631 
L 800.921676 58.548318 
L 802.378134 40.279631 
L 806.747509 40.279631 
L 808.203968 58.548318 
L 809.660426 58.548318 
L 811.116884 40.279631 
L 812.573343 58.548318 
L 814.029801 40.279631 
L 814.029801 40.279631 
" clip-path="url(#pe78fced54c)" style="fill: none; stroke: #d62728; stroke-opacity: 0.7; stroke-width: 1.5; stroke-linecap: square"/>
   </g>
   <g id="line2d_27">
    <path d="M 87.257074 131.623065 
L 88.713532 40.279631 
L 91.626449 113.354378 
L 93.082907 58.548318 
L 94.539366 40.279631 
L 95.995824 58.548318 
L 97.452282 40.279631 
L 100.365199 76.817004 
L 103.278116 40.279631 
L 104.734574 40.279631 
L 106.191033 76.817004 
L 109.103949 40.279631 
L 110.560408 58.548318 
L 112.016866 58.548318 
L 113.473325 168.160439 
L 114.929783 131.623065 
L 116.386241 76.817004 
L 117.8427 58.548318 
L 119.299158 76.817004 
L 120.755616 58.548318 
L 122.212075 58.548318 
L 123.668533 113.354378 
L 125.124992 58.548318 
L 126.58145 76.817004 
L 128.037908 40.279631 
L 129.494367 58.548318 
L 133.863742 58.548318 
L 135.3202 76.817004 
L 136.776658 76.817004 
L 138.233117 95.085691 
L 139.689575 40.279631 
L 141.146034 58.548318 
L 144.05895 58.548318 
L 145.515409 40.279631 
L 146.971867 95.085691 
L 148.428325 40.279631 
L 149.884784 76.817004 
L 151.341242 40.279631 
L 152.797701 76.817004 
L 154.254159 168.160439 
L 155.710617 40.279631 
L 157.167076 58.548318 
L 160.079992 58.548318 
L 161.536451 40.279631 
L 162.992909 76.817004 
L 164.449368 95.085691 
L 165.905826 40.279631 
L 167.362284 40.279631 
L 168.818743 95.085691 
L 170.275201 58.548318 
L 173.188118 95.085691 
L 174.644576 40.279631 
L 177.557493 76.817004 
L 180.47041 40.279631 
L 181.926868 40.279631 
L 183.383326 76.817004 
L 184.839785 95.085691 
L 186.296243 76.817004 
L 187.752701 40.279631 
L 190.665618 113.354378 
L 192.122077 168.160439 
L 193.578535 40.279631 
L 195.034993 76.817004 
L 196.491452 40.279631 
L 197.94791 76.817004 
L 199.404368 40.279631 
L 200.860827 58.548318 
L 202.317285 95.085691 
L 203.773744 58.548318 
L 205.230202 58.548318 
L 206.68666 95.085691 
L 208.143119 113.354378 
L 209.599577 40.279631 
L 211.056035 40.279631 
L 212.512494 58.548318 
L 213.968952 40.279631 
L 215.425411 58.548318 
L 218.338327 58.548318 
L 219.794786 113.354378 
L 221.251244 131.623065 
L 222.707702 40.279631 
L 224.164161 149.891752 
L 225.620619 76.817004 
L 227.077078 113.354378 
L 228.533536 131.623065 
L 229.989994 58.548318 
L 231.446453 58.548318 
L 232.902911 40.279631 
L 234.359369 58.548318 
L 235.815828 40.279631 
L 237.272286 76.817004 
L 238.728744 76.817004 
L 240.185203 58.548318 
L 241.641661 131.623065 
L 243.09812 58.548318 
L 244.554578 58.548318 
L 246.011036 76.817004 
L 247.467495 40.279631 
L 248.923953 40.279631 
L 251.83687 76.817004 
L 253.293328 40.279631 
L 254.749787 58.548318 
L 256.206245 40.279631 
L 257.662703 58.548318 
L 259.119162 58.548318 
L 260.57562 40.279631 
L 262.032078 149.891752 
L 263.488537 40.279631 
L 264.944995 95.085691 
L 266.401454 40.279631 
L 267.857912 58.548318 
L 269.31437 58.548318 
L 270.770829 113.354378 
L 272.227287 40.279631 
L 273.683745 40.279631 
L 275.140204 113.354378 
L 276.596662 131.623065 
L 278.053121 40.279631 
L 279.509579 131.623065 
L 280.966037 76.817004 
L 282.422496 58.548318 
L 283.878954 76.817004 
L 285.335412 113.354378 
L 286.791871 58.548318 
L 288.248329 149.891752 
L 289.704787 40.279631 
L 291.161246 76.817004 
L 292.617704 76.817004 
L 294.074163 95.085691 
L 295.530621 40.279631 
L 296.987079 58.548318 
L 298.443538 58.548318 
L 299.899996 40.279631 
L 301.356454 58.548318 
L 305.72583 58.548318 
L 307.182288 40.279631 
L 308.638746 95.085691 
L 310.095205 76.817004 
L 311.551663 113.354378 
L 313.008121 113.354378 
L 314.46458 58.548318 
L 315.921038 95.085691 
L 317.377497 40.279631 
L 318.833955 113.354378 
L 320.290413 40.279631 
L 321.746872 58.548318 
L 323.20333 58.548318 
L 324.659788 40.279631 
L 326.116247 58.548318 
L 327.572705 95.085691 
L 329.029163 58.548318 
L 330.485622 131.623065 
L 331.94208 40.279631 
L 333.398539 58.548318 
L 337.767914 58.548318 
L 339.224372 113.354378 
L 340.68083 40.279631 
L 342.137289 58.548318 
L 343.593747 40.279631 
L 346.506664 113.354378 
L 347.963122 95.085691 
L 349.419581 58.548318 
L 353.788956 58.548318 
L 355.245414 76.817004 
L 356.701873 58.548318 
L 358.158331 131.623065 
L 359.614789 131.623065 
L 361.071248 58.548318 
L 362.527706 76.817004 
L 363.984164 149.891752 
L 365.440623 76.817004 
L 366.897081 149.891752 
L 368.35354 76.817004 
L 369.809998 113.354378 
L 371.266456 76.817004 
L 374.179373 76.817004 
L 375.635831 113.354378 
L 377.09229 40.279631 
L 378.548748 40.279631 
L 380.005206 58.548318 
L 381.461665 58.548318 
L 382.918123 113.354378 
L 384.374582 40.279631 
L 385.83104 58.548318 
L 387.287498 40.279631 
L 388.743957 95.085691 
L 390.200415 58.548318 
L 391.656873 58.548318 
L 393.113332 40.279631 
L 394.56979 58.548318 
L 396.026249 58.548318 
L 397.482707 40.279631 
L 398.939165 58.548318 
L 400.395624 40.279631 
L 401.852082 95.085691 
L 403.30854 58.548318 
L 404.764999 76.817004 
L 406.221457 58.548318 
L 407.677916 149.891752 
L 409.134374 40.279631 
L 410.590832 95.085691 
L 412.047291 40.279631 
L 413.503749 131.623065 
L 414.960207 40.279631 
L 416.416666 76.817004 
L 417.873124 149.891752 
L 419.329583 40.279631 
L 420.786041 40.279631 
L 423.698958 76.817004 
L 425.155416 40.279631 
L 426.611874 58.548318 
L 430.981249 58.548318 
L 432.437708 113.354378 
L 433.894166 58.548318 
L 435.350625 40.279631 
L 438.263541 76.817004 
L 439.72 76.817004 
L 441.176458 131.623065 
L 442.632916 58.548318 
L 445.545833 58.548318 
L 447.002292 76.817004 
L 448.45875 40.279631 
L 452.828125 40.279631 
L 454.284583 58.548318 
L 455.741042 40.279631 
L 457.1975 58.548318 
L 458.653959 95.085691 
L 460.110417 40.279631 
L 464.479792 95.085691 
L 465.93625 95.085691 
L 467.392709 58.548318 
L 468.849167 40.279631 
L 470.305626 58.548318 
L 471.762084 40.279631 
L 473.218542 95.085691 
L 474.675001 95.085691 
L 476.131459 40.279631 
L 477.587917 95.085691 
L 479.044376 40.279631 
L 480.500834 58.548318 
L 481.957292 58.548318 
L 483.413751 168.160439 
L 484.870209 76.817004 
L 486.326668 58.548318 
L 487.783126 95.085691 
L 489.239584 40.279631 
L 490.696043 58.548318 
L 492.152501 58.548318 
L 493.608959 76.817004 
L 495.065418 40.279631 
L 496.521876 58.548318 
L 497.978335 95.085691 
L 499.434793 40.279631 
L 500.891251 113.354378 
L 502.34771 58.548318 
L 503.804168 40.279631 
L 505.260626 76.817004 
L 506.717085 40.279631 
L 508.173543 95.085691 
L 509.630002 76.817004 
L 511.08646 40.279631 
L 512.542918 76.817004 
L 513.999377 40.279631 
L 515.455835 113.354378 
L 516.912293 58.548318 
L 518.368752 40.279631 
L 519.82521 95.085691 
L 521.281669 58.548318 
L 522.738127 58.548318 
L 524.194585 149.891752 
L 525.651044 58.548318 
L 532.933335 58.548318 
L 534.389794 113.354378 
L 535.846252 58.548318 
L 537.302711 40.279631 
L 538.759169 76.817004 
L 540.215627 76.817004 
L 541.672086 95.085691 
L 543.128544 58.548318 
L 547.497919 58.548318 
L 548.954378 113.354378 
L 550.410836 95.085691 
L 551.867294 149.891752 
L 553.323753 58.548318 
L 554.780211 40.279631 
L 556.236669 95.085691 
L 559.149586 58.548318 
L 562.062503 58.548318 
L 563.518961 40.279631 
L 564.97542 58.548318 
L 566.431878 149.891752 
L 567.888336 113.354378 
L 569.344795 40.279631 
L 570.801253 95.085691 
L 572.257712 58.548318 
L 573.71417 58.548318 
L 575.170628 76.817004 
L 576.627087 40.279631 
L 578.083545 40.279631 
L 579.540003 95.085691 
L 580.996462 95.085691 
L 582.45292 40.279631 
L 583.909378 58.548318 
L 585.365837 40.279631 
L 588.278754 40.279631 
L 591.19167 76.817004 
L 592.648129 58.548318 
L 594.104587 58.548318 
L 595.561045 40.279631 
L 597.017504 58.548318 
L 598.473962 95.085691 
L 599.930421 58.548318 
L 601.386879 58.548318 
L 602.843337 76.817004 
L 604.299796 186.429126 
L 605.756254 40.279631 
L 607.212712 58.548318 
L 608.669171 58.548318 
L 610.125629 76.817004 
L 611.582088 58.548318 
L 613.038546 76.817004 
L 614.495004 113.354378 
L 615.951463 40.279631 
L 617.407921 95.085691 
L 620.320838 58.548318 
L 623.233754 58.548318 
L 624.690213 40.279631 
L 626.146671 95.085691 
L 627.60313 40.279631 
L 629.059588 40.279631 
L 630.516046 76.817004 
L 631.972505 95.085691 
L 633.428963 40.279631 
L 634.885421 40.279631 
L 636.34188 58.548318 
L 640.711255 58.548318 
L 642.167713 40.279631 
L 643.624172 76.817004 
L 645.08063 95.085691 
L 647.993547 95.085691 
L 649.450005 58.548318 
L 655.275839 58.548318 
L 656.732297 95.085691 
L 658.188755 58.548318 
L 659.645214 40.279631 
L 661.101672 58.548318 
L 662.558131 58.548318 
L 664.014589 40.279631 
L 665.471047 40.279631 
L 666.927506 58.548318 
L 668.383964 58.548318 
L 669.840422 76.817004 
L 671.296881 113.354378 
L 672.753339 58.548318 
L 677.122714 58.548318 
L 678.579173 40.279631 
L 681.492089 40.279631 
L 682.948548 76.817004 
L 684.405006 76.817004 
L 685.861464 113.354378 
L 687.317923 95.085691 
L 688.774381 149.891752 
L 690.23084 76.817004 
L 693.143756 40.279631 
L 696.056673 76.817004 
L 697.513131 113.354378 
L 698.96959 58.548318 
L 700.426048 149.891752 
L 701.882507 149.891752 
L 703.338965 76.817004 
L 704.795423 58.548318 
L 706.251882 76.817004 
L 707.70834 58.548318 
L 709.164798 131.623065 
L 710.621257 58.548318 
L 712.077715 113.354378 
L 713.534174 40.279631 
L 714.990632 58.548318 
L 716.44709 113.354378 
L 717.903549 76.817004 
L 719.360007 58.548318 
L 720.816465 76.817004 
L 722.272924 113.354378 
L 723.729382 58.548318 
L 725.18584 95.085691 
L 726.642299 40.279631 
L 728.098757 58.548318 
L 729.555216 58.548318 
L 731.011674 95.085691 
L 732.468132 58.548318 
L 733.924591 95.085691 
L 735.381049 95.085691 
L 736.837507 168.160439 
L 739.750424 58.548318 
L 741.206883 186.429126 
L 742.663341 76.817004 
L 744.119799 40.279631 
L 745.576258 58.548318 
L 747.032716 95.085691 
L 748.489174 58.548318 
L 749.945633 95.085691 
L 751.402091 58.548318 
L 752.85855 58.548318 
L 754.315008 76.817004 
L 755.771466 113.354378 
L 757.227925 95.085691 
L 758.684383 113.354378 
L 761.5973 40.279631 
L 763.053758 76.817004 
L 764.510217 58.548318 
L 765.966675 58.548318 
L 767.423133 40.279631 
L 768.879592 76.817004 
L 770.33605 76.817004 
L 771.792508 95.085691 
L 773.248967 40.279631 
L 774.705425 76.817004 
L 776.161883 186.429126 
L 777.618342 40.279631 
L 779.0748 113.354378 
L 780.531259 58.548318 
L 781.987717 76.817004 
L 783.444175 76.817004 
L 784.900634 58.548318 
L 789.270009 58.548318 
L 790.726467 40.279631 
L 792.182926 58.548318 
L 793.639384 40.279631 
L 795.095842 149.891752 
L 796.552301 76.817004 
L 798.008759 58.548318 
L 800.921676 58.548318 
L 802.378134 168.160439 
L 803.834593 58.548318 
L 805.291051 58.548318 
L 806.747509 40.279631 
L 808.203968 131.623065 
L 809.660426 113.354378 
L 811.116884 58.548318 
L 812.573343 76.817004 
L 814.029801 58.548318 
L 814.029801 58.548318 
" clip-path="url(#pe78fced54c)" style="fill: none; stroke: #9467bd; stroke-opacity: 0.7; stroke-width: 1.5; stroke-linecap: square"/>
   </g>
   <g id="line2d_28">
    <path d="M 87.257074 296.041247 
L 88.713532 40.279631 
L 90.169991 40.279631 
L 91.626449 95.085691 
L 93.082907 113.354378 
L 94.539366 58.548318 
L 95.995824 58.548318 
L 97.452282 95.085691 
L 100.365199 58.548318 
L 103.278116 350.847307 
L 104.734574 222.966499 
L 106.191033 149.891752 
L 107.647491 113.354378 
L 109.103949 58.548318 
L 110.560408 40.279631 
L 112.016866 58.548318 
L 113.473325 131.623065 
L 114.929783 95.085691 
L 116.386241 113.354378 
L 117.8427 277.77256 
L 119.299158 113.354378 
L 120.755616 168.160439 
L 122.212075 95.085691 
L 123.668533 76.817004 
L 125.124992 76.817004 
L 126.58145 204.697812 
L 128.037908 95.085691 
L 129.494367 113.354378 
L 130.950825 58.548318 
L 132.407283 58.548318 
L 133.863742 113.354378 
L 135.3202 95.085691 
L 136.776658 58.548318 
L 138.233117 259.503873 
L 139.689575 131.623065 
L 141.146034 131.623065 
L 142.602492 186.429126 
L 144.05895 168.160439 
L 145.515409 58.548318 
L 146.971867 58.548318 
L 148.428325 113.354378 
L 149.884784 76.817004 
L 151.341242 58.548318 
L 152.797701 113.354378 
L 154.254159 58.548318 
L 155.710617 40.279631 
L 157.167076 95.085691 
L 158.623534 58.548318 
L 160.079992 40.279631 
L 161.536451 168.160439 
L 164.449368 168.160439 
L 165.905826 76.817004 
L 167.362284 76.817004 
L 168.818743 40.279631 
L 170.275201 58.548318 
L 171.731659 95.085691 
L 173.188118 58.548318 
L 174.644576 58.548318 
L 176.101035 168.160439 
L 177.557493 95.085691 
L 179.013951 40.279631 
L 180.47041 186.429126 
L 181.926868 113.354378 
L 183.383326 58.548318 
L 184.839785 149.891752 
L 186.296243 76.817004 
L 187.752701 58.548318 
L 189.20916 58.548318 
L 190.665618 95.085691 
L 192.122077 58.548318 
L 193.578535 40.279631 
L 195.034993 113.354378 
L 196.491452 40.279631 
L 199.404368 113.354378 
L 200.860827 369.115994 
L 202.317285 131.623065 
L 203.773744 76.817004 
L 205.230202 168.160439 
L 206.68666 40.279631 
L 208.143119 204.697812 
L 209.599577 95.085691 
L 211.056035 113.354378 
L 212.512494 76.817004 
L 213.968952 277.77256 
L 216.881869 58.548318 
L 218.338327 95.085691 
L 219.794786 95.085691 
L 221.251244 58.548318 
L 222.707702 113.354378 
L 224.164161 58.548318 
L 225.620619 149.891752 
L 227.077078 259.503873 
L 228.533536 58.548318 
L 229.989994 113.354378 
L 231.446453 76.817004 
L 232.902911 76.817004 
L 234.359369 58.548318 
L 235.815828 76.817004 
L 237.272286 58.548318 
L 238.728744 95.085691 
L 240.185203 76.817004 
L 241.641661 76.817004 
L 243.09812 149.891752 
L 244.554578 58.548318 
L 246.011036 58.548318 
L 247.467495 277.77256 
L 248.923953 131.623065 
L 250.380411 95.085691 
L 251.83687 40.279631 
L 253.293328 95.085691 
L 254.749787 168.160439 
L 256.206245 76.817004 
L 259.119162 76.817004 
L 260.57562 58.548318 
L 262.032078 113.354378 
L 263.488537 222.966499 
L 264.944995 95.085691 
L 266.401454 149.891752 
L 267.857912 113.354378 
L 269.31437 113.354378 
L 270.770829 95.085691 
L 272.227287 58.548318 
L 273.683745 76.817004 
L 275.140204 40.279631 
L 276.596662 168.160439 
L 278.053121 113.354378 
L 280.966037 186.429126 
L 282.422496 76.817004 
L 283.878954 58.548318 
L 285.335412 259.503873 
L 286.791871 131.623065 
L 288.248329 40.279631 
L 289.704787 222.966499 
L 291.161246 58.548318 
L 292.617704 113.354378 
L 294.074163 58.548318 
L 295.530621 113.354378 
L 296.987079 149.891752 
L 299.899996 40.279631 
L 301.356454 58.548318 
L 302.812913 40.279631 
L 304.269371 58.548318 
L 305.72583 58.548318 
L 307.182288 76.817004 
L 308.638746 113.354378 
L 310.095205 95.085691 
L 311.551663 296.041247 
L 313.008121 113.354378 
L 314.46458 113.354378 
L 315.921038 76.817004 
L 317.377497 76.817004 
L 318.833955 113.354378 
L 320.290413 58.548318 
L 321.746872 76.817004 
L 323.20333 58.548318 
L 324.659788 113.354378 
L 326.116247 76.817004 
L 327.572705 204.697812 
L 329.029163 40.279631 
L 330.485622 76.817004 
L 331.94208 58.548318 
L 333.398539 113.354378 
L 334.854997 95.085691 
L 336.311455 58.548318 
L 337.767914 58.548318 
L 339.224372 95.085691 
L 340.68083 58.548318 
L 342.137289 40.279631 
L 343.593747 58.548318 
L 345.050206 95.085691 
L 346.506664 58.548318 
L 347.963122 40.279631 
L 350.876039 76.817004 
L 352.332497 76.817004 
L 353.788956 168.160439 
L 355.245414 95.085691 
L 356.701873 113.354378 
L 358.158331 113.354378 
L 359.614789 95.085691 
L 361.071248 332.578621 
L 362.527706 58.548318 
L 363.984164 149.891752 
L 365.440623 76.817004 
L 366.897081 149.891752 
L 368.35354 58.548318 
L 371.266456 95.085691 
L 372.722915 58.548318 
L 374.179373 149.891752 
L 375.635831 76.817004 
L 377.09229 95.085691 
L 378.548748 131.623065 
L 380.005206 113.354378 
L 381.461665 113.354378 
L 382.918123 40.279631 
L 384.374582 76.817004 
L 385.83104 76.817004 
L 387.287498 222.966499 
L 388.743957 58.548318 
L 390.200415 95.085691 
L 391.656873 113.354378 
L 393.113332 113.354378 
L 394.56979 58.548318 
L 396.026249 95.085691 
L 397.482707 113.354378 
L 398.939165 149.891752 
L 401.852082 40.279631 
L 404.764999 40.279631 
L 406.221457 186.429126 
L 407.677916 40.279631 
L 409.134374 168.160439 
L 410.590832 40.279631 
L 412.047291 58.548318 
L 413.503749 40.279631 
L 416.416666 76.817004 
L 417.873124 58.548318 
L 419.329583 186.429126 
L 420.786041 76.817004 
L 422.242499 131.623065 
L 423.698958 204.697812 
L 425.155416 58.548318 
L 426.611874 95.085691 
L 428.068333 149.891752 
L 429.524791 95.085691 
L 430.981249 95.085691 
L 432.437708 168.160439 
L 433.894166 168.160439 
L 435.350625 58.548318 
L 436.807083 113.354378 
L 438.263541 58.548318 
L 441.176458 58.548318 
L 442.632916 113.354378 
L 444.089375 58.548318 
L 445.545833 58.548318 
L 447.002292 95.085691 
L 448.45875 76.817004 
L 449.915208 76.817004 
L 451.371667 241.235186 
L 452.828125 149.891752 
L 454.284583 76.817004 
L 455.741042 95.085691 
L 457.1975 40.279631 
L 458.653959 149.891752 
L 461.566875 76.817004 
L 463.023334 95.085691 
L 464.479792 40.279631 
L 465.93625 58.548318 
L 468.849167 58.548318 
L 470.305626 95.085691 
L 471.762084 76.817004 
L 473.218542 76.817004 
L 474.675001 95.085691 
L 476.131459 332.578621 
L 477.587917 95.085691 
L 479.044376 113.354378 
L 480.500834 58.548318 
L 481.957292 58.548318 
L 483.413751 168.160439 
L 484.870209 40.279631 
L 486.326668 76.817004 
L 487.783126 95.085691 
L 489.239584 95.085691 
L 490.696043 149.891752 
L 492.152501 222.966499 
L 493.608959 40.279631 
L 495.065418 40.279631 
L 496.521876 95.085691 
L 497.978335 95.085691 
L 499.434793 113.354378 
L 500.891251 113.354378 
L 502.34771 149.891752 
L 503.804168 168.160439 
L 505.260626 168.160439 
L 506.717085 149.891752 
L 508.173543 95.085691 
L 509.630002 113.354378 
L 511.08646 113.354378 
L 512.542918 95.085691 
L 513.999377 95.085691 
L 515.455835 40.279631 
L 516.912293 95.085691 
L 518.368752 186.429126 
L 519.82521 40.279631 
L 521.281669 76.817004 
L 522.738127 95.085691 
L 527.107502 95.085691 
L 528.56396 113.354378 
L 530.020419 149.891752 
L 531.476877 76.817004 
L 532.933335 58.548318 
L 534.389794 149.891752 
L 535.846252 40.279631 
L 537.302711 95.085691 
L 538.759169 95.085691 
L 540.215627 40.279631 
L 541.672086 113.354378 
L 543.128544 113.354378 
L 544.585002 76.817004 
L 546.041461 95.085691 
L 547.497919 76.817004 
L 548.954378 76.817004 
L 550.410836 58.548318 
L 551.867294 95.085691 
L 553.323753 168.160439 
L 554.780211 95.085691 
L 556.236669 113.354378 
L 557.693128 58.548318 
L 559.149586 40.279631 
L 560.606045 76.817004 
L 562.062503 76.817004 
L 563.518961 95.085691 
L 566.431878 95.085691 
L 567.888336 40.279631 
L 569.344795 76.817004 
L 570.801253 186.429126 
L 572.257712 58.548318 
L 573.71417 113.354378 
L 575.170628 113.354378 
L 576.627087 95.085691 
L 578.083545 113.354378 
L 579.540003 58.548318 
L 580.996462 76.817004 
L 582.45292 149.891752 
L 583.909378 40.279631 
L 585.365837 58.548318 
L 586.822295 58.548318 
L 588.278754 149.891752 
L 589.735212 149.891752 
L 591.19167 58.548318 
L 594.104587 58.548318 
L 595.561045 40.279631 
L 597.017504 40.279631 
L 599.930421 149.891752 
L 601.386879 76.817004 
L 602.843337 204.697812 
L 604.299796 95.085691 
L 605.756254 113.354378 
L 607.212712 40.279631 
L 608.669171 113.354378 
L 610.125629 40.279631 
L 611.582088 113.354378 
L 613.038546 76.817004 
L 614.495004 58.548318 
L 615.951463 113.354378 
L 617.407921 40.279631 
L 620.320838 149.891752 
L 621.777296 131.623065 
L 623.233754 58.548318 
L 624.690213 95.085691 
L 626.146671 113.354378 
L 627.60313 76.817004 
L 629.059588 76.817004 
L 630.516046 204.697812 
L 631.972505 58.548318 
L 633.428963 149.891752 
L 634.885421 113.354378 
L 636.34188 168.160439 
L 637.798338 113.354378 
L 639.254797 131.623065 
L 640.711255 40.279631 
L 642.167713 149.891752 
L 643.624172 131.623065 
L 645.08063 40.279631 
L 646.537088 113.354378 
L 647.993547 131.623065 
L 649.450005 76.817004 
L 650.906464 95.085691 
L 652.362922 95.085691 
L 653.81938 40.279631 
L 655.275839 58.548318 
L 656.732297 58.548318 
L 658.188755 113.354378 
L 659.645214 58.548318 
L 661.101672 40.279631 
L 662.558131 76.817004 
L 664.014589 168.160439 
L 665.471047 58.548318 
L 666.927506 40.279631 
L 668.383964 76.817004 
L 669.840422 40.279631 
L 671.296881 58.548318 
L 672.753339 58.548318 
L 674.209797 95.085691 
L 675.666256 76.817004 
L 677.122714 186.429126 
L 678.579173 40.279631 
L 680.035631 95.085691 
L 681.492089 40.279631 
L 682.948548 113.354378 
L 684.405006 241.235186 
L 685.861464 131.623065 
L 687.317923 95.085691 
L 688.774381 40.279631 
L 690.23084 76.817004 
L 691.687298 40.279631 
L 693.143756 149.891752 
L 694.600215 149.891752 
L 696.056673 95.085691 
L 697.513131 149.891752 
L 698.96959 95.085691 
L 700.426048 76.817004 
L 701.882507 76.817004 
L 703.338965 58.548318 
L 706.251882 58.548318 
L 709.164798 95.085691 
L 710.621257 58.548318 
L 712.077715 58.548318 
L 713.534174 277.77256 
L 714.990632 76.817004 
L 716.44709 149.891752 
L 717.903549 95.085691 
L 719.360007 95.085691 
L 720.816465 58.548318 
L 722.272924 40.279631 
L 723.729382 58.548318 
L 725.18584 95.085691 
L 726.642299 95.085691 
L 728.098757 40.279631 
L 729.555216 76.817004 
L 731.011674 58.548318 
L 732.468132 58.548318 
L 736.837507 113.354378 
L 738.293966 204.697812 
L 739.750424 40.279631 
L 741.206883 95.085691 
L 742.663341 113.354378 
L 744.119799 95.085691 
L 745.576258 168.160439 
L 747.032716 76.817004 
L 748.489174 95.085691 
L 749.945633 168.160439 
L 751.402091 76.817004 
L 752.85855 113.354378 
L 754.315008 113.354378 
L 755.771466 58.548318 
L 757.227925 58.548318 
L 758.684383 76.817004 
L 760.140841 131.623065 
L 761.5973 76.817004 
L 763.053758 58.548318 
L 764.510217 113.354378 
L 765.966675 95.085691 
L 767.423133 40.279631 
L 768.879592 40.279631 
L 770.33605 95.085691 
L 771.792508 131.623065 
L 773.248967 149.891752 
L 774.705425 58.548318 
L 776.161883 168.160439 
L 779.0748 58.548318 
L 781.987717 58.548318 
L 783.444175 95.085691 
L 784.900634 113.354378 
L 786.357092 40.279631 
L 787.81355 58.548318 
L 789.270009 149.891752 
L 790.726467 76.817004 
L 792.182926 58.548318 
L 793.639384 95.085691 
L 795.095842 76.817004 
L 796.552301 113.354378 
L 798.008759 95.085691 
L 799.465217 58.548318 
L 800.921676 168.160439 
L 802.378134 58.548318 
L 803.834593 168.160439 
L 805.291051 76.817004 
L 806.747509 40.279631 
L 808.203968 58.548318 
L 809.660426 113.354378 
L 811.116884 204.697812 
L 812.573343 131.623065 
L 814.029801 149.891752 
L 814.029801 149.891752 
" clip-path="url(#pe78fced54c)" style="fill: none; stroke: #8c564b; stroke-opacity: 0.7; stroke-width: 1.5; stroke-linecap: square"/>
   </g>
   <g id="patch_3">
    <path d="M 50.918438 385.557812 
L 50.918438 23.837812 
" style="fill: none; stroke: #000000; stroke-width: 0.8; stroke-linejoin: miter; stroke-linecap: square"/>
   </g>
   <g id="patch_4">
    <path d="M 850.368438 385.557812 
L 850.368438 23.837812 
" style="fill: none; stroke: #000000; stroke-width: 0.8; stroke-linejoin: miter; stroke-linecap: square"/>
   </g>
   <g id="patch_5">
    <path d="M 50.918438 385.557812 
L 850.368437 385.557812 
" style="fill: none; stroke: #000000; stroke-width: 0.8; stroke-linejoin: miter; stroke-linecap: square"/>
   </g>
   <g id="patch_6">
    <path d="M 50.918438 23.837812 
L 850.368437 23.837812 
" style="fill: none; stroke: #000000; stroke-width: 0.8; stroke-linejoin: miter; stroke-linecap: square"/>
   </g>
   <g id="text_14">
    <!-- Parallel Tempering: Replica Energy Trajectories -->
    <g transform="translate(264.050781 17.837812) scale(0.14 -0.14)">
     <defs>
      <path id="DejaVuSans-Bold-50" d="M 588 4666 
L 2584 4666 
Q 3475 4666 3951 4270 
Q 4428 3875 4428 3144 
Q 4428 2409 3951 2014 
Q 3475 1619 2584 1619 
L 1791 1619 
L 1791 0 
L 588 0 
L 588 4666 
z
M 1791 3794 
L 1791 2491 
L 2456 2491 
Q 2806 2491 2997 2661 
Q 3188 2831 3188 3144 
Q 3188 3456 2997 3625 
Q 2806 3794 2456 3794 
L 1791 3794 
z
" transform="scale(0.015625)"/>
      <path id="DejaVuSans-Bold-61" d="M 2106 1575 
Q 1756 1575 1579 1456 
Q 1403 1338 1403 1106 
Q 1403 894 1545 773 
Q 1688 653 1941 653 
Q 2256 653 2472 879 
Q 2688 1106 2688 1447 
L 2688 1575 
L 2106 1575 
z
M 3816 1997 
L 3816 0 
L 2688 0 
L 2688 519 
Q 2463 200 2181 54 
Q 1900 -91 1497 -91 
Q 953 -91 614 226 
Q 275 544 275 1050 
Q 275 1666 698 1953 
Q 1122 2241 2028 2241 
L 2688 2241 
L 2688 2328 
Q 2688 2594 2478 2717 
Q 2269 2841 1825 2841 
Q 1466 2841 1156 2769 
Q 847 2697 581 2553 
L 581 3406 
Q 941 3494 1303 3539 
Q 1666 3584 2028 3584 
Q 2975 3584 3395 3211 
Q 3816 2838 3816 1997 
z
" transform="scale(0.015625)"/>
      <path id="DejaVuSans-Bold-72" d="M 3138 2547 
Q 2991 2616 2845 2648 
Q 2700 2681 2553 2681 
Q 2122 2681 1889 2404 
Q 1656 2128 1656 1613 
L 1656 0 
L 538 0 
L 538 3500 
L 1656 3500 
L 1656 2925 
Q 1872 3269 2151 3426 
Q 2431 3584 2822 3584 
Q 2878 3584 2943 3579 
Q 3009 3575 3134 3559 
L 3138 2547 
z
" transform="scale(0.015625)"/>
      <path id="DejaVuSans-Bold-6c" d="M 538 4863 
L 1656 4863 
L 1656 0 
L 538 0 
L 538 4863 
z
" transform="scale(0.015625)"/>
      <path id="DejaVuSans-Bold-65" d="M 4031 1759 
L 4031 1441 
L 1416 1441 
Q 1456 1047 1700 850 
Q 1944 653 2381 653 
Q 2734 653 3104 758 
Q 3475 863 3866 1075 
L 3866 213 
Q 3469 63 3072 -14 
Q 2675 -91 2278 -91 
Q 1328 -91 801 392 
Q 275 875 275 1747 
Q 275 2603 792 3093 
Q 1309 3584 2216 3584 
Q 3041 3584 3536 3087 
Q 4031 2591 4031 1759 
z
M 2881 2131 
Q 2881 2450 2695 2645 
Q 2509 2841 2209 2841 
Q 1884 2841 1681 2658 
Q 1478 2475 1428 2131 
L 2881 2131 
z
" transform="scale(0.015625)"/>
      <path id="DejaVuSans-Bold-20" transform="scale(0.015625)"/>
      <path id="DejaVuSans-Bold-54" d="M 31 4666 
L 4331 4666 
L 4331 3756 
L 2784 3756 
L 2784 0 
L 1581 0 
L 1581 3756 
L 31 3756 
L 31 4666 
z
" transform="scale(0.015625)"/>
      <path id="DejaVuSans-Bold-6d" d="M 3781 2919 
Q 3994 3244 4286 3414 
Q 4578 3584 4928 3584 
Q 5531 3584 5847 3212 
Q 6163 2841 6163 2131 
L 6163 0 
L 5038 0 
L 5038 1825 
Q 5041 1866 5042 1909 
Q 5044 1953 5044 2034 
Q 5044 2406 4934 2573 
Q 4825 2741 4581 2741 
Q 4263 2741 4089 2478 
Q 3916 2216 3909 1719 
L 3909 0 
L 2784 0 
L 2784 1825 
Q 2784 2406 2684 2573 
Q 2584 2741 2328 2741 
Q 2006 2741 1831 2477 
Q 1656 2213 1656 1722 
L 1656 0 
L 531 0 
L 531 3500 
L 1656 3500 
L 1656 2988 
Q 1863 3284 2130 3434 
Q 2397 3584 2719 3584 
Q 3081 3584 3359 3409 
Q 3638 3234 3781 2919 
z
" transform="scale(0.015625)"/>
      <path id="DejaVuSans-Bold-70" d="M 1656 506 
L 1656 -1331 
L 538 -1331 
L 538 3500 
L 1656 3500 
L 1656 2988 
Q 1888 3294 2169 3439 
Q 2450 3584 2816 3584 
Q 3463 3584 3878 3070 
Q 4294 2556 4294 1747 
Q 4294 938 3878 423 
Q 3463 -91 2816 -91 
Q 2450 -91 2169 54 
Q 1888 200 1656 506 
z
M 2400 2772 
Q 2041 2772 1848 2508 
Q 1656 2244 1656 1747 
Q 1656 1250 1848 986 
Q 2041 722 2400 722 
Q 2759 722 2948 984 
Q 3138 1247 3138 1747 
Q 3138 2247 2948 2509 
Q 2759 2772 2400 2772 
z
" transform="scale(0.015625)"/>
      <path id="DejaVuSans-Bold-69" d="M 538 3500 
L 1656 3500 
L 1656 0 
L 538 0 
L 538 3500 
z
M 538 4863 
L 1656 4863 
L 1656 3950 
L 538 3950 
L 538 4863 
z
" transform="scale(0.015625)"/>
      <path id="DejaVuSans-Bold-6e" d="M 4056 2131 
L 4056 0 
L 2931 0 
L 2931 347 
L 2931 1631 
Q 2931 2084 2911 2256 
Q 2891 2428 2841 2509 
Q 2775 2619 2662 2680 
Q 2550 2741 2406 2741 
Q 2056 2741 1856 2470 
Q 1656 2200 1656 1722 
L 1656 0 
L 538 0 
L 538 3500 
L 1656 3500 
L 1656 2988 
Q 1909 3294 2193 3439 
Q 2478 3584 2822 3584 
Q 3428 3584 3742 3212 
Q 4056 2841 4056 2131 
z
" transform="scale(0.015625)"/>
      <path id="DejaVuSans-Bold-67" d="M 2919 594 
Q 2688 288 2409 144 
Q 2131 0 1766 0 
Q 1125 0 706 504 
Q 288 1009 288 1791 
Q 288 2575 706 3076 
Q 1125 3578 1766 3578 
Q 2131 3578 2409 3434 
Q 2688 3291 2919 2981 
L 2919 3500 
L 4044 3500 
L 4044 353 
Q 4044 -491 3511 -936 
Q 2978 -1381 1966 -1381 
Q 1638 -1381 1331 -1331 
Q 1025 -1281 716 -1178 
L 716 -306 
Q 1009 -475 1290 -558 
Q 1572 -641 1856 -641 
Q 2406 -641 2662 -400 
Q 2919 -159 2919 353 
L 2919 594 
z
M 2181 2772 
Q 1834 2772 1640 2515 
Q 1447 2259 1447 1791 
Q 1447 1309 1634 1061 
Q 1822 813 2181 813 
Q 2531 813 2725 1069 
Q 2919 1325 2919 1791 
Q 2919 2259 2725 2515 
Q 2531 2772 2181 2772 
z
" transform="scale(0.015625)"/>
      <path id="DejaVuSans-Bold-3a" d="M 716 3500 
L 1844 3500 
L 1844 2291 
L 716 2291 
L 716 3500 
z
M 716 1209 
L 1844 1209 
L 1844 0 
L 716 0 
L 716 1209 
z
" transform="scale(0.015625)"/>
      <path id="DejaVuSans-Bold-52" d="M 2297 2597 
Q 2675 2597 2839 2737 
Q 3003 2878 3003 3200 
Q 3003 3519 2839 3656 
Q 2675 3794 2297 3794 
L 1791 3794 
L 1791 2597 
L 2297 2597 
z
M 1791 1766 
L 1791 0 
L 588 0 
L 588 4666 
L 2425 4666 
Q 3347 4666 3776 4356 
Q 4206 4047 4206 3378 
Q 4206 2916 3982 2619 
Q 3759 2322 3309 2181 
Q 3556 2125 3751 1926 
Q 3947 1728 4147 1325 
L 4800 0 
L 3519 0 
L 2950 1159 
Q 2778 1509 2601 1637 
Q 2425 1766 2131 1766 
L 1791 1766 
z
" transform="scale(0.015625)"/>
      <path id="DejaVuSans-Bold-63" d="M 3366 3391 
L 3366 2478 
Q 3138 2634 2908 2709 
Q 2678 2784 2431 2784 
Q 1963 2784 1702 2511 
Q 1441 2238 1441 1747 
Q 1441 1256 1702 982 
Q 1963 709 2431 709 
Q 2694 709 2930 787 
Q 3166 866 3366 1019 
L 3366 103 
Q 3103 6 2833 -42 
Q 2563 -91 2291 -91 
Q 1344 -91 809 395 
Q 275 881 275 1747 
Q 275 2613 809 3098 
Q 1344 3584 2291 3584 
Q 2566 3584 2833 3536 
Q 3100 3488 3366 3391 
z
" transform="scale(0.015625)"/>
      <path id="DejaVuSans-Bold-45" d="M 588 4666 
L 3834 4666 
L 3834 3756 
L 1791 3756 
L 1791 2888 
L 3713 2888 
L 3713 1978 
L 1791 1978 
L 1791 909 
L 3903 909 
L 3903 0 
L 588 0 
L 588 4666 
z
" transform="scale(0.015625)"/>
      <path id="DejaVuSans-Bold-79" d="M 78 3500 
L 1197 3500 
L 2138 1125 
L 2938 3500 
L 4056 3500 
L 2584 -331 
Q 2363 -916 2067 -1148 
Q 1772 -1381 1288 -1381 
L 641 -1381 
L 641 -647 
L 991 -647 
Q 1275 -647 1404 -556 
Q 1534 -466 1606 -231 
L 1638 -134 
L 78 3500 
z
" transform="scale(0.015625)"/>
      <path id="DejaVuSans-Bold-6a" d="M 538 3500 
L 1656 3500 
L 1656 63 
Q 1656 -641 1318 -1011 
Q 981 -1381 341 -1381 
L -213 -1381 
L -213 -647 
L -19 -647 
Q 300 -647 419 -503 
Q 538 -359 538 63 
L 538 3500 
z
M 538 4863 
L 1656 4863 
L 1656 3950 
L 538 3950 
L 538 4863 
z
" transform="scale(0.015625)"/>
      <path id="DejaVuSans-Bold-74" d="M 1759 4494 
L 1759 3500 
L 2913 3500 
L 2913 2700 
L 1759 2700 
L 1759 1216 
Q 1759 972 1856 886 
Q 1953 800 2241 800 
L 2816 800 
L 2816 0 
L 1856 0 
Q 1194 0 917 276 
Q 641 553 641 1216 
L 641 2700 
L 84 2700 
L 84 3500 
L 641 3500 
L 641 4494 
L 1759 4494 
z
" transform="scale(0.015625)"/>
      <path id="DejaVuSans-Bold-6f" d="M 2203 2784 
Q 1831 2784 1636 2517 
Q 1441 2250 1441 1747 
Q 1441 1244 1636 976 
Q 1831 709 2203 709 
Q 2569 709 2762 976 
Q 2956 1244 2956 1747 
Q 2956 2250 2762 2517 
Q 2569 2784 2203 2784 
z
M 2203 3584 
Q 3106 3584 3614 3096 
Q 4122 2609 4122 1747 
Q 4122 884 3614 396 
Q 3106 -91 2203 -91 
Q 1297 -91 786 396 
Q 275 884 275 1747 
Q 275 2609 786 3096 
Q 1297 3584 2203 3584 
z
" transform="scale(0.015625)"/>
      <path id="DejaVuSans-Bold-73" d="M 3272 3391 
L 3272 2541 
Q 2913 2691 2578 2766 
Q 2244 2841 1947 2841 
Q 1628 2841 1473 2761 
Q 1319 2681 1319 2516 
Q 1319 2381 1436 2309 
Q 1553 2238 1856 2203 
L 2053 2175 
Q 2913 2066 3209 1816 
Q 3506 1566 3506 1031 
Q 3506 472 3093 190 
Q 2681 -91 1863 -91 
Q 1516 -91 1145 -36 
Q 775 19 384 128 
L 384 978 
Q 719 816 1070 734 
Q 1422 653 1784 653 
Q 2113 653 2278 743 
Q 2444 834 2444 1013 
Q 2444 1163 2330 1236 
Q 2216 1309 1875 1350 
L 1678 1375 
Q 931 1469 631 1722 
Q 331 1975 331 2491 
Q 331 3047 712 3315 
Q 1094 3584 1881 3584 
Q 2191 3584 2531 3537 
Q 2872 3491 3272 3391 
z
" transform="scale(0.015625)"/>
     </defs>
     <use xlink:href="#DejaVuSans-Bold-50"/>
     <use xlink:href="#DejaVuSans-Bold-61" transform="translate(70.666016 0)"/>
     <use xlink:href="#DejaVuSans-Bold-72" transform="translate(138.146484 0)"/>
     <use xlink:href="#DejaVuSans-Bold-61" transform="translate(187.462891 0)"/>
     <use xlink:href="#DejaVuSans-Bold-6c" transform="translate(254.943359 0)"/>
     <use xlink:href="#DejaVuSans-Bold-6c" transform="translate(289.220703 0)"/>
     <use xlink:href="#DejaVuSans-Bold-65" transform="translate(323.498047 0)"/>
     <use xlink:href="#DejaVuSans-Bold-6c" transform="translate(391.320312 0)"/>
     <use xlink:href="#DejaVuSans-Bold-20" transform="translate(425.597656 0)"/>
     <use xlink:href="#DejaVuSans-Bold-54" transform="translate(460.412109 0)"/>
     <use xlink:href="#DejaVuSans-Bold-65" transform="translate(515.375 0)"/>
     <use xlink:href="#DejaVuSans-Bold-6d" transform="translate(583.197266 0)"/>
     <use xlink:href="#DejaVuSans-Bold-70" transform="translate(687.396484 0)"/>
     <use xlink:href="#DejaVuSans-Bold-65" transform="translate(758.978516 0)"/>
     <use xlink:href="#DejaVuSans-Bold-72" transform="translate(826.800781 0)"/>
     <use xlink:href="#DejaVuSans-Bold-69" transform="translate(876.117188 0)"/>
     <use xlink:href="#DejaVuSans-Bold-6e" transform="translate(910.394531 0)"/>
     <use xlink:href="#DejaVuSans-Bold-67" transform="translate(981.585938 0)"/>
     <use xlink:href="#DejaVuSans-Bold-3a" transform="translate(1053.167969 0)"/>
     <use xlink:href="#DejaVuSans-Bold-20" transform="translate(1093.158203 0)"/>
     <use xlink:href="#DejaVuSans-Bold-52" transform="translate(1127.972656 0)"/>
     <use xlink:href="#DejaVuSans-Bold-65" transform="translate(1204.974609 0)"/>
     <use xlink:href="#DejaVuSans-Bold-70" transform="translate(1272.796875 0)"/>
     <use xlink:href="#DejaVuSans-Bold-6c" transform="translate(1344.378906 0)"/>
     <use xlink:href="#DejaVuSans-Bold-69" transform="translate(1378.65625 0)"/>
     <use xlink:href="#DejaVuSans-Bold-63" transform="translate(1412.933594 0)"/>
     <use xlink:href="#DejaVuSans-Bold-61" transform="translate(1472.210938 0)"/>
     <use xlink:href="#DejaVuSans-Bold-20" transform="translate(1539.691406 0)"/>
     <use xlink:href="#DejaVuSans-Bold-45" transform="translate(1574.505859 0)"/>
     <use xlink:href="#DejaVuSans-Bold-6e" transform="translate(1642.816406 0)"/>
     <use xlink:href="#DejaVuSans-Bold-65" transform="translate(1714.007812 0)"/>
     <use xlink:href="#DejaVuSans-Bold-72" transform="translate(1781.830078 0)"/>
     <use xlink:href="#DejaVuSans-Bold-67" transform="translate(1831.146484 0)"/>
     <use xlink:href="#DejaVuSans-Bold-79" transform="translate(1902.728516 0)"/>
     <use xlink:href="#DejaVuSans-Bold-20" transform="translate(1967.914062 0)"/>
     <use xlink:href="#DejaVuSans-Bold-54" transform="translate(2002.728516 0)"/>
     <use xlink:href="#DejaVuSans-Bold-72" transform="translate(2059.941406 0)"/>
     <use xlink:href="#DejaVuSans-Bold-61" transform="translate(2109.257812 0)"/>
     <use xlink:href="#DejaVuSans-Bold-6a" transform="translate(2176.738281 0)"/>
     <use xlink:href="#DejaVuSans-Bold-65" transform="translate(2211.015625 0)"/>
     <use xlink:href="#DejaVuSans-Bold-63" transform="translate(2278.837891 0)"/>
     <use xlink:href="#DejaVuSans-Bold-74" transform="translate(2338.115234 0)"/>
     <use xlink:href="#DejaVuSans-Bold-6f" transform="translate(2385.917969 0)"/>
     <use xlink:href="#DejaVuSans-Bold-72" transform="translate(2454.619141 0)"/>
     <use xlink:href="#DejaVuSans-Bold-69" transform="translate(2503.935547 0)"/>
     <use xlink:href="#DejaVuSans-Bold-65" transform="translate(2538.212891 0)"/>
     <use xlink:href="#DejaVuSans-Bold-73" transform="translate(2606.035156 0)"/>
    </g>
   </g>
   <g id="legend_1">
    <g id="patch_7">
     <path d="M 671.921563 380.557812 
L 843.368438 380.557812 
Q 845.368438 380.557812 845.368438 378.557812 
L 845.368438 335.523437 
Q 845.368438 333.523437 843.368438 333.523437 
L 671.921563 333.523437 
Q 669.921563 333.523437 669.921563 335.523437 
L 669.921563 378.557812 
Q 669.921563 380.557812 671.921563 380.557812 
z
" style="fill: #ffffff; opacity: 0.8; stroke: #cccccc; stroke-linejoin: miter"/>
    </g>
    <g id="line2d_29">
     <path d="M 673.921563 341.621875 
L 683.921563 341.621875 
L 693.921563 341.621875 
" style="fill: none; stroke: #1f77b4; stroke-opacity: 0.7; stroke-width: 1.5; stroke-linecap: square"/>
    </g>
    <g id="text_15">
     <!-- Replica 0 -->
     <g transform="translate(701.921563 345.121875) scale(0.1 -0.1)">
      <defs>
       <path id="DejaVuSans-52" d="M 2841 2188 
Q 3044 2119 3236 1894 
Q 3428 1669 3622 1275 
L 4263 0 
L 3584 0 
L 2988 1197 
Q 2756 1666 2539 1819 
Q 2322 1972 1947 1972 
L 1259 1972 
L 1259 0 
L 628 0 
L 628 4666 
L 2053 4666 
Q 2853 4666 3247 4331 
Q 3641 3997 3641 3322 
Q 3641 2881 3436 2590 
Q 3231 2300 2841 2188 
z
M 1259 4147 
L 1259 2491 
L 2053 2491 
Q 2509 2491 2742 2702 
Q 2975 2913 2975 3322 
Q 2975 3731 2742 3939 
Q 2509 4147 2053 4147 
L 1259 4147 
z
" transform="scale(0.015625)"/>
       <path id="DejaVuSans-6c" d="M 603 4863 
L 1178 4863 
L 1178 0 
L 603 0 
L 603 4863 
z
" transform="scale(0.015625)"/>
       <path id="DejaVuSans-69" d="M 603 3500 
L 1178 3500 
L 1178 0 
L 603 0 
L 603 3500 
z
M 603 4863 
L 1178 4863 
L 1178 4134 
L 603 4134 
L 603 4863 
z
" transform="scale(0.015625)"/>
      </defs>
      <use xlink:href="#DejaVuSans-52"/>
      <use xlink:href="#DejaVuSans-65" transform="translate(64.982422 0)"/>
      <use xlink:href="#DejaVuSans-70" transform="translate(126.505859 0)"/>
      <use xlink:href="#DejaVuSans-6c" transform="translate(189.982422 0)"/>
      <use xlink:href="#DejaVuSans-69" transform="translate(217.765625 0)"/>
      <use xlink:href="#DejaVuSans-63" transform="translate(245.548828 0)"/>
      <use xlink:href="#DejaVuSans-61" transform="translate(300.529297 0)"/>
      <use xlink:href="#DejaVuSans-20" transform="translate(361.808594 0)"/>
      <use xlink:href="#DejaVuSans-30" transform="translate(393.595703 0)"/>
     </g>
    </g>
    <g id="line2d_30">
     <path d="M 673.921563 356.3 
L 683.921563 356.3 
L 693.921563 356.3 
" style="fill: none; stroke: #ff7f0e; stroke-opacity: 0.7; stroke-width: 1.5; stroke-linecap: square"/>
    </g>
    <g id="text_16">
     <!-- Replica 1 -->
     <g transform="translate(701.921563 359.8) scale(0.1 -0.1)">
      <use xlink:href="#DejaVuSans-52"/>
      <use xlink:href="#DejaVuSans-65" transform="translate(64.982422 0)"/>
      <use xlink:href="#DejaVuSans-70" transform="translate(126.505859 0)"/>
      <use xlink:href="#DejaVuSans-6c" transform="translate(189.982422 0)"/>
      <use xlink:href="#DejaVuSans-69" transform="translate(217.765625 0)"/>
      <use xlink:href="#DejaVuSans-63" transform="translate(245.548828 0)"/>
      <use xlink:href="#DejaVuSans-61" transform="translate(300.529297 0)"/>
      <use xlink:href="#DejaVuSans-20" transform="translate(361.808594 0)"/>
      <use xlink:href="#DejaVuSans-31" transform="translate(393.595703 0)"/>
     </g>
    </g>
    <g id="line2d_31">
     <path d="M 673.921563 370.978125 
L 683.921563 370.978125 
L 693.921563 370.978125 
" style="fill: none; stroke: #2ca02c; stroke-opacity: 0.7; stroke-width: 1.5; stroke-linecap: square"/>
    </g>
    <g id="text_17">
     <!-- Replica 2 -->
     <g transform="translate(701.921563 374.478125) scale(0.1 -0.1)">
      <use xlink:href="#DejaVuSans-52"/>
      <use xlink:href="#DejaVuSans-65" transform="translate(64.982422 0)"/>
      <use xlink:href="#DejaVuSans-70" transform="translate(126.505859 0)"/>
      <use xlink:href="#DejaVuSans-6c" transform="translate(189.982422 0)"/>
      <use xlink:href="#DejaVuSans-69" transform="translate(217.765625 0)"/>
      <use xlink:href="#DejaVuSans-63" transform="translate(245.548828 0)"/>
      <use xlink:href="#DejaVuSans-61" transform="translate(300.529297 0)"/>
      <use xlink:href="#DejaVuSans-20" transform="translate(361.808594 0)"/>
      <use xlink:href="#DejaVuSans-32" transform="translate(393.595703 0)"/>
     </g>
    </g>
    <g id="line2d_32">
     <path d="M 767.645 341.621875 
L 777.645 341.621875 
L 787.645 341.621875 
" style="fill: none; stroke: #d62728; stroke-opacity: 0.7; stroke-width: 1.5; stroke-linecap: square"/>
    </g>
    <g id="text_18">
     <!-- Replica 3 -->
     <g transform="translate(795.645 345.121875) scale(0.1 -0.1)">
      <use xlink:href="#DejaVuSans-52"/>
      <use xlink:href="#DejaVuSans-65" transform="translate(64.982422 0)"/>
      <use xlink:href="#DejaVuSans-70" transform="translate(126.505859 0)"/>
      <use xlink:href="#DejaVuSans-6c" transform="translate(189.982422 0)"/>
      <use xlink:href="#DejaVuSans-69" transform="translate(217.765625 0)"/>
      <use xlink:href="#DejaVuSans-63" transform="translate(245.548828 0)"/>
      <use xlink:href="#DejaVuSans-61" transform="translate(300.529297 0)"/>
      <use xlink:href="#DejaVuSans-20" transform="translate(361.808594 0)"/>
      <use xlink:href="#DejaVuSans-33" transform="translate(393.595703 0)"/>
     </g>
    </g>
    <g id="line2d_33">
     <path d="M 767.645 356.3 
L 777.645 356.3 
L 787.645 356.3 
" style="fill: none; stroke: #9467bd; stroke-opacity: 0.7; stroke-width: 1.5; stroke-linecap: square"/>
    </g>
    <g id="text_19">
     <!-- Replica 4 -->
     <g transform="translate(795.645 359.8) scale(0.1 -0.1)">
      <use xlink:href="#DejaVuSans-52"/>
      <use xlink:href="#DejaVuSans-65" transform="translate(64.982422 0)"/>
      <use xlink:href="#DejaVuSans-70" transform="translate(126.505859 0)"/>
      <use xlink:href="#DejaVuSans-6c" transform="translate(189.982422 0)"/>
      <use xlink:href="#DejaVuSans-69" transform="translate(217.765625 0)"/>
      <use xlink:href="#DejaVuSans-63" transform="translate(245.548828 0)"/>
      <use xlink:href="#DejaVuSans-61" transform="translate(300.529297 0)"/>
      <use xlink:href="#DejaVuSans-20" transform="translate(361.808594 0)"/>
      <use xlink:href="#DejaVuSans-34" transform="translate(393.595703 0)"/>
     </g>
    </g>
    <g id="line2d_34">
     <path d="M 767.645 370.978125 
L 777.645 370.978125 
L 787.645 370.978125 
" style="fill: none; stroke: #8c564b; stroke-opacity: 0.7; stroke-width: 1.5; stroke-linecap: square"/>
    </g>
    <g id="text_20">
     <!-- Replica 5 -->
     <g transform="translate(795.645 374.478125) scale(0.1 -0.1)">
      <use xlink:href="#DejaVuSans-52"/>
      <use xlink:href="#DejaVuSans-65" transform="translate(64.982422 0)"/>
      <use xlink:href="#DejaVuSans-70" transform="translate(126.505859 0)"/>
      <use xlink:href="#DejaVuSans-6c" transform="translate(189.982422 0)"/>
      <use xlink:href="#DejaVuSans-69" transform="translate(217.765625 0)"/>
      <use xlink:href="#DejaVuSans-63" transform="translate(245.548828 0)"/>
      <use xlink:href="#DejaVuSans-61" transform="translate(300.529297 0)"/>
      <use xlink:href="#DejaVuSans-20" transform="translate(361.808594 0)"/>
      <use xlink:href="#DejaVuSans-35" transform="translate(393.595703 0)"/>
     </g>
    </g>
   </g>
  </g>
 </g>
 <defs>
  <clipPath id="pe78fced54c">
   <rect x="50.918438" y="23.837812" width="799.45" height="361.72"/>
  </clipPath>
 </defs>
</svg>
