<svg width="24" height="24" viewBox="0 0 24 24" fill="none" xmlns="http://www.w3.org/2000/svg">
<path fill-rule="evenodd" clip-rule="evenodd" d="M15.4942 4.875H16.2311C17.1371 4.875 17.93 5.48411 18.1635 6.35956L19.9592 13.0917L21.3047 13.6897C21.6253 13.8322 21.8043 14.178 21.7355 14.5221C21.4336 16.0316 20.9558 17.2024 20.323 18.3009C20.2195 18.2579 20.1139 18.2159 20.0118 18.1784C19.6483 18.045 19.1186 17.8844 18.5 17.8844C17.8873 17.8844 17.3514 18.0425 16.9794 18.1779C16.6059 18.3139 16.2484 18.4848 15.9986 18.6041L15.9894 18.6086C15.7295 18.7328 15.5706 18.8082 15.4411 18.8602C15.4244 18.8552 15.4055 18.8494 15.3843 18.8425C15.1988 18.782 14.9894 18.6955 14.6593 18.5588L14.5727 18.5227C14.0441 18.3022 13.0426 17.8844 12 17.8844C10.9574 17.8844 9.95589 18.3022 9.42726 18.5227L9.34065 18.5588C9.0106 18.6955 8.80115 18.782 8.61568 18.8425C8.59453 18.8494 8.57565 18.8552 8.55893 18.8602C8.42942 18.8082 8.27048 18.7328 8.01062 18.6086L8.0014 18.6042C7.75163 18.4848 7.39402 18.3139 7.02057 18.1779C6.6486 18.0425 6.11267 17.8844 5.5 17.8844C4.88139 17.8844 4.35171 18.045 3.98824 18.1784C3.8861 18.2159 3.78057 18.2579 3.67711 18.3008C3.04433 17.2023 2.56653 16.0316 2.26463 14.5221C2.19581 14.178 2.37479 13.8322 2.69546 13.6896L4.0403 13.0919L5.83511 6.35979C6.06854 5.48423 6.86146 4.875 7.76761 4.875H8.50565L9.07159 2.89424C9.28624 2.14296 9.97291 1.625 10.7543 1.625H13.2456C14.027 1.625 14.7137 2.14296 14.9283 2.89424L15.4942 4.875ZM16.2311 6.875L17.6108 12.048L12.3047 9.68964C12.1107 9.60345 11.8894 9.60345 11.6955 9.68964L6.38838 12.0483L7.76761 6.875H16.2311ZM2 22.375C2.97186 22.375 3.77228 22.0482 4.35875 21.7905C4.43693 21.7561 4.50902 21.724 4.57652 21.6939C4.78169 21.6025 4.94512 21.5298 5.10795 21.47C5.3154 21.3939 5.432 21.375 5.5 21.375C5.57064 21.375 5.69874 21.396 5.90896 21.4725C6.11644 21.548 6.34044 21.653 6.60919 21.7815L6.65634 21.804C6.89686 21.919 7.17966 22.0544 7.45591 22.1589C7.7417 22.2669 8.10951 22.3781 8.50205 22.375C8.90754 22.3767 9.29594 22.2796 9.6227 22.1731C9.93332 22.0719 10.2506 21.9404 10.529 21.825L10.5841 21.8021C11.2376 21.5315 11.667 21.375 12 21.375C12.333 21.375 12.7624 21.5315 13.4159 21.8021L13.471 21.825C13.7494 21.9404 14.0667 22.0719 14.3773 22.1731C14.7041 22.2796 15.0925 22.3767 15.498 22.375C15.8905 22.3781 16.2583 22.2669 16.5441 22.1589C16.8203 22.0544 17.1031 21.9191 17.3436 21.8041L17.3908 21.7815C17.6596 21.653 17.8836 21.548 18.091 21.4725C18.3013 21.396 18.4294 21.375 18.5 21.375C18.568 21.375 18.6846 21.3939 18.892 21.47C19.0549 21.5298 19.2177 21.6023 19.4228 21.6936C19.4905 21.7237 19.5628 21.756 19.6412 21.7905C20.2277 22.0482 21.0281 22.375 22 22.375C22.5523 22.375 23 21.9273 23 21.375C23 20.8227 22.5523 20.375 22 20.375C21.4719 20.375 20.9971 20.2018 20.446 19.9595C20.3932 19.9363 20.3375 19.9115 20.2797 19.8857C20.0616 19.7885 19.8136 19.6778 19.5811 19.5925C19.2776 19.4811 18.9068 19.375 18.5 19.375C18.0958 19.375 17.7167 19.4804 17.407 19.5932C17.0945 19.7069 16.7857 19.854 16.5284 19.977L16.5122 19.9847C16.2441 20.1129 16.0313 20.2146 15.8367 20.2882C15.6322 20.3655 15.5376 20.3754 15.5134 20.3751L15.4916 20.375C15.3957 20.3758 15.2403 20.3509 14.997 20.2716C14.7629 20.1953 14.5123 20.0915 14.2103 19.9664L14.1811 19.9543L14.1333 19.9345C13.5762 19.7035 12.7839 19.375 12 19.375C11.2161 19.375 10.4238 19.7035 9.8667 19.9345L9.81891 19.9543L9.78965 19.9664C9.4877 20.0915 9.23705 20.1953 9.003 20.2716C8.75965 20.3509 8.60431 20.3758 8.50841 20.375L8.48658 20.3751C8.46241 20.3754 8.3678 20.3655 8.1633 20.2882C7.96868 20.2146 7.75592 20.1129 7.48776 19.9847L7.47161 19.977C7.21431 19.854 6.90553 19.7069 6.59303 19.5932C6.28327 19.4804 5.9042 19.375 5.5 19.375C5.09317 19.375 4.72236 19.4811 4.4189 19.5925C4.18637 19.6778 3.93918 19.7881 3.72104 19.8854C3.66316 19.9112 3.60697 19.9362 3.554 19.9595C3.00289 20.2018 2.52814 20.375 2 20.375C1.44772 20.375 1 20.8227 1 21.375C1 21.9273 1.44772 22.375 2 22.375Z" fill="white"/>
</svg>
