<svg width="24" height="24" viewBox="0 0 24 24" fill="none" xmlns="http://www.w3.org/2000/svg">
<path d="M22.1992 17.2L20.1992 15.2L15.1992 20.2V22.2H17.1992L22.1992 17.2Z" fill="white"/>
<path d="M5.44922 1.69995C3.37815 1.69995 1.69922 3.37888 1.69922 5.44995V7.19995H22.1992V5.44995C22.1992 3.37888 20.5203 1.69995 18.4492 1.69995H5.44922Z" fill="white"/>
<path d="M22.1992 8.69995H12.6992V12.2H22.1992V8.69995Z" fill="white"/>
<path d="M16.4315 17.2L19.9315 13.7H12.6992V17.2H16.4315Z" fill="white"/>
<path d="M14.9315 18.7H12.6992V22.2H13.9492V19.6822L14.9315 18.7Z" fill="white"/>
<path d="M11.1992 13.7V17.2H1.69922V13.7H11.1992Z" fill="white"/>
<path d="M1.70742 18.7H11.1992V22.2H5.44922C3.46216 22.2 1.83607 20.6545 1.70742 18.7Z" fill="white"/>
<path d="M11.1992 12.2H1.69922V8.69995H11.1992V12.2Z" fill="white"/>
</svg>
