<?xml version="1.0" encoding="utf-8" standalone="no"?>
<!DOCTYPE svg PUBLIC "-//W3C//DTD SVG 1.1//EN"
  "http://www.w3.org/Graphics/SVG/1.1/DTD/svg11.dtd">
<svg xmlns:xlink="http://www.w3.org/1999/xlink" width="857.545pt" height="569.049688pt" viewBox="0 0 857.545 569.049688" xmlns="http://www.w3.org/2000/svg" version="1.1">
 <metadata>
  <rdf:RDF xmlns:dc="http://purl.org/dc/elements/1.1/" xmlns:cc="http://creativecommons.org/ns#" xmlns:rdf="http://www.w3.org/1999/02/22-rdf-syntax-ns#">
   <cc:Work>
    <dc:type rdf:resource="http://purl.org/dc/dcmitype/StillImage"/>
    <dc:date>2025-08-17T20:58:46.212629</dc:date>
    <dc:format>image/svg+xml</dc:format>
    <dc:creator>
     <cc:Agent>
      <dc:title>Matplotlib v3.5.1, https://matplotlib.org/</dc:title>
     </cc:Agent>
    </dc:creator>
   </cc:Work>
  </rdf:RDF>
 </metadata>
 <defs>
  <style type="text/css">*{stroke-linejoin: round; stroke-linecap: butt}</style>
 </defs>
 <g id="figure_1">
  <g id="patch_1">
   <path d="M 0 569.049688 
L 857.545 569.049688 
L 857.545 0 
L 0 0 
z
" style="fill: #ffffff"/>
  </g>
  <g id="axes_1">
   <g id="patch_2">
    <path d="M 42.53875 529.557812 
L 847.16375 529.557812 
L 847.16375 23.837812 
L 42.53875 23.837812 
z
" style="fill: #ffffff"/>
   </g>
   <g id="matplotlib.axis_1">
    <g id="xtick_1">
     <g id="line2d_1">
      <path d="M 42.53875 529.557812 
L 42.53875 23.837812 
" clip-path="url(#p3a0806e290)" style="fill: none; stroke: #b0b0b0; stroke-opacity: 0.3; stroke-width: 0.8; stroke-linecap: square"/>
     </g>
     <g id="line2d_2">
      <defs>
       <path id="m673485339e" d="M 0 0 
L 0 3.5 
" style="stroke: #000000; stroke-width: 0.8"/>
      </defs>
      <g>
       <use xlink:href="#m673485339e" x="42.53875" y="529.557812" style="stroke: #000000; stroke-width: 0.8"/>
      </g>
     </g>
     <g id="text_1">
      <!-- −6 -->
      <g transform="translate(35.167656 544.15625)scale(0.1 -0.1)">
       <defs>
        <path id="DejaVuSans-2212" d="M 678 2272 
L 4684 2272 
L 4684 1741 
L 678 1741 
L 678 2272 
z
" transform="scale(0.015625)"/>
        <path id="DejaVuSans-36" d="M 2113 2584 
Q 1688 2584 1439 2293 
Q 1191 2003 1191 1497 
Q 1191 994 1439 701 
Q 1688 409 2113 409 
Q 2538 409 2786 701 
Q 3034 994 3034 1497 
Q 3034 2003 2786 2293 
Q 2538 2584 2113 2584 
z
M 3366 4563 
L 3366 3988 
Q 3128 4100 2886 4159 
Q 2644 4219 2406 4219 
Q 1781 4219 1451 3797 
Q 1122 3375 1075 2522 
Q 1259 2794 1537 2939 
Q 1816 3084 2150 3084 
Q 2853 3084 3261 2657 
Q 3669 2231 3669 1497 
Q 3669 778 3244 343 
Q 2819 -91 2113 -91 
Q 1303 -91 875 529 
Q 447 1150 447 2328 
Q 447 3434 972 4092 
Q 1497 4750 2381 4750 
Q 2619 4750 2861 4703 
Q 3103 4656 3366 4563 
z
" transform="scale(0.015625)"/>
       </defs>
       <use xlink:href="#DejaVuSans-2212"/>
       <use xlink:href="#DejaVuSans-36" x="83.789062"/>
      </g>
     </g>
    </g>
    <g id="xtick_2">
     <g id="line2d_3">
      <path d="M 176.642917 529.557812 
L 176.642917 23.837812 
" clip-path="url(#p3a0806e290)" style="fill: none; stroke: #b0b0b0; stroke-opacity: 0.3; stroke-width: 0.8; stroke-linecap: square"/>
     </g>
     <g id="line2d_4">
      <g>
       <use xlink:href="#m673485339e" x="176.642917" y="529.557812" style="stroke: #000000; stroke-width: 0.8"/>
      </g>
     </g>
     <g id="text_2">
      <!-- −4 -->
      <g transform="translate(169.271823 544.15625)scale(0.1 -0.1)">
       <defs>
        <path id="DejaVuSans-34" d="M 2419 4116 
L 825 1625 
L 2419 1625 
L 2419 4116 
z
M 2253 4666 
L 3047 4666 
L 3047 1625 
L 3713 1625 
L 3713 1100 
L 3047 1100 
L 3047 0 
L 2419 0 
L 2419 1100 
L 313 1100 
L 313 1709 
L 2253 4666 
z
" transform="scale(0.015625)"/>
       </defs>
       <use xlink:href="#DejaVuSans-2212"/>
       <use xlink:href="#DejaVuSans-34" x="83.789062"/>
      </g>
     </g>
    </g>
    <g id="xtick_3">
     <g id="line2d_5">
      <path d="M 310.747083 529.557812 
L 310.747083 23.837812 
" clip-path="url(#p3a0806e290)" style="fill: none; stroke: #b0b0b0; stroke-opacity: 0.3; stroke-width: 0.8; stroke-linecap: square"/>
     </g>
     <g id="line2d_6">
      <g>
       <use xlink:href="#m673485339e" x="310.747083" y="529.557812" style="stroke: #000000; stroke-width: 0.8"/>
      </g>
     </g>
     <g id="text_3">
      <!-- −2 -->
      <g transform="translate(303.37599 544.15625)scale(0.1 -0.1)">
       <defs>
        <path id="DejaVuSans-32" d="M 1228 531 
L 3431 531 
L 3431 0 
L 469 0 
L 469 531 
Q 828 903 1448 1529 
Q 2069 2156 2228 2338 
Q 2531 2678 2651 2914 
Q 2772 3150 2772 3378 
Q 2772 3750 2511 3984 
Q 2250 4219 1831 4219 
Q 1534 4219 1204 4116 
Q 875 4013 500 3803 
L 500 4441 
Q 881 4594 1212 4672 
Q 1544 4750 1819 4750 
Q 2544 4750 2975 4387 
Q 3406 4025 3406 3419 
Q 3406 3131 3298 2873 
Q 3191 2616 2906 2266 
Q 2828 2175 2409 1742 
Q 1991 1309 1228 531 
z
" transform="scale(0.015625)"/>
       </defs>
       <use xlink:href="#DejaVuSans-2212"/>
       <use xlink:href="#DejaVuSans-32" x="83.789062"/>
      </g>
     </g>
    </g>
    <g id="xtick_4">
     <g id="line2d_7">
      <path d="M 444.85125 529.557812 
L 444.85125 23.837812 
" clip-path="url(#p3a0806e290)" style="fill: none; stroke: #b0b0b0; stroke-opacity: 0.3; stroke-width: 0.8; stroke-linecap: square"/>
     </g>
     <g id="line2d_8">
      <g>
       <use xlink:href="#m673485339e" x="444.85125" y="529.557812" style="stroke: #000000; stroke-width: 0.8"/>
      </g>
     </g>
     <g id="text_4">
      <!-- 0 -->
      <g transform="translate(441.67 544.15625)scale(0.1 -0.1)">
       <defs>
        <path id="DejaVuSans-30" d="M 2034 4250 
Q 1547 4250 1301 3770 
Q 1056 3291 1056 2328 
Q 1056 1369 1301 889 
Q 1547 409 2034 409 
Q 2525 409 2770 889 
Q 3016 1369 3016 2328 
Q 3016 3291 2770 3770 
Q 2525 4250 2034 4250 
z
M 2034 4750 
Q 2819 4750 3233 4129 
Q 3647 3509 3647 2328 
Q 3647 1150 3233 529 
Q 2819 -91 2034 -91 
Q 1250 -91 836 529 
Q 422 1150 422 2328 
Q 422 3509 836 4129 
Q 1250 4750 2034 4750 
z
" transform="scale(0.015625)"/>
       </defs>
       <use xlink:href="#DejaVuSans-30"/>
      </g>
     </g>
    </g>
    <g id="xtick_5">
     <g id="line2d_9">
      <path d="M 578.955417 529.557812 
L 578.955417 23.837812 
" clip-path="url(#p3a0806e290)" style="fill: none; stroke: #b0b0b0; stroke-opacity: 0.3; stroke-width: 0.8; stroke-linecap: square"/>
     </g>
     <g id="line2d_10">
      <g>
       <use xlink:href="#m673485339e" x="578.955417" y="529.557812" style="stroke: #000000; stroke-width: 0.8"/>
      </g>
     </g>
     <g id="text_5">
      <!-- 2 -->
      <g transform="translate(575.774167 544.15625)scale(0.1 -0.1)">
       <use xlink:href="#DejaVuSans-32"/>
      </g>
     </g>
    </g>
    <g id="xtick_6">
     <g id="line2d_11">
      <path d="M 713.059583 529.557812 
L 713.059583 23.837812 
" clip-path="url(#p3a0806e290)" style="fill: none; stroke: #b0b0b0; stroke-opacity: 0.3; stroke-width: 0.8; stroke-linecap: square"/>
     </g>
     <g id="line2d_12">
      <g>
       <use xlink:href="#m673485339e" x="713.059583" y="529.557812" style="stroke: #000000; stroke-width: 0.8"/>
      </g>
     </g>
     <g id="text_6">
      <!-- 4 -->
      <g transform="translate(709.878333 544.15625)scale(0.1 -0.1)">
       <use xlink:href="#DejaVuSans-34"/>
      </g>
     </g>
    </g>
    <g id="xtick_7">
     <g id="line2d_13">
      <path d="M 847.16375 529.557812 
L 847.16375 23.837812 
" clip-path="url(#p3a0806e290)" style="fill: none; stroke: #b0b0b0; stroke-opacity: 0.3; stroke-width: 0.8; stroke-linecap: square"/>
     </g>
     <g id="line2d_14">
      <g>
       <use xlink:href="#m673485339e" x="847.16375" y="529.557812" style="stroke: #000000; stroke-width: 0.8"/>
      </g>
     </g>
     <g id="text_7">
      <!-- 6 -->
      <g transform="translate(843.9825 544.15625)scale(0.1 -0.1)">
       <use xlink:href="#DejaVuSans-36"/>
      </g>
     </g>
    </g>
    <g id="text_8">
     <!-- Posizione x -->
     <g transform="translate(411.5475 559.354063)scale(0.12 -0.12)">
      <defs>
       <path id="DejaVuSans-50" d="M 1259 4147 
L 1259 2394 
L 2053 2394 
Q 2494 2394 2734 2622 
Q 2975 2850 2975 3272 
Q 2975 3691 2734 3919 
Q 2494 4147 2053 4147 
L 1259 4147 
z
M 628 4666 
L 2053 4666 
Q 2838 4666 3239 4311 
Q 3641 3956 3641 3272 
Q 3641 2581 3239 2228 
Q 2838 1875 2053 1875 
L 1259 1875 
L 1259 0 
L 628 0 
L 628 4666 
z
" transform="scale(0.015625)"/>
       <path id="DejaVuSans-6f" d="M 1959 3097 
Q 1497 3097 1228 2736 
Q 959 2375 959 1747 
Q 959 1119 1226 758 
Q 1494 397 1959 397 
Q 2419 397 2687 759 
Q 2956 1122 2956 1747 
Q 2956 2369 2687 2733 
Q 2419 3097 1959 3097 
z
M 1959 3584 
Q 2709 3584 3137 3096 
Q 3566 2609 3566 1747 
Q 3566 888 3137 398 
Q 2709 -91 1959 -91 
Q 1206 -91 779 398 
Q 353 888 353 1747 
Q 353 2609 779 3096 
Q 1206 3584 1959 3584 
z
" transform="scale(0.015625)"/>
       <path id="DejaVuSans-73" d="M 2834 3397 
L 2834 2853 
Q 2591 2978 2328 3040 
Q 2066 3103 1784 3103 
Q 1356 3103 1142 2972 
Q 928 2841 928 2578 
Q 928 2378 1081 2264 
Q 1234 2150 1697 2047 
L 1894 2003 
Q 2506 1872 2764 1633 
Q 3022 1394 3022 966 
Q 3022 478 2636 193 
Q 2250 -91 1575 -91 
Q 1294 -91 989 -36 
Q 684 19 347 128 
L 347 722 
Q 666 556 975 473 
Q 1284 391 1588 391 
Q 1994 391 2212 530 
Q 2431 669 2431 922 
Q 2431 1156 2273 1281 
Q 2116 1406 1581 1522 
L 1381 1569 
Q 847 1681 609 1914 
Q 372 2147 372 2553 
Q 372 3047 722 3315 
Q 1072 3584 1716 3584 
Q 2034 3584 2315 3537 
Q 2597 3491 2834 3397 
z
" transform="scale(0.015625)"/>
       <path id="DejaVuSans-69" d="M 603 3500 
L 1178 3500 
L 1178 0 
L 603 0 
L 603 3500 
z
M 603 4863 
L 1178 4863 
L 1178 4134 
L 603 4134 
L 603 4863 
z
" transform="scale(0.015625)"/>
       <path id="DejaVuSans-7a" d="M 353 3500 
L 3084 3500 
L 3084 2975 
L 922 459 
L 3084 459 
L 3084 0 
L 275 0 
L 275 525 
L 2438 3041 
L 353 3041 
L 353 3500 
z
" transform="scale(0.015625)"/>
       <path id="DejaVuSans-6e" d="M 3513 2113 
L 3513 0 
L 2938 0 
L 2938 2094 
Q 2938 2591 2744 2837 
Q 2550 3084 2163 3084 
Q 1697 3084 1428 2787 
Q 1159 2491 1159 1978 
L 1159 0 
L 581 0 
L 581 3500 
L 1159 3500 
L 1159 2956 
Q 1366 3272 1645 3428 
Q 1925 3584 2291 3584 
Q 2894 3584 3203 3211 
Q 3513 2838 3513 2113 
z
" transform="scale(0.015625)"/>
       <path id="DejaVuSans-65" d="M 3597 1894 
L 3597 1613 
L 953 1613 
Q 991 1019 1311 708 
Q 1631 397 2203 397 
Q 2534 397 2845 478 
Q 3156 559 3463 722 
L 3463 178 
Q 3153 47 2828 -22 
Q 2503 -91 2169 -91 
Q 1331 -91 842 396 
Q 353 884 353 1716 
Q 353 2575 817 3079 
Q 1281 3584 2069 3584 
Q 2775 3584 3186 3129 
Q 3597 2675 3597 1894 
z
M 3022 2063 
Q 3016 2534 2758 2815 
Q 2500 3097 2075 3097 
Q 1594 3097 1305 2825 
Q 1016 2553 972 2059 
L 3022 2063 
z
" transform="scale(0.015625)"/>
       <path id="DejaVuSans-20" transform="scale(0.015625)"/>
       <path id="DejaVuSans-78" d="M 3513 3500 
L 2247 1797 
L 3578 0 
L 2900 0 
L 1881 1375 
L 863 0 
L 184 0 
L 1544 1831 
L 300 3500 
L 978 3500 
L 1906 2253 
L 2834 3500 
L 3513 3500 
z
" transform="scale(0.015625)"/>
      </defs>
      <use xlink:href="#DejaVuSans-50"/>
      <use xlink:href="#DejaVuSans-6f" x="56.677734"/>
      <use xlink:href="#DejaVuSans-73" x="117.859375"/>
      <use xlink:href="#DejaVuSans-69" x="169.958984"/>
      <use xlink:href="#DejaVuSans-7a" x="197.742188"/>
      <use xlink:href="#DejaVuSans-69" x="250.232422"/>
      <use xlink:href="#DejaVuSans-6f" x="278.015625"/>
      <use xlink:href="#DejaVuSans-6e" x="339.197266"/>
      <use xlink:href="#DejaVuSans-65" x="402.576172"/>
      <use xlink:href="#DejaVuSans-20" x="464.099609"/>
      <use xlink:href="#DejaVuSans-78" x="495.886719"/>
     </g>
    </g>
   </g>
   <g id="matplotlib.axis_2">
    <g id="ytick_1">
     <g id="line2d_15">
      <path d="M 42.53875 516.902924 
L 847.16375 516.902924 
" clip-path="url(#p3a0806e290)" style="fill: none; stroke: #b0b0b0; stroke-opacity: 0.3; stroke-width: 0.8; stroke-linecap: square"/>
     </g>
     <g id="line2d_16">
      <defs>
       <path id="md9c0f4ad7f" d="M 0 0 
L -3.5 0 
" style="stroke: #000000; stroke-width: 0.8"/>
      </defs>
      <g>
       <use xlink:href="#md9c0f4ad7f" x="42.53875" y="516.902924" style="stroke: #000000; stroke-width: 0.8"/>
      </g>
     </g>
     <g id="text_9">
      <!-- 0 -->
      <g transform="translate(29.17625 520.702142)scale(0.1 -0.1)">
       <use xlink:href="#DejaVuSans-30"/>
      </g>
     </g>
    </g>
    <g id="ytick_2">
     <g id="line2d_17">
      <path d="M 42.53875 447.700803 
L 847.16375 447.700803 
" clip-path="url(#p3a0806e290)" style="fill: none; stroke: #b0b0b0; stroke-opacity: 0.3; stroke-width: 0.8; stroke-linecap: square"/>
     </g>
     <g id="line2d_18">
      <g>
       <use xlink:href="#md9c0f4ad7f" x="42.53875" y="447.700803" style="stroke: #000000; stroke-width: 0.8"/>
      </g>
     </g>
     <g id="text_10">
      <!-- 10 -->
      <g transform="translate(22.81375 451.500021)scale(0.1 -0.1)">
       <defs>
        <path id="DejaVuSans-31" d="M 794 531 
L 1825 531 
L 1825 4091 
L 703 3866 
L 703 4441 
L 1819 4666 
L 2450 4666 
L 2450 531 
L 3481 531 
L 3481 0 
L 794 0 
L 794 531 
z
" transform="scale(0.015625)"/>
       </defs>
       <use xlink:href="#DejaVuSans-31"/>
       <use xlink:href="#DejaVuSans-30" x="63.623047"/>
      </g>
     </g>
    </g>
    <g id="ytick_3">
     <g id="line2d_19">
      <path d="M 42.53875 378.498682 
L 847.16375 378.498682 
" clip-path="url(#p3a0806e290)" style="fill: none; stroke: #b0b0b0; stroke-opacity: 0.3; stroke-width: 0.8; stroke-linecap: square"/>
     </g>
     <g id="line2d_20">
      <g>
       <use xlink:href="#md9c0f4ad7f" x="42.53875" y="378.498682" style="stroke: #000000; stroke-width: 0.8"/>
      </g>
     </g>
     <g id="text_11">
      <!-- 20 -->
      <g transform="translate(22.81375 382.297901)scale(0.1 -0.1)">
       <use xlink:href="#DejaVuSans-32"/>
       <use xlink:href="#DejaVuSans-30" x="63.623047"/>
      </g>
     </g>
    </g>
    <g id="ytick_4">
     <g id="line2d_21">
      <path d="M 42.53875 309.296561 
L 847.16375 309.296561 
" clip-path="url(#p3a0806e290)" style="fill: none; stroke: #b0b0b0; stroke-opacity: 0.3; stroke-width: 0.8; stroke-linecap: square"/>
     </g>
     <g id="line2d_22">
      <g>
       <use xlink:href="#md9c0f4ad7f" x="42.53875" y="309.296561" style="stroke: #000000; stroke-width: 0.8"/>
      </g>
     </g>
     <g id="text_12">
      <!-- 30 -->
      <g transform="translate(22.81375 313.09578)scale(0.1 -0.1)">
       <defs>
        <path id="DejaVuSans-33" d="M 2597 2516 
Q 3050 2419 3304 2112 
Q 3559 1806 3559 1356 
Q 3559 666 3084 287 
Q 2609 -91 1734 -91 
Q 1441 -91 1130 -33 
Q 819 25 488 141 
L 488 750 
Q 750 597 1062 519 
Q 1375 441 1716 441 
Q 2309 441 2620 675 
Q 2931 909 2931 1356 
Q 2931 1769 2642 2001 
Q 2353 2234 1838 2234 
L 1294 2234 
L 1294 2753 
L 1863 2753 
Q 2328 2753 2575 2939 
Q 2822 3125 2822 3475 
Q 2822 3834 2567 4026 
Q 2313 4219 1838 4219 
Q 1578 4219 1281 4162 
Q 984 4106 628 3988 
L 628 4550 
Q 988 4650 1302 4700 
Q 1616 4750 1894 4750 
Q 2613 4750 3031 4423 
Q 3450 4097 3450 3541 
Q 3450 3153 3228 2886 
Q 3006 2619 2597 2516 
z
" transform="scale(0.015625)"/>
       </defs>
       <use xlink:href="#DejaVuSans-33"/>
       <use xlink:href="#DejaVuSans-30" x="63.623047"/>
      </g>
     </g>
    </g>
    <g id="ytick_5">
     <g id="line2d_23">
      <path d="M 42.53875 240.09444 
L 847.16375 240.09444 
" clip-path="url(#p3a0806e290)" style="fill: none; stroke: #b0b0b0; stroke-opacity: 0.3; stroke-width: 0.8; stroke-linecap: square"/>
     </g>
     <g id="line2d_24">
      <g>
       <use xlink:href="#md9c0f4ad7f" x="42.53875" y="240.09444" style="stroke: #000000; stroke-width: 0.8"/>
      </g>
     </g>
     <g id="text_13">
      <!-- 40 -->
      <g transform="translate(22.81375 243.893659)scale(0.1 -0.1)">
       <use xlink:href="#DejaVuSans-34"/>
       <use xlink:href="#DejaVuSans-30" x="63.623047"/>
      </g>
     </g>
    </g>
    <g id="ytick_6">
     <g id="line2d_25">
      <path d="M 42.53875 170.892319 
L 847.16375 170.892319 
" clip-path="url(#p3a0806e290)" style="fill: none; stroke: #b0b0b0; stroke-opacity: 0.3; stroke-width: 0.8; stroke-linecap: square"/>
     </g>
     <g id="line2d_26">
      <g>
       <use xlink:href="#md9c0f4ad7f" x="42.53875" y="170.892319" style="stroke: #000000; stroke-width: 0.8"/>
      </g>
     </g>
     <g id="text_14">
      <!-- 50 -->
      <g transform="translate(22.81375 174.691538)scale(0.1 -0.1)">
       <defs>
        <path id="DejaVuSans-35" d="M 691 4666 
L 3169 4666 
L 3169 4134 
L 1269 4134 
L 1269 2991 
Q 1406 3038 1543 3061 
Q 1681 3084 1819 3084 
Q 2600 3084 3056 2656 
Q 3513 2228 3513 1497 
Q 3513 744 3044 326 
Q 2575 -91 1722 -91 
Q 1428 -91 1123 -41 
Q 819 9 494 109 
L 494 744 
Q 775 591 1075 516 
Q 1375 441 1709 441 
Q 2250 441 2565 725 
Q 2881 1009 2881 1497 
Q 2881 1984 2565 2268 
Q 2250 2553 1709 2553 
Q 1456 2553 1204 2497 
Q 953 2441 691 2322 
L 691 4666 
z
" transform="scale(0.015625)"/>
       </defs>
       <use xlink:href="#DejaVuSans-35"/>
       <use xlink:href="#DejaVuSans-30" x="63.623047"/>
      </g>
     </g>
    </g>
    <g id="ytick_7">
     <g id="line2d_27">
      <path d="M 42.53875 101.690198 
L 847.16375 101.690198 
" clip-path="url(#p3a0806e290)" style="fill: none; stroke: #b0b0b0; stroke-opacity: 0.3; stroke-width: 0.8; stroke-linecap: square"/>
     </g>
     <g id="line2d_28">
      <g>
       <use xlink:href="#md9c0f4ad7f" x="42.53875" y="101.690198" style="stroke: #000000; stroke-width: 0.8"/>
      </g>
     </g>
     <g id="text_15">
      <!-- 60 -->
      <g transform="translate(22.81375 105.489417)scale(0.1 -0.1)">
       <use xlink:href="#DejaVuSans-36"/>
       <use xlink:href="#DejaVuSans-30" x="63.623047"/>
      </g>
     </g>
    </g>
    <g id="ytick_8">
     <g id="line2d_29">
      <path d="M 42.53875 32.488078 
L 847.16375 32.488078 
" clip-path="url(#p3a0806e290)" style="fill: none; stroke: #b0b0b0; stroke-opacity: 0.3; stroke-width: 0.8; stroke-linecap: square"/>
     </g>
     <g id="line2d_30">
      <g>
       <use xlink:href="#md9c0f4ad7f" x="42.53875" y="32.488078" style="stroke: #000000; stroke-width: 0.8"/>
      </g>
     </g>
     <g id="text_16">
      <!-- 70 -->
      <g transform="translate(22.81375 36.287296)scale(0.1 -0.1)">
       <defs>
        <path id="DejaVuSans-37" d="M 525 4666 
L 3525 4666 
L 3525 4397 
L 1831 0 
L 1172 0 
L 2766 4134 
L 525 4134 
L 525 4666 
z
" transform="scale(0.015625)"/>
       </defs>
       <use xlink:href="#DejaVuSans-37"/>
       <use xlink:href="#DejaVuSans-30" x="63.623047"/>
      </g>
     </g>
    </g>
    <g id="text_17">
     <!-- Energia Potenziale U(x) -->
     <g transform="translate(16.318125 346.705625)rotate(-90)scale(0.12 -0.12)">
      <defs>
       <path id="DejaVuSans-45" d="M 628 4666 
L 3578 4666 
L 3578 4134 
L 1259 4134 
L 1259 2753 
L 3481 2753 
L 3481 2222 
L 1259 2222 
L 1259 531 
L 3634 531 
L 3634 0 
L 628 0 
L 628 4666 
z
" transform="scale(0.015625)"/>
       <path id="DejaVuSans-72" d="M 2631 2963 
Q 2534 3019 2420 3045 
Q 2306 3072 2169 3072 
Q 1681 3072 1420 2755 
Q 1159 2438 1159 1844 
L 1159 0 
L 581 0 
L 581 3500 
L 1159 3500 
L 1159 2956 
Q 1341 3275 1631 3429 
Q 1922 3584 2338 3584 
Q 2397 3584 2469 3576 
Q 2541 3569 2628 3553 
L 2631 2963 
z
" transform="scale(0.015625)"/>
       <path id="DejaVuSans-67" d="M 2906 1791 
Q 2906 2416 2648 2759 
Q 2391 3103 1925 3103 
Q 1463 3103 1205 2759 
Q 947 2416 947 1791 
Q 947 1169 1205 825 
Q 1463 481 1925 481 
Q 2391 481 2648 825 
Q 2906 1169 2906 1791 
z
M 3481 434 
Q 3481 -459 3084 -895 
Q 2688 -1331 1869 -1331 
Q 1566 -1331 1297 -1286 
Q 1028 -1241 775 -1147 
L 775 -588 
Q 1028 -725 1275 -790 
Q 1522 -856 1778 -856 
Q 2344 -856 2625 -561 
Q 2906 -266 2906 331 
L 2906 616 
Q 2728 306 2450 153 
Q 2172 0 1784 0 
Q 1141 0 747 490 
Q 353 981 353 1791 
Q 353 2603 747 3093 
Q 1141 3584 1784 3584 
Q 2172 3584 2450 3431 
Q 2728 3278 2906 2969 
L 2906 3500 
L 3481 3500 
L 3481 434 
z
" transform="scale(0.015625)"/>
       <path id="DejaVuSans-61" d="M 2194 1759 
Q 1497 1759 1228 1600 
Q 959 1441 959 1056 
Q 959 750 1161 570 
Q 1363 391 1709 391 
Q 2188 391 2477 730 
Q 2766 1069 2766 1631 
L 2766 1759 
L 2194 1759 
z
M 3341 1997 
L 3341 0 
L 2766 0 
L 2766 531 
Q 2569 213 2275 61 
Q 1981 -91 1556 -91 
Q 1019 -91 701 211 
Q 384 513 384 1019 
Q 384 1609 779 1909 
Q 1175 2209 1959 2209 
L 2766 2209 
L 2766 2266 
Q 2766 2663 2505 2880 
Q 2244 3097 1772 3097 
Q 1472 3097 1187 3025 
Q 903 2953 641 2809 
L 641 3341 
Q 956 3463 1253 3523 
Q 1550 3584 1831 3584 
Q 2591 3584 2966 3190 
Q 3341 2797 3341 1997 
z
" transform="scale(0.015625)"/>
       <path id="DejaVuSans-74" d="M 1172 4494 
L 1172 3500 
L 2356 3500 
L 2356 3053 
L 1172 3053 
L 1172 1153 
Q 1172 725 1289 603 
Q 1406 481 1766 481 
L 2356 481 
L 2356 0 
L 1766 0 
Q 1100 0 847 248 
Q 594 497 594 1153 
L 594 3053 
L 172 3053 
L 172 3500 
L 594 3500 
L 594 4494 
L 1172 4494 
z
" transform="scale(0.015625)"/>
       <path id="DejaVuSans-6c" d="M 603 4863 
L 1178 4863 
L 1178 0 
L 603 0 
L 603 4863 
z
" transform="scale(0.015625)"/>
       <path id="DejaVuSans-55" d="M 556 4666 
L 1191 4666 
L 1191 1831 
Q 1191 1081 1462 751 
Q 1734 422 2344 422 
Q 2950 422 3222 751 
Q 3494 1081 3494 1831 
L 3494 4666 
L 4128 4666 
L 4128 1753 
Q 4128 841 3676 375 
Q 3225 -91 2344 -91 
Q 1459 -91 1007 375 
Q 556 841 556 1753 
L 556 4666 
z
" transform="scale(0.015625)"/>
       <path id="DejaVuSans-28" d="M 1984 4856 
Q 1566 4138 1362 3434 
Q 1159 2731 1159 2009 
Q 1159 1288 1364 580 
Q 1569 -128 1984 -844 
L 1484 -844 
Q 1016 -109 783 600 
Q 550 1309 550 2009 
Q 550 2706 781 3412 
Q 1013 4119 1484 4856 
L 1984 4856 
z
" transform="scale(0.015625)"/>
       <path id="DejaVuSans-29" d="M 513 4856 
L 1013 4856 
Q 1481 4119 1714 3412 
Q 1947 2706 1947 2009 
Q 1947 1309 1714 600 
Q 1481 -109 1013 -844 
L 513 -844 
Q 928 -128 1133 580 
Q 1338 1288 1338 2009 
Q 1338 2731 1133 3434 
Q 928 4138 513 4856 
z
" transform="scale(0.015625)"/>
      </defs>
      <use xlink:href="#DejaVuSans-45"/>
      <use xlink:href="#DejaVuSans-6e" x="63.183594"/>
      <use xlink:href="#DejaVuSans-65" x="126.5625"/>
      <use xlink:href="#DejaVuSans-72" x="188.085938"/>
      <use xlink:href="#DejaVuSans-67" x="227.449219"/>
      <use xlink:href="#DejaVuSans-69" x="290.925781"/>
      <use xlink:href="#DejaVuSans-61" x="318.708984"/>
      <use xlink:href="#DejaVuSans-20" x="379.988281"/>
      <use xlink:href="#DejaVuSans-50" x="411.775391"/>
      <use xlink:href="#DejaVuSans-6f" x="468.453125"/>
      <use xlink:href="#DejaVuSans-74" x="529.634766"/>
      <use xlink:href="#DejaVuSans-65" x="568.84375"/>
      <use xlink:href="#DejaVuSans-6e" x="630.367188"/>
      <use xlink:href="#DejaVuSans-7a" x="693.746094"/>
      <use xlink:href="#DejaVuSans-69" x="746.236328"/>
      <use xlink:href="#DejaVuSans-61" x="774.019531"/>
      <use xlink:href="#DejaVuSans-6c" x="835.298828"/>
      <use xlink:href="#DejaVuSans-65" x="863.082031"/>
      <use xlink:href="#DejaVuSans-20" x="924.605469"/>
      <use xlink:href="#DejaVuSans-55" x="956.392578"/>
      <use xlink:href="#DejaVuSans-28" x="1029.585938"/>
      <use xlink:href="#DejaVuSans-78" x="1068.599609"/>
      <use xlink:href="#DejaVuSans-29" x="1127.779297"/>
     </g>
    </g>
   </g>
   <g id="line2d_31">
    <path d="M 42.53875 37.678237 
L 43.34418 39.600203 
L 44.149611 41.912073 
L 45.760472 47.670955 
L 47.371333 54.864835 
L 48.982193 63.372171 
L 50.593054 73.043206 
L 53.009346 89.34526 
L 56.231067 113.375055 
L 62.674511 162.705757 
L 65.090802 179.413548 
L 66.701663 189.489858 
L 68.312524 198.535547 
L 69.923385 206.424307 
L 71.534245 213.058101 
L 73.145106 218.368937 
L 73.950537 220.515484 
L 74.755967 222.319909 
L 75.561398 223.782507 
L 76.366828 224.905519 
L 77.172259 225.693098 
L 77.977689 226.151269 
L 78.783119 226.28788 
L 79.58855 226.112542 
L 80.39398 225.636555 
L 81.199411 224.872831 
L 82.004841 223.835804 
L 82.810272 222.541335 
L 84.421132 219.250022 
L 86.031993 215.150208 
L 87.642854 210.40876 
L 90.059145 202.485683 
L 95.697158 183.477645 
L 97.308019 178.730063 
L 98.91888 174.589148 
L 100.529741 171.195423 
L 101.335171 169.817308 
L 102.140602 168.669547 
L 102.946032 167.763724 
L 103.751463 167.10991 
L 104.556893 166.716623 
L 105.362324 166.590788 
L 106.167754 166.737716 
L 106.973184 167.161086 
L 107.778615 167.86294 
L 108.584045 168.843684 
L 109.389476 170.102108 
L 110.194906 171.635398 
L 111.805767 175.507537 
L 113.416628 180.40704 
L 115.027489 186.258154 
L 116.63835 192.964598 
L 119.054641 204.37399 
L 121.470932 217.00222 
L 127.108945 248.382977 
L 130.330667 265.566779 
L 132.746958 277.237706 
L 134.357819 284.218562 
L 135.96868 290.448439 
L 137.579541 295.853047 
L 139.190402 300.378262 
L 140.801263 303.990959 
L 141.606693 305.450595 
L 142.412123 306.679345 
L 143.217554 307.679037 
L 144.022984 308.452791 
L 144.828415 309.004976 
L 145.633845 309.341181 
L 146.439276 309.468162 
L 147.244706 309.393797 
L 148.050136 309.127024 
L 148.855567 308.677781 
L 149.660997 308.056937 
L 151.271858 306.348132 
L 152.882719 304.103304 
L 154.49358 301.434986 
L 156.909871 296.901227 
L 162.547884 286.009139 
L 164.158745 283.353796 
L 165.769606 281.098491 
L 167.380467 279.333501 
L 168.185897 278.659432 
L 168.991328 278.135585 
L 169.796758 277.769204 
L 170.602188 277.566521 
L 171.407619 277.532739 
L 172.213049 277.67201 
L 173.01848 277.987422 
L 173.82391 278.480995 
L 174.629341 279.153679 
L 175.434771 280.005367 
L 177.045632 282.240088 
L 178.656493 285.163693 
L 180.267354 288.739168 
L 181.878214 292.915166 
L 183.489075 297.627532 
L 185.905367 305.534786 
L 189.127088 317.183717 
L 197.181393 347.090845 
L 199.597684 355.013009 
L 202.013975 361.993514 
L 203.624836 366.034358 
L 205.235697 369.540053 
L 206.846558 372.486753 
L 208.457419 374.86388 
L 210.06828 376.674035 
L 211.67914 377.932587 
L 212.484571 378.363143 
L 213.290001 378.666986 
L 214.095432 378.849278 
L 215.706293 378.872924 
L 217.317153 378.487037 
L 218.928014 377.752349 
L 220.538875 376.735746 
L 222.955166 374.839024 
L 229.39861 369.362446 
L 231.009471 368.281246 
L 232.620332 367.440068 
L 234.231192 366.889529 
L 235.842053 366.671787 
L 237.452914 366.819802 
L 239.063775 367.356835 
L 240.674636 368.296184 
L 242.285497 369.641171 
L 243.896358 371.385359 
L 245.507218 373.512999 
L 247.118079 375.999677 
L 248.72894 378.81315 
L 251.145231 383.559048 
L 253.561523 388.796385 
L 257.588675 398.140454 
L 262.421258 409.329468 
L 264.837549 414.51652 
L 267.25384 419.241764 
L 269.670131 423.398327 
L 271.280992 425.815945 
L 272.891853 427.934928 
L 274.502714 429.749764 
L 276.113575 431.262042 
L 277.724436 432.48016 
L 279.335297 433.418891 
L 280.946157 434.098798 
L 282.557018 434.545537 
L 284.167879 434.789064 
L 286.58417 434.847053 
L 289.000462 434.645689 
L 297.054766 433.71389 
L 299.471057 433.793442 
L 301.081918 434.022151 
L 302.692779 434.412289 
L 304.30364 434.976356 
L 305.914501 435.72192 
L 307.525362 436.651637 
L 309.136222 437.763388 
L 311.552514 439.756662 
L 313.968805 442.104097 
L 316.385096 444.748682 
L 319.606818 448.614237 
L 330.882844 462.590594 
L 334.104566 466.011764 
L 336.520857 468.276142 
L 338.937148 470.259723 
L 341.35344 471.959353 
L 343.769731 473.38652 
L 346.186022 474.565562 
L 348.602314 475.531266 
L 351.824035 476.561031 
L 355.851187 477.592164 
L 363.905492 479.599338 
L 367.932644 480.895482 
L 371.154366 482.149853 
L 375.181518 483.991311 
L 379.20867 486.086458 
L 386.457544 490.188635 
L 392.900987 493.756007 
L 397.73357 496.160222 
L 401.760722 497.928495 
L 405.787874 499.483835 
L 410.620457 501.112371 
L 417.0639 503.011392 
L 428.339926 506.034134 
L 438.810522 508.650531 
L 446.059396 510.228582 
L 453.30827 511.565566 
L 462.973435 513.093761 
L 475.054891 514.794002 
L 480.692904 515.390563 
L 485.525487 515.677215 
L 489.552639 515.701498 
L 493.579791 515.508002 
L 497.606943 515.107491 
L 503.244956 514.29508 
L 512.104691 512.987176 
L 516.131843 512.646761 
L 519.353565 512.573946 
L 522.575287 512.699546 
L 526.602439 513.121115 
L 531.435021 513.902958 
L 537.878465 514.965091 
L 541.100186 515.265337 
L 543.516478 515.29714 
L 545.932769 515.115607 
L 548.34906 514.685948 
L 550.765352 513.983826 
L 553.181643 512.997753 
L 555.597934 511.730883 
L 558.014225 510.202025 
L 561.235947 507.818004 
L 565.263099 504.462559 
L 571.706543 499.011696 
L 574.122834 497.204933 
L 576.539125 495.649659 
L 578.955417 494.412234 
L 580.566278 493.79009 
L 582.177138 493.343344 
L 583.787999 493.078633 
L 585.39886 492.998074 
L 587.009721 493.099012 
L 588.620582 493.37388 
L 591.036873 494.083628 
L 593.453164 495.093156 
L 596.674886 496.756512 
L 602.312899 499.806764 
L 604.72919 500.846727 
L 606.340051 501.357473 
L 607.950912 501.681325 
L 609.561773 501.786503 
L 611.172634 501.645096 
L 612.783495 501.2339 
L 614.394356 500.535168 
L 616.005216 499.537249 
L 617.616077 498.235105 
L 619.226938 496.63067 
L 620.837799 494.733061 
L 622.44866 492.558606 
L 624.864951 488.83087 
L 627.281242 484.641326 
L 630.502964 478.576704 
L 636.946408 466.308339 
L 639.362699 462.213749 
L 641.77899 458.664764 
L 643.389851 456.675212 
L 645.000712 455.029496 
L 646.611573 453.75606 
L 648.222434 452.875077 
L 649.833295 452.397712 
L 651.444155 452.325563 
L 653.055016 452.650333 
L 654.665877 453.353724 
L 656.276738 454.40758 
L 657.887599 455.774263 
L 659.49846 457.407277 
L 661.914751 460.235037 
L 669.969055 470.209412 
L 671.579916 471.758742 
L 673.190777 472.99205 
L 674.801638 473.845319 
L 676.412499 474.261507 
L 677.217929 474.290167 
L 678.02336 474.192114 
L 678.82879 473.962848 
L 679.63422 473.598567 
L 680.439651 473.096196 
L 682.050512 471.668696 
L 683.661373 469.671295 
L 685.272233 467.107951 
L 686.883094 463.99588 
L 688.493955 460.365506 
L 690.104816 456.260076 
L 692.521107 449.335419 
L 694.937399 441.701592 
L 704.602564 410.0332 
L 707.018855 403.43839 
L 708.629716 399.65046 
L 710.240577 396.43247 
L 711.851438 393.842381 
L 713.462299 391.924544 
L 714.267729 391.227514 
L 715.073159 390.708329 
L 715.87859 390.368147 
L 716.68402 390.207077 
L 717.489451 390.224168 
L 718.294881 390.4174 
L 719.100312 390.783684 
L 719.905742 391.31887 
L 720.711172 392.017754 
L 722.322033 393.880675 
L 723.932894 396.31067 
L 725.543755 399.230981 
L 727.154616 402.551329 
L 729.570907 408.056176 
L 735.20892 421.302203 
L 736.819781 424.635527 
L 738.430642 427.54536 
L 740.041503 429.91917 
L 741.652364 431.654262 
L 742.457794 432.253538 
L 743.263224 432.660406 
L 744.068655 432.865927 
L 744.874085 432.862226 
L 745.679516 432.642543 
L 746.484946 432.201292 
L 747.290377 431.534102 
L 748.095807 430.637856 
L 748.901237 429.510721 
L 749.706668 428.152178 
L 751.317529 424.745418 
L 752.92839 420.440045 
L 754.539251 415.279757 
L 756.150111 409.328895 
L 757.760972 402.671367 
L 760.177264 391.587424 
L 763.398985 375.413768 
L 769.036998 346.51956 
L 771.45329 335.241998 
L 773.06415 328.459441 
L 774.675011 322.418003 
L 776.285872 317.231894 
L 777.896733 312.997396 
L 778.702163 311.261538 
L 779.507594 309.790263 
L 780.313024 308.589475 
L 781.118455 307.663554 
L 781.923885 307.015312 
L 782.729316 306.645962 
L 783.534746 306.555094 
L 784.340176 306.740669 
L 785.145607 307.199006 
L 785.951037 307.924796 
L 786.756468 308.911112 
L 787.561898 310.149439 
L 789.172759 313.34032 
L 790.78362 317.39905 
L 792.394481 322.20497 
L 794.810772 330.502715 
L 798.032494 342.737229 
L 801.254215 354.985255 
L 803.670507 363.280153 
L 805.281368 368.044972 
L 806.892228 372.001291 
L 807.697659 373.628262 
L 808.503089 374.997792 
L 809.30852 376.094019 
L 810.11395 376.902509 
L 810.919381 377.41035 
L 811.724811 377.606241 
L 812.530241 377.480573 
L 813.335672 377.025497 
L 814.141102 376.234987 
L 814.946533 375.104892 
L 815.751963 373.63297 
L 816.557394 371.818925 
L 817.362824 369.664422 
L 818.973685 364.35054 
L 820.584546 357.743859 
L 822.195407 349.927568 
L 823.806268 341.014107 
L 826.222559 325.898766 
L 828.63885 309.204682 
L 837.498585 245.798898 
L 839.914876 231.165152 
L 841.525737 222.720633 
L 843.136598 215.51799 
L 844.747459 209.693322 
L 845.552889 207.332158 
L 846.35832 205.35279 
L 847.16375 203.763327 
L 847.16375 203.763327 
" clip-path="url(#p3a0806e290)" style="fill: none; stroke: #0000ff; stroke-width: 3; stroke-linecap: square"/>
   </g>
   <g id="patch_3">
    <path d="M 42.53875 529.557813 
L 42.53875 23.837812 
" style="fill: none; stroke: #000000; stroke-width: 0.8; stroke-linejoin: miter; stroke-linecap: square"/>
   </g>
   <g id="patch_4">
    <path d="M 847.16375 529.557813 
L 847.16375 23.837812 
" style="fill: none; stroke: #000000; stroke-width: 0.8; stroke-linejoin: miter; stroke-linecap: square"/>
   </g>
   <g id="patch_5">
    <path d="M 42.53875 529.557812 
L 847.16375 529.557812 
" style="fill: none; stroke: #000000; stroke-width: 0.8; stroke-linejoin: miter; stroke-linecap: square"/>
   </g>
   <g id="patch_6">
    <path d="M 42.53875 23.837812 
L 847.16375 23.837812 
" style="fill: none; stroke: #000000; stroke-width: 0.8; stroke-linejoin: miter; stroke-linecap: square"/>
   </g>
   <g id="text_18">
    <!-- Energia Potenziale con Minimi Locali e Globale -->
    <g transform="translate(282.275156 17.837812)scale(0.14 -0.14)">
     <defs>
      <path id="DejaVuSans-63" d="M 3122 3366 
L 3122 2828 
Q 2878 2963 2633 3030 
Q 2388 3097 2138 3097 
Q 1578 3097 1268 2742 
Q 959 2388 959 1747 
Q 959 1106 1268 751 
Q 1578 397 2138 397 
Q 2388 397 2633 464 
Q 2878 531 3122 666 
L 3122 134 
Q 2881 22 2623 -34 
Q 2366 -91 2075 -91 
Q 1284 -91 818 406 
Q 353 903 353 1747 
Q 353 2603 823 3093 
Q 1294 3584 2113 3584 
Q 2378 3584 2631 3529 
Q 2884 3475 3122 3366 
z
" transform="scale(0.015625)"/>
      <path id="DejaVuSans-4d" d="M 628 4666 
L 1569 4666 
L 2759 1491 
L 3956 4666 
L 4897 4666 
L 4897 0 
L 4281 0 
L 4281 4097 
L 3078 897 
L 2444 897 
L 1241 4097 
L 1241 0 
L 628 0 
L 628 4666 
z
" transform="scale(0.015625)"/>
      <path id="DejaVuSans-6d" d="M 3328 2828 
Q 3544 3216 3844 3400 
Q 4144 3584 4550 3584 
Q 5097 3584 5394 3201 
Q 5691 2819 5691 2113 
L 5691 0 
L 5113 0 
L 5113 2094 
Q 5113 2597 4934 2840 
Q 4756 3084 4391 3084 
Q 3944 3084 3684 2787 
Q 3425 2491 3425 1978 
L 3425 0 
L 2847 0 
L 2847 2094 
Q 2847 2600 2669 2842 
Q 2491 3084 2119 3084 
Q 1678 3084 1418 2786 
Q 1159 2488 1159 1978 
L 1159 0 
L 581 0 
L 581 3500 
L 1159 3500 
L 1159 2956 
Q 1356 3278 1631 3431 
Q 1906 3584 2284 3584 
Q 2666 3584 2933 3390 
Q 3200 3197 3328 2828 
z
" transform="scale(0.015625)"/>
      <path id="DejaVuSans-4c" d="M 628 4666 
L 1259 4666 
L 1259 531 
L 3531 531 
L 3531 0 
L 628 0 
L 628 4666 
z
" transform="scale(0.015625)"/>
      <path id="DejaVuSans-47" d="M 3809 666 
L 3809 1919 
L 2778 1919 
L 2778 2438 
L 4434 2438 
L 4434 434 
Q 4069 175 3628 42 
Q 3188 -91 2688 -91 
Q 1594 -91 976 548 
Q 359 1188 359 2328 
Q 359 3472 976 4111 
Q 1594 4750 2688 4750 
Q 3144 4750 3555 4637 
Q 3966 4525 4313 4306 
L 4313 3634 
Q 3963 3931 3569 4081 
Q 3175 4231 2741 4231 
Q 1884 4231 1454 3753 
Q 1025 3275 1025 2328 
Q 1025 1384 1454 906 
Q 1884 428 2741 428 
Q 3075 428 3337 486 
Q 3600 544 3809 666 
z
" transform="scale(0.015625)"/>
      <path id="DejaVuSans-62" d="M 3116 1747 
Q 3116 2381 2855 2742 
Q 2594 3103 2138 3103 
Q 1681 3103 1420 2742 
Q 1159 2381 1159 1747 
Q 1159 1113 1420 752 
Q 1681 391 2138 391 
Q 2594 391 2855 752 
Q 3116 1113 3116 1747 
z
M 1159 2969 
Q 1341 3281 1617 3432 
Q 1894 3584 2278 3584 
Q 2916 3584 3314 3078 
Q 3713 2572 3713 1747 
Q 3713 922 3314 415 
Q 2916 -91 2278 -91 
Q 1894 -91 1617 61 
Q 1341 213 1159 525 
L 1159 0 
L 581 0 
L 581 4863 
L 1159 4863 
L 1159 2969 
z
" transform="scale(0.015625)"/>
     </defs>
     <use xlink:href="#DejaVuSans-45"/>
     <use xlink:href="#DejaVuSans-6e" x="63.183594"/>
     <use xlink:href="#DejaVuSans-65" x="126.5625"/>
     <use xlink:href="#DejaVuSans-72" x="188.085938"/>
     <use xlink:href="#DejaVuSans-67" x="227.449219"/>
     <use xlink:href="#DejaVuSans-69" x="290.925781"/>
     <use xlink:href="#DejaVuSans-61" x="318.708984"/>
     <use xlink:href="#DejaVuSans-20" x="379.988281"/>
     <use xlink:href="#DejaVuSans-50" x="411.775391"/>
     <use xlink:href="#DejaVuSans-6f" x="468.453125"/>
     <use xlink:href="#DejaVuSans-74" x="529.634766"/>
     <use xlink:href="#DejaVuSans-65" x="568.84375"/>
     <use xlink:href="#DejaVuSans-6e" x="630.367188"/>
     <use xlink:href="#DejaVuSans-7a" x="693.746094"/>
     <use xlink:href="#DejaVuSans-69" x="746.236328"/>
     <use xlink:href="#DejaVuSans-61" x="774.019531"/>
     <use xlink:href="#DejaVuSans-6c" x="835.298828"/>
     <use xlink:href="#DejaVuSans-65" x="863.082031"/>
     <use xlink:href="#DejaVuSans-20" x="924.605469"/>
     <use xlink:href="#DejaVuSans-63" x="956.392578"/>
     <use xlink:href="#DejaVuSans-6f" x="1011.373047"/>
     <use xlink:href="#DejaVuSans-6e" x="1072.554688"/>
     <use xlink:href="#DejaVuSans-20" x="1135.933594"/>
     <use xlink:href="#DejaVuSans-4d" x="1167.720703"/>
     <use xlink:href="#DejaVuSans-69" x="1254"/>
     <use xlink:href="#DejaVuSans-6e" x="1281.783203"/>
     <use xlink:href="#DejaVuSans-69" x="1345.162109"/>
     <use xlink:href="#DejaVuSans-6d" x="1372.945312"/>
     <use xlink:href="#DejaVuSans-69" x="1470.357422"/>
     <use xlink:href="#DejaVuSans-20" x="1498.140625"/>
     <use xlink:href="#DejaVuSans-4c" x="1529.927734"/>
     <use xlink:href="#DejaVuSans-6f" x="1583.890625"/>
     <use xlink:href="#DejaVuSans-63" x="1645.072266"/>
     <use xlink:href="#DejaVuSans-61" x="1700.052734"/>
     <use xlink:href="#DejaVuSans-6c" x="1761.332031"/>
     <use xlink:href="#DejaVuSans-69" x="1789.115234"/>
     <use xlink:href="#DejaVuSans-20" x="1816.898438"/>
     <use xlink:href="#DejaVuSans-65" x="1848.685547"/>
     <use xlink:href="#DejaVuSans-20" x="1910.208984"/>
     <use xlink:href="#DejaVuSans-47" x="1941.996094"/>
     <use xlink:href="#DejaVuSans-6c" x="2019.486328"/>
     <use xlink:href="#DejaVuSans-6f" x="2047.269531"/>
     <use xlink:href="#DejaVuSans-62" x="2108.451172"/>
     <use xlink:href="#DejaVuSans-61" x="2171.927734"/>
     <use xlink:href="#DejaVuSans-6c" x="2233.207031"/>
     <use xlink:href="#DejaVuSans-65" x="2260.990234"/>
    </g>
   </g>
   <g id="legend_1">
    <g id="patch_7">
     <path d="M 715.702812 46.515937 
L 840.16375 46.515937 
Q 842.16375 46.515937 842.16375 44.515937 
L 842.16375 30.837812 
Q 842.16375 28.837812 840.16375 28.837812 
L 715.702812 28.837812 
Q 713.702812 28.837812 713.702812 30.837812 
L 713.702812 44.515937 
Q 713.702812 46.515937 715.702812 46.515937 
z
" style="fill: #ffffff; opacity: 0.8; stroke: #cccccc; stroke-linejoin: miter"/>
    </g>
    <g id="line2d_32">
     <path d="M 717.702812 36.93625 
L 727.702812 36.93625 
L 737.702812 36.93625 
" style="fill: none; stroke: #0000ff; stroke-width: 3; stroke-linecap: square"/>
    </g>
    <g id="text_19">
     <!-- Energia Potenziale -->
     <g transform="translate(745.702812 40.43625)scale(0.1 -0.1)">
      <use xlink:href="#DejaVuSans-45"/>
      <use xlink:href="#DejaVuSans-6e" x="63.183594"/>
      <use xlink:href="#DejaVuSans-65" x="126.5625"/>
      <use xlink:href="#DejaVuSans-72" x="188.085938"/>
      <use xlink:href="#DejaVuSans-67" x="227.449219"/>
      <use xlink:href="#DejaVuSans-69" x="290.925781"/>
      <use xlink:href="#DejaVuSans-61" x="318.708984"/>
      <use xlink:href="#DejaVuSans-20" x="379.988281"/>
      <use xlink:href="#DejaVuSans-50" x="411.775391"/>
      <use xlink:href="#DejaVuSans-6f" x="468.453125"/>
      <use xlink:href="#DejaVuSans-74" x="529.634766"/>
      <use xlink:href="#DejaVuSans-65" x="568.84375"/>
      <use xlink:href="#DejaVuSans-6e" x="630.367188"/>
      <use xlink:href="#DejaVuSans-7a" x="693.746094"/>
      <use xlink:href="#DejaVuSans-69" x="746.236328"/>
      <use xlink:href="#DejaVuSans-61" x="774.019531"/>
      <use xlink:href="#DejaVuSans-6c" x="835.298828"/>
      <use xlink:href="#DejaVuSans-65" x="863.082031"/>
     </g>
    </g>
   </g>
  </g>
 </g>
 <defs>
  <clipPath id="p3a0806e290">
   <rect x="42.53875" y="23.837812" width="804.625" height="505.72"/>
  </clipPath>
 </defs>
</svg>
