<?xml version="1.0" encoding="utf-8" standalone="no"?>
<!DOCTYPE svg PUBLIC "-//W3C//DTD SVG 1.1//EN"
  "http://www.w3.org/Graphics/SVG/1.1/DTD/svg11.dtd">
<svg xmlns:xlink="http://www.w3.org/1999/xlink" width="720pt" height="432pt" viewBox="0 0 720 432" xmlns="http://www.w3.org/2000/svg" version="1.1">
 <metadata>
  <rdf:RDF xmlns:dc="http://purl.org/dc/elements/1.1/" xmlns:cc="http://creativecommons.org/ns#" xmlns:rdf="http://www.w3.org/1999/02/22-rdf-syntax-ns#">
   <cc:Work>
    <dc:type rdf:resource="http://purl.org/dc/dcmitype/StillImage"/>
    <dc:date>2025-11-19T10:30:06.956930</dc:date>
    <dc:format>image/svg+xml</dc:format>
    <dc:creator>
     <cc:Agent>
      <dc:title>Matplotlib v3.10.6, https://matplotlib.org/</dc:title>
     </cc:Agent>
    </dc:creator>
   </cc:Work>
  </rdf:RDF>
 </metadata>
 <defs>
  <style type="text/css">*{stroke-linejoin: round; stroke-linecap: butt}</style>
 </defs>
 <g id="figure_1">
  <g id="patch_1">
   <path d="M 0 432 
L 720 432 
L 720 0 
L 0 0 
z
" style="fill: #ffffff"/>
  </g>
  <g id="axes_1">
   <g id="patch_2">
    <path d="M 63.29 389.32 
L 709.2 389.32 
L 709.2 27.6 
L 63.29 27.6 
z
" style="fill: #ffffff"/>
   </g>
   <g id="matplotlib.axis_1">
    <g id="xtick_1">
     <g id="line2d_1">
      <path d="M 127.881 389.32 
L 127.881 27.6 
" clip-path="url(#p0024bff989)" style="fill: none; stroke: #b0b0b0; stroke-opacity: 0.3; stroke-width: 0.8; stroke-linecap: square"/>
     </g>
     <g id="line2d_2">
      <defs>
       <path id="me12a0c0444" d="M 0 0 
L 0 3.5 
" style="stroke: #000000; stroke-width: 0.8"/>
      </defs>
      <g>
       <use xlink:href="#me12a0c0444" x="127.881" y="389.32" style="stroke: #000000; stroke-width: 0.8"/>
      </g>
     </g>
     <g id="text_1">
      <!-- −2 -->
      <g transform="translate(120.509906 403.918437) scale(0.1 -0.1)">
       <defs>
        <path id="DejaVuSans-2212" d="M 678 2272 
L 4684 2272 
L 4684 1741 
L 678 1741 
L 678 2272 
z
" transform="scale(0.015625)"/>
        <path id="DejaVuSans-32" d="M 1228 531 
L 3431 531 
L 3431 0 
L 469 0 
L 469 531 
Q 828 903 1448 1529 
Q 2069 2156 2228 2338 
Q 2531 2678 2651 2914 
Q 2772 3150 2772 3378 
Q 2772 3750 2511 3984 
Q 2250 4219 1831 4219 
Q 1534 4219 1204 4116 
Q 875 4013 500 3803 
L 500 4441 
Q 881 4594 1212 4672 
Q 1544 4750 1819 4750 
Q 2544 4750 2975 4387 
Q 3406 4025 3406 3419 
Q 3406 3131 3298 2873 
Q 3191 2616 2906 2266 
Q 2828 2175 2409 1742 
Q 1991 1309 1228 531 
z
" transform="scale(0.015625)"/>
       </defs>
       <use xlink:href="#DejaVuSans-2212"/>
       <use xlink:href="#DejaVuSans-32" transform="translate(83.789062 0)"/>
      </g>
     </g>
    </g>
    <g id="xtick_2">
     <g id="line2d_3">
      <path d="M 257.063 389.32 
L 257.063 27.6 
" clip-path="url(#p0024bff989)" style="fill: none; stroke: #b0b0b0; stroke-opacity: 0.3; stroke-width: 0.8; stroke-linecap: square"/>
     </g>
     <g id="line2d_4">
      <g>
       <use xlink:href="#me12a0c0444" x="257.063" y="389.32" style="stroke: #000000; stroke-width: 0.8"/>
      </g>
     </g>
     <g id="text_2">
      <!-- −1 -->
      <g transform="translate(249.691906 403.918437) scale(0.1 -0.1)">
       <defs>
        <path id="DejaVuSans-31" d="M 794 531 
L 1825 531 
L 1825 4091 
L 703 3866 
L 703 4441 
L 1819 4666 
L 2450 4666 
L 2450 531 
L 3481 531 
L 3481 0 
L 794 0 
L 794 531 
z
" transform="scale(0.015625)"/>
       </defs>
       <use xlink:href="#DejaVuSans-2212"/>
       <use xlink:href="#DejaVuSans-31" transform="translate(83.789062 0)"/>
      </g>
     </g>
    </g>
    <g id="xtick_3">
     <g id="line2d_5">
      <path d="M 386.245 389.32 
L 386.245 27.6 
" clip-path="url(#p0024bff989)" style="fill: none; stroke: #b0b0b0; stroke-opacity: 0.3; stroke-width: 0.8; stroke-linecap: square"/>
     </g>
     <g id="line2d_6">
      <g>
       <use xlink:href="#me12a0c0444" x="386.245" y="389.32" style="stroke: #000000; stroke-width: 0.8"/>
      </g>
     </g>
     <g id="text_3">
      <!-- 0 -->
      <g transform="translate(383.06375 403.918437) scale(0.1 -0.1)">
       <defs>
        <path id="DejaVuSans-30" d="M 2034 4250 
Q 1547 4250 1301 3770 
Q 1056 3291 1056 2328 
Q 1056 1369 1301 889 
Q 1547 409 2034 409 
Q 2525 409 2770 889 
Q 3016 1369 3016 2328 
Q 3016 3291 2770 3770 
Q 2525 4250 2034 4250 
z
M 2034 4750 
Q 2819 4750 3233 4129 
Q 3647 3509 3647 2328 
Q 3647 1150 3233 529 
Q 2819 -91 2034 -91 
Q 1250 -91 836 529 
Q 422 1150 422 2328 
Q 422 3509 836 4129 
Q 1250 4750 2034 4750 
z
" transform="scale(0.015625)"/>
       </defs>
       <use xlink:href="#DejaVuSans-30"/>
      </g>
     </g>
    </g>
    <g id="xtick_4">
     <g id="line2d_7">
      <path d="M 515.427 389.32 
L 515.427 27.6 
" clip-path="url(#p0024bff989)" style="fill: none; stroke: #b0b0b0; stroke-opacity: 0.3; stroke-width: 0.8; stroke-linecap: square"/>
     </g>
     <g id="line2d_8">
      <g>
       <use xlink:href="#me12a0c0444" x="515.427" y="389.32" style="stroke: #000000; stroke-width: 0.8"/>
      </g>
     </g>
     <g id="text_4">
      <!-- 1 -->
      <g transform="translate(512.24575 403.918437) scale(0.1 -0.1)">
       <use xlink:href="#DejaVuSans-31"/>
      </g>
     </g>
    </g>
    <g id="xtick_5">
     <g id="line2d_9">
      <path d="M 644.609 389.32 
L 644.609 27.6 
" clip-path="url(#p0024bff989)" style="fill: none; stroke: #b0b0b0; stroke-opacity: 0.3; stroke-width: 0.8; stroke-linecap: square"/>
     </g>
     <g id="line2d_10">
      <g>
       <use xlink:href="#me12a0c0444" x="644.609" y="389.32" style="stroke: #000000; stroke-width: 0.8"/>
      </g>
     </g>
     <g id="text_5">
      <!-- 2 -->
      <g transform="translate(641.42775 403.918437) scale(0.1 -0.1)">
       <use xlink:href="#DejaVuSans-32"/>
      </g>
     </g>
    </g>
    <g id="text_6">
     <!-- x -->
     <g transform="translate(382.69375 419.11625) scale(0.12 -0.12)">
      <defs>
       <path id="DejaVuSans-78" d="M 3513 3500 
L 2247 1797 
L 3578 0 
L 2900 0 
L 1881 1375 
L 863 0 
L 184 0 
L 1544 1831 
L 300 3500 
L 978 3500 
L 1906 2253 
L 2834 3500 
L 3513 3500 
z
" transform="scale(0.015625)"/>
      </defs>
      <use xlink:href="#DejaVuSans-78"/>
     </g>
    </g>
   </g>
   <g id="matplotlib.axis_2">
    <g id="ytick_1">
     <g id="line2d_11">
      <path d="M 63.29 372.878182 
L 709.2 372.878182 
" clip-path="url(#p0024bff989)" style="fill: none; stroke: #b0b0b0; stroke-opacity: 0.3; stroke-width: 0.8; stroke-linecap: square"/>
     </g>
     <g id="line2d_12">
      <defs>
       <path id="mc4cdc563ae" d="M 0 0 
L -3.5 0 
" style="stroke: #000000; stroke-width: 0.8"/>
      </defs>
      <g>
       <use xlink:href="#mc4cdc563ae" x="63.29" y="372.878182" style="stroke: #000000; stroke-width: 0.8"/>
      </g>
     </g>
     <g id="text_7">
      <!-- −1.00 -->
      <g transform="translate(25.644688 376.677401) scale(0.1 -0.1)">
       <defs>
        <path id="DejaVuSans-2e" d="M 684 794 
L 1344 794 
L 1344 0 
L 684 0 
L 684 794 
z
" transform="scale(0.015625)"/>
       </defs>
       <use xlink:href="#DejaVuSans-2212"/>
       <use xlink:href="#DejaVuSans-31" transform="translate(83.789062 0)"/>
       <use xlink:href="#DejaVuSans-2e" transform="translate(147.412109 0)"/>
       <use xlink:href="#DejaVuSans-30" transform="translate(179.199219 0)"/>
       <use xlink:href="#DejaVuSans-30" transform="translate(242.822266 0)"/>
      </g>
     </g>
    </g>
    <g id="ytick_2">
     <g id="line2d_13">
      <path d="M 63.29 331.773636 
L 709.2 331.773636 
" clip-path="url(#p0024bff989)" style="fill: none; stroke: #b0b0b0; stroke-opacity: 0.3; stroke-width: 0.8; stroke-linecap: square"/>
     </g>
     <g id="line2d_14">
      <g>
       <use xlink:href="#mc4cdc563ae" x="63.29" y="331.773636" style="stroke: #000000; stroke-width: 0.8"/>
      </g>
     </g>
     <g id="text_8">
      <!-- −0.75 -->
      <g transform="translate(25.644688 335.572855) scale(0.1 -0.1)">
       <defs>
        <path id="DejaVuSans-37" d="M 525 4666 
L 3525 4666 
L 3525 4397 
L 1831 0 
L 1172 0 
L 2766 4134 
L 525 4134 
L 525 4666 
z
" transform="scale(0.015625)"/>
        <path id="DejaVuSans-35" d="M 691 4666 
L 3169 4666 
L 3169 4134 
L 1269 4134 
L 1269 2991 
Q 1406 3038 1543 3061 
Q 1681 3084 1819 3084 
Q 2600 3084 3056 2656 
Q 3513 2228 3513 1497 
Q 3513 744 3044 326 
Q 2575 -91 1722 -91 
Q 1428 -91 1123 -41 
Q 819 9 494 109 
L 494 744 
Q 775 591 1075 516 
Q 1375 441 1709 441 
Q 2250 441 2565 725 
Q 2881 1009 2881 1497 
Q 2881 1984 2565 2268 
Q 2250 2553 1709 2553 
Q 1456 2553 1204 2497 
Q 953 2441 691 2322 
L 691 4666 
z
" transform="scale(0.015625)"/>
       </defs>
       <use xlink:href="#DejaVuSans-2212"/>
       <use xlink:href="#DejaVuSans-30" transform="translate(83.789062 0)"/>
       <use xlink:href="#DejaVuSans-2e" transform="translate(147.412109 0)"/>
       <use xlink:href="#DejaVuSans-37" transform="translate(179.199219 0)"/>
       <use xlink:href="#DejaVuSans-35" transform="translate(242.822266 0)"/>
      </g>
     </g>
    </g>
    <g id="ytick_3">
     <g id="line2d_15">
      <path d="M 63.29 290.669091 
L 709.2 290.669091 
" clip-path="url(#p0024bff989)" style="fill: none; stroke: #b0b0b0; stroke-opacity: 0.3; stroke-width: 0.8; stroke-linecap: square"/>
     </g>
     <g id="line2d_16">
      <g>
       <use xlink:href="#mc4cdc563ae" x="63.29" y="290.669091" style="stroke: #000000; stroke-width: 0.8"/>
      </g>
     </g>
     <g id="text_9">
      <!-- −0.50 -->
      <g transform="translate(25.644688 294.46831) scale(0.1 -0.1)">
       <use xlink:href="#DejaVuSans-2212"/>
       <use xlink:href="#DejaVuSans-30" transform="translate(83.789062 0)"/>
       <use xlink:href="#DejaVuSans-2e" transform="translate(147.412109 0)"/>
       <use xlink:href="#DejaVuSans-35" transform="translate(179.199219 0)"/>
       <use xlink:href="#DejaVuSans-30" transform="translate(242.822266 0)"/>
      </g>
     </g>
    </g>
    <g id="ytick_4">
     <g id="line2d_17">
      <path d="M 63.29 249.564545 
L 709.2 249.564545 
" clip-path="url(#p0024bff989)" style="fill: none; stroke: #b0b0b0; stroke-opacity: 0.3; stroke-width: 0.8; stroke-linecap: square"/>
     </g>
     <g id="line2d_18">
      <g>
       <use xlink:href="#mc4cdc563ae" x="63.29" y="249.564545" style="stroke: #000000; stroke-width: 0.8"/>
      </g>
     </g>
     <g id="text_10">
      <!-- −0.25 -->
      <g transform="translate(25.644688 253.363764) scale(0.1 -0.1)">
       <use xlink:href="#DejaVuSans-2212"/>
       <use xlink:href="#DejaVuSans-30" transform="translate(83.789062 0)"/>
       <use xlink:href="#DejaVuSans-2e" transform="translate(147.412109 0)"/>
       <use xlink:href="#DejaVuSans-32" transform="translate(179.199219 0)"/>
       <use xlink:href="#DejaVuSans-35" transform="translate(242.822266 0)"/>
      </g>
     </g>
    </g>
    <g id="ytick_5">
     <g id="line2d_19">
      <path d="M 63.29 208.46 
L 709.2 208.46 
" clip-path="url(#p0024bff989)" style="fill: none; stroke: #b0b0b0; stroke-opacity: 0.3; stroke-width: 0.8; stroke-linecap: square"/>
     </g>
     <g id="line2d_20">
      <g>
       <use xlink:href="#mc4cdc563ae" x="63.29" y="208.46" style="stroke: #000000; stroke-width: 0.8"/>
      </g>
     </g>
     <g id="text_11">
      <!-- 0.00 -->
      <g transform="translate(34.024375 212.259219) scale(0.1 -0.1)">
       <use xlink:href="#DejaVuSans-30"/>
       <use xlink:href="#DejaVuSans-2e" transform="translate(63.623047 0)"/>
       <use xlink:href="#DejaVuSans-30" transform="translate(95.410156 0)"/>
       <use xlink:href="#DejaVuSans-30" transform="translate(159.033203 0)"/>
      </g>
     </g>
    </g>
    <g id="ytick_6">
     <g id="line2d_21">
      <path d="M 63.29 167.355455 
L 709.2 167.355455 
" clip-path="url(#p0024bff989)" style="fill: none; stroke: #b0b0b0; stroke-opacity: 0.3; stroke-width: 0.8; stroke-linecap: square"/>
     </g>
     <g id="line2d_22">
      <g>
       <use xlink:href="#mc4cdc563ae" x="63.29" y="167.355455" style="stroke: #000000; stroke-width: 0.8"/>
      </g>
     </g>
     <g id="text_12">
      <!-- 0.25 -->
      <g transform="translate(34.024375 171.154673) scale(0.1 -0.1)">
       <use xlink:href="#DejaVuSans-30"/>
       <use xlink:href="#DejaVuSans-2e" transform="translate(63.623047 0)"/>
       <use xlink:href="#DejaVuSans-32" transform="translate(95.410156 0)"/>
       <use xlink:href="#DejaVuSans-35" transform="translate(159.033203 0)"/>
      </g>
     </g>
    </g>
    <g id="ytick_7">
     <g id="line2d_23">
      <path d="M 63.29 126.250909 
L 709.2 126.250909 
" clip-path="url(#p0024bff989)" style="fill: none; stroke: #b0b0b0; stroke-opacity: 0.3; stroke-width: 0.8; stroke-linecap: square"/>
     </g>
     <g id="line2d_24">
      <g>
       <use xlink:href="#mc4cdc563ae" x="63.29" y="126.250909" style="stroke: #000000; stroke-width: 0.8"/>
      </g>
     </g>
     <g id="text_13">
      <!-- 0.50 -->
      <g transform="translate(34.024375 130.050128) scale(0.1 -0.1)">
       <use xlink:href="#DejaVuSans-30"/>
       <use xlink:href="#DejaVuSans-2e" transform="translate(63.623047 0)"/>
       <use xlink:href="#DejaVuSans-35" transform="translate(95.410156 0)"/>
       <use xlink:href="#DejaVuSans-30" transform="translate(159.033203 0)"/>
      </g>
     </g>
    </g>
    <g id="ytick_8">
     <g id="line2d_25">
      <path d="M 63.29 85.146364 
L 709.2 85.146364 
" clip-path="url(#p0024bff989)" style="fill: none; stroke: #b0b0b0; stroke-opacity: 0.3; stroke-width: 0.8; stroke-linecap: square"/>
     </g>
     <g id="line2d_26">
      <g>
       <use xlink:href="#mc4cdc563ae" x="63.29" y="85.146364" style="stroke: #000000; stroke-width: 0.8"/>
      </g>
     </g>
     <g id="text_14">
      <!-- 0.75 -->
      <g transform="translate(34.024375 88.945582) scale(0.1 -0.1)">
       <use xlink:href="#DejaVuSans-30"/>
       <use xlink:href="#DejaVuSans-2e" transform="translate(63.623047 0)"/>
       <use xlink:href="#DejaVuSans-37" transform="translate(95.410156 0)"/>
       <use xlink:href="#DejaVuSans-35" transform="translate(159.033203 0)"/>
      </g>
     </g>
    </g>
    <g id="ytick_9">
     <g id="line2d_27">
      <path d="M 63.29 44.041818 
L 709.2 44.041818 
" clip-path="url(#p0024bff989)" style="fill: none; stroke: #b0b0b0; stroke-opacity: 0.3; stroke-width: 0.8; stroke-linecap: square"/>
     </g>
     <g id="line2d_28">
      <g>
       <use xlink:href="#mc4cdc563ae" x="63.29" y="44.041818" style="stroke: #000000; stroke-width: 0.8"/>
      </g>
     </g>
     <g id="text_15">
      <!-- 1.00 -->
      <g transform="translate(34.024375 47.841037) scale(0.1 -0.1)">
       <use xlink:href="#DejaVuSans-31"/>
       <use xlink:href="#DejaVuSans-2e" transform="translate(63.623047 0)"/>
       <use xlink:href="#DejaVuSans-30" transform="translate(95.410156 0)"/>
       <use xlink:href="#DejaVuSans-30" transform="translate(159.033203 0)"/>
      </g>
     </g>
    </g>
    <g id="text_16">
     <!-- y -->
     <g transform="translate(19.149063 212.01125) rotate(-90) scale(0.12 -0.12)">
      <defs>
       <path id="DejaVuSans-79" d="M 2059 -325 
Q 1816 -950 1584 -1140 
Q 1353 -1331 966 -1331 
L 506 -1331 
L 506 -850 
L 844 -850 
Q 1081 -850 1212 -737 
Q 1344 -625 1503 -206 
L 1606 56 
L 191 3500 
L 800 3500 
L 1894 763 
L 2988 3500 
L 3597 3500 
L 2059 -325 
z
" transform="scale(0.015625)"/>
      </defs>
      <use xlink:href="#DejaVuSans-79"/>
     </g>
    </g>
   </g>
   <g id="line2d_29">
    <path d="M 63.29 208.46 
L 85.272923 207.851202 
L 90.445375 208.043499 
L 95.617828 208.463276 
L 102.72995 209.312167 
L 109.842072 210.120862 
L 113.721411 210.343517 
L 116.954194 210.322637 
L 120.186977 210.069145 
L 123.41976 209.561555 
L 126.652543 208.805579 
L 130.531882 207.626681 
L 140.876787 204.209936 
L 143.463013 203.658967 
L 146.049239 203.377745 
L 147.988909 203.383132 
L 149.928579 203.598464 
L 151.868248 204.038892 
L 153.807918 204.711675 
L 155.747588 205.614982 
L 157.687257 206.736963 
L 160.273483 208.532738 
L 163.506266 211.136795 
L 170.618388 217.076015 
L 172.558058 218.40947 
L 174.497728 219.480614 
L 176.437397 220.218464 
L 177.730511 220.493119 
L 179.023624 220.574267 
L 180.316737 220.44773 
L 181.60985 220.102211 
L 182.902963 219.529691 
L 184.196076 218.725783 
L 185.489189 217.690048 
L 186.782302 216.426242 
L 188.721972 214.121964 
L 190.661642 211.370507 
L 192.601311 208.241363 
L 195.187538 203.642914 
L 201.653103 191.835792 
L 203.592773 188.799652 
L 205.532442 186.26863 
L 206.825556 184.934336 
L 208.118669 183.929489 
L 209.411782 183.29032 
L 210.704895 183.048498 
L 211.998008 183.230302 
L 213.291121 183.855847 
L 214.584234 184.938383 
L 215.877347 186.483688 
L 217.17046 188.489568 
L 218.463574 190.945474 
L 219.756687 193.832261 
L 221.696356 198.907091 
L 223.636026 204.756632 
L 226.222252 213.458996 
L 233.334374 238.437885 
L 235.274044 244.255942 
L 236.567157 247.620589 
L 237.86027 250.48213 
L 239.153383 252.767577 
L 240.446496 254.410766 
L 241.093053 254.973074 
L 241.73961 255.353859 
L 242.386166 255.547423 
L 243.032723 255.548761 
L 243.679279 255.353597 
L 244.325836 254.958418 
L 244.972392 254.360506 
L 245.618949 253.557969 
L 246.265506 252.549766 
L 247.558619 249.916579 
L 248.851732 246.470411 
L 250.144845 242.235422 
L 251.437958 237.250655 
L 252.731071 231.569959 
L 254.670741 221.897257 
L 256.61041 211.103498 
L 259.843193 191.59745 
L 263.722533 168.103185 
L 265.662202 157.394112 
L 267.601872 147.996221 
L 268.894985 142.676798 
L 270.188098 138.2544 
L 271.481211 134.836893 
L 272.127768 133.535016 
L 272.774324 132.518519 
L 273.420881 131.796701 
L 274.067437 131.377751 
L 274.713994 131.268696 
L 275.360551 131.475347 
L 276.007107 132.002253 
L 276.653664 132.852662 
L 277.30022 134.028484 
L 277.946777 135.53026 
L 279.23989 139.506851 
L 280.533003 144.758587 
L 281.826116 151.238748 
L 283.119229 158.877829 
L 284.412342 167.584041 
L 286.352012 182.391186 
L 288.938238 204.64985 
L 297.343473 280.233351 
L 299.283143 294.39544 
L 300.576256 302.426106 
L 301.869369 309.13244 
L 303.162482 314.366976 
L 303.809039 316.392025 
L 304.455596 318.003701 
L 305.102152 319.190057 
L 305.748709 319.940811 
L 306.395265 320.247414 
L 307.041822 320.103102 
L 307.688378 319.502957 
L 308.334935 318.44394 
L 308.981491 316.924934 
L 309.628048 314.946769 
L 310.274605 312.512241 
L 311.567718 306.295162 
L 312.860831 298.335568 
L 314.153944 288.726554 
L 315.447057 277.591511 
L 317.386727 258.367953 
L 319.326396 236.683432 
L 322.559179 197.120887 
L 327.085075 141.26046 
L 329.024745 119.664523 
L 330.964414 100.736239 
L 332.257528 89.988463 
L 333.550641 80.979274 
L 334.843754 73.886842 
L 335.49031 71.107055 
L 336.136867 68.859639 
L 336.783423 67.158012 
L 337.42998 66.013384 
L 338.076537 65.434692 
L 338.723093 65.428542 
L 339.36965 65.999168 
L 340.016206 67.148393 
L 340.662763 68.875607 
L 341.309319 71.177749 
L 341.955876 74.049305 
L 343.248989 81.466402 
L 344.542102 91.034285 
L 345.835215 102.622687 
L 347.128328 116.065459 
L 349.067998 139.261558 
L 351.007668 165.375803 
L 354.24045 212.835848 
L 358.766346 279.42763 
L 360.706016 305.059705 
L 362.645686 327.502138 
L 363.938799 340.25741 
L 365.231912 350.983409 
L 366.525025 359.490028 
L 367.171582 362.861479 
L 367.818138 365.623365 
L 368.464695 367.762578 
L 369.111251 369.268593 
L 369.757808 370.133523 
L 370.404364 370.352161 
L 371.050921 369.922008 
L 371.697477 368.843289 
L 372.344034 367.11896 
L 372.990591 364.754703 
L 373.637147 361.758902 
L 374.93026 353.919545 
L 376.223373 343.720623 
L 377.516486 331.321982 
L 378.8096 316.920958 
L 380.749269 292.079832 
L 382.688939 264.165955 
L 385.921722 213.629635 
L 389.801061 152.754045 
L 391.740731 124.840168 
L 393.6804 99.999042 
L 394.973514 85.598018 
L 396.266627 73.199377 
L 397.55974 63.000455 
L 398.852853 55.161098 
L 399.499409 52.165297 
L 400.145966 49.80104 
L 400.792523 48.076711 
L 401.439079 46.997992 
L 402.085636 46.567839 
L 402.732192 46.786477 
L 403.378749 47.651407 
L 404.025305 49.157422 
L 404.671862 51.296635 
L 405.318418 54.058521 
L 405.964975 57.429972 
L 407.258088 65.936591 
L 408.551201 76.66259 
L 409.844314 89.417862 
L 411.137427 103.979595 
L 413.077097 128.652459 
L 415.663323 165.336213 
L 422.775445 269.234627 
L 424.715115 293.49891 
L 426.654785 314.297313 
L 427.947898 325.885715 
L 429.241011 335.453598 
L 430.534124 342.870695 
L 431.180681 345.742251 
L 431.827237 348.044393 
L 432.473794 349.771607 
L 433.12035 350.920832 
L 433.766907 351.491458 
L 434.413463 351.485308 
L 435.06002 350.906616 
L 435.706577 349.761988 
L 436.353133 348.060361 
L 436.99969 345.812945 
L 437.646246 343.033158 
L 438.939359 335.940726 
L 440.232472 326.931537 
L 441.525586 316.183761 
L 442.818699 303.901754 
L 444.758368 283.102837 
L 447.344595 252.254865 
L 453.81016 172.778443 
L 455.74983 151.837367 
L 457.689499 133.579072 
L 458.982613 123.189778 
L 460.275726 114.391915 
L 461.568839 107.293878 
L 462.861952 101.973231 
L 463.508509 99.995066 
L 464.155065 98.47606 
L 464.801622 97.417043 
L 465.448178 96.816898 
L 466.094735 96.672586 
L 466.741291 96.979189 
L 467.387848 97.729943 
L 468.034404 98.916299 
L 468.680961 100.527975 
L 469.327518 102.553024 
L 470.620631 107.78756 
L 471.913744 114.493894 
L 473.206857 122.52456 
L 474.49997 131.7137 
L 476.43964 147.270477 
L 479.025866 170.291492 
L 485.491431 229.194782 
L 487.431101 244.617238 
L 489.370771 258.042171 
L 490.663884 265.681252 
L 491.956997 272.161413 
L 493.25011 277.413149 
L 494.543223 281.38974 
L 495.18978 282.891516 
L 495.836336 284.067338 
L 496.482893 284.917747 
L 497.129449 285.444653 
L 497.776006 285.651304 
L 498.422563 285.542249 
L 499.069119 285.123299 
L 499.715676 284.401481 
L 500.362232 283.384984 
L 501.008789 282.083107 
L 502.301902 278.6656 
L 503.595015 274.243202 
L 504.888128 268.923779 
L 506.827798 259.525888 
L 508.767467 248.816815 
L 512.00025 229.314882 
L 515.87959 205.816502 
L 517.819259 195.022743 
L 519.758929 185.350041 
L 521.698599 177.086261 
L 522.991712 172.470572 
L 524.284825 168.626044 
L 525.577938 165.584273 
L 526.871051 163.362031 
L 527.517608 162.559494 
L 528.164164 161.961582 
L 528.810721 161.566403 
L 529.457277 161.371239 
L 530.103834 161.372577 
L 530.75039 161.566141 
L 531.396947 161.946926 
L 532.043504 162.509234 
L 533.336617 164.152423 
L 534.62973 166.43787 
L 535.922843 169.299411 
L 537.215956 172.664058 
L 539.155626 178.482115 
L 541.741852 187.243476 
L 548.853974 212.163368 
L 550.793644 218.012909 
L 552.733313 223.087739 
L 554.026426 225.974526 
L 555.31954 228.430432 
L 556.612653 230.436312 
L 557.905766 231.981617 
L 559.198879 233.064153 
L 560.491992 233.689698 
L 561.785105 233.871502 
L 563.078218 233.62968 
L 564.371331 232.990511 
L 565.664444 231.985664 
L 566.957558 230.65137 
L 568.250671 229.027557 
L 570.19034 226.143008 
L 572.776567 221.696073 
L 581.181802 206.554657 
L 583.121471 203.668466 
L 585.061141 201.208815 
L 586.354254 199.833751 
L 587.647367 198.68324 
L 588.94048 197.763216 
L 590.233594 197.075311 
L 591.526707 196.617074 
L 592.81982 196.382262 
L 594.112933 196.361169 
L 595.406046 196.541007 
L 596.699159 196.906314 
L 598.638829 197.7628 
L 600.578498 198.929505 
L 603.164725 200.841984 
L 607.044064 204.117022 
L 611.56996 207.89299 
L 614.156186 209.764018 
L 616.095856 210.954435 
L 618.035526 211.932464 
L 619.975195 212.682771 
L 621.914865 213.200271 
L 623.854535 213.489314 
L 625.794204 213.562567 
L 627.733874 213.439681 
L 630.3201 213.014804 
L 632.906326 212.356256 
L 636.785666 211.096464 
L 644.544344 208.478978 
L 647.777127 207.632399 
L 651.00991 207.023042 
L 654.242693 206.669111 
L 657.475475 206.559221 
L 660.708258 206.658946 
L 665.234154 207.054669 
L 682.044625 208.876501 
L 687.217077 209.068798 
L 693.036086 209.044138 
L 702.087878 208.725849 
L 709.2 208.46 
L 709.2 208.46 
" clip-path="url(#p0024bff989)" style="fill: none; stroke: #0000ff; stroke-width: 2; stroke-linecap: square"/>
   </g>
   <g id="line2d_30">
    <path d="M 63.29 208.46 
L 709.2 208.46 
" clip-path="url(#p0024bff989)" style="fill: none; stroke-dasharray: 5.55,2.4; stroke-dashoffset: 0; stroke: #000000; stroke-opacity: 0.5; stroke-width: 1.5"/>
   </g>
   <g id="patch_3">
    <path d="M 63.29 389.32 
L 63.29 27.6 
" style="fill: none; stroke: #000000; stroke-width: 0.8; stroke-linejoin: miter; stroke-linecap: square"/>
   </g>
   <g id="patch_4">
    <path d="M 709.2 389.32 
L 709.2 27.6 
" style="fill: none; stroke: #000000; stroke-width: 0.8; stroke-linejoin: miter; stroke-linecap: square"/>
   </g>
   <g id="patch_5">
    <path d="M 63.29 389.32 
L 709.2 389.32 
" style="fill: none; stroke: #000000; stroke-width: 0.8; stroke-linejoin: miter; stroke-linecap: square"/>
   </g>
   <g id="patch_6">
    <path d="M 63.29 27.6 
L 709.2 27.6 
" style="fill: none; stroke: #000000; stroke-width: 0.8; stroke-linejoin: miter; stroke-linecap: square"/>
   </g>
   <g id="text_17">
    <!-- Damped Harmonic Oscillator: Symmetric Function -->
    <g transform="translate(211.025156 21.6) scale(0.14 -0.14)">
     <defs>
      <path id="DejaVuSans-44" d="M 1259 4147 
L 1259 519 
L 2022 519 
Q 2988 519 3436 956 
Q 3884 1394 3884 2338 
Q 3884 3275 3436 3711 
Q 2988 4147 2022 4147 
L 1259 4147 
z
M 628 4666 
L 1925 4666 
Q 3281 4666 3915 4102 
Q 4550 3538 4550 2338 
Q 4550 1131 3912 565 
Q 3275 0 1925 0 
L 628 0 
L 628 4666 
z
" transform="scale(0.015625)"/>
      <path id="DejaVuSans-61" d="M 2194 1759 
Q 1497 1759 1228 1600 
Q 959 1441 959 1056 
Q 959 750 1161 570 
Q 1363 391 1709 391 
Q 2188 391 2477 730 
Q 2766 1069 2766 1631 
L 2766 1759 
L 2194 1759 
z
M 3341 1997 
L 3341 0 
L 2766 0 
L 2766 531 
Q 2569 213 2275 61 
Q 1981 -91 1556 -91 
Q 1019 -91 701 211 
Q 384 513 384 1019 
Q 384 1609 779 1909 
Q 1175 2209 1959 2209 
L 2766 2209 
L 2766 2266 
Q 2766 2663 2505 2880 
Q 2244 3097 1772 3097 
Q 1472 3097 1187 3025 
Q 903 2953 641 2809 
L 641 3341 
Q 956 3463 1253 3523 
Q 1550 3584 1831 3584 
Q 2591 3584 2966 3190 
Q 3341 2797 3341 1997 
z
" transform="scale(0.015625)"/>
      <path id="DejaVuSans-6d" d="M 3328 2828 
Q 3544 3216 3844 3400 
Q 4144 3584 4550 3584 
Q 5097 3584 5394 3201 
Q 5691 2819 5691 2113 
L 5691 0 
L 5113 0 
L 5113 2094 
Q 5113 2597 4934 2840 
Q 4756 3084 4391 3084 
Q 3944 3084 3684 2787 
Q 3425 2491 3425 1978 
L 3425 0 
L 2847 0 
L 2847 2094 
Q 2847 2600 2669 2842 
Q 2491 3084 2119 3084 
Q 1678 3084 1418 2786 
Q 1159 2488 1159 1978 
L 1159 0 
L 581 0 
L 581 3500 
L 1159 3500 
L 1159 2956 
Q 1356 3278 1631 3431 
Q 1906 3584 2284 3584 
Q 2666 3584 2933 3390 
Q 3200 3197 3328 2828 
z
" transform="scale(0.015625)"/>
      <path id="DejaVuSans-70" d="M 1159 525 
L 1159 -1331 
L 581 -1331 
L 581 3500 
L 1159 3500 
L 1159 2969 
Q 1341 3281 1617 3432 
Q 1894 3584 2278 3584 
Q 2916 3584 3314 3078 
Q 3713 2572 3713 1747 
Q 3713 922 3314 415 
Q 2916 -91 2278 -91 
Q 1894 -91 1617 61 
Q 1341 213 1159 525 
z
M 3116 1747 
Q 3116 2381 2855 2742 
Q 2594 3103 2138 3103 
Q 1681 3103 1420 2742 
Q 1159 2381 1159 1747 
Q 1159 1113 1420 752 
Q 1681 391 2138 391 
Q 2594 391 2855 752 
Q 3116 1113 3116 1747 
z
" transform="scale(0.015625)"/>
      <path id="DejaVuSans-65" d="M 3597 1894 
L 3597 1613 
L 953 1613 
Q 991 1019 1311 708 
Q 1631 397 2203 397 
Q 2534 397 2845 478 
Q 3156 559 3463 722 
L 3463 178 
Q 3153 47 2828 -22 
Q 2503 -91 2169 -91 
Q 1331 -91 842 396 
Q 353 884 353 1716 
Q 353 2575 817 3079 
Q 1281 3584 2069 3584 
Q 2775 3584 3186 3129 
Q 3597 2675 3597 1894 
z
M 3022 2063 
Q 3016 2534 2758 2815 
Q 2500 3097 2075 3097 
Q 1594 3097 1305 2825 
Q 1016 2553 972 2059 
L 3022 2063 
z
" transform="scale(0.015625)"/>
      <path id="DejaVuSans-64" d="M 2906 2969 
L 2906 4863 
L 3481 4863 
L 3481 0 
L 2906 0 
L 2906 525 
Q 2725 213 2448 61 
Q 2172 -91 1784 -91 
Q 1150 -91 751 415 
Q 353 922 353 1747 
Q 353 2572 751 3078 
Q 1150 3584 1784 3584 
Q 2172 3584 2448 3432 
Q 2725 3281 2906 2969 
z
M 947 1747 
Q 947 1113 1208 752 
Q 1469 391 1925 391 
Q 2381 391 2643 752 
Q 2906 1113 2906 1747 
Q 2906 2381 2643 2742 
Q 2381 3103 1925 3103 
Q 1469 3103 1208 2742 
Q 947 2381 947 1747 
z
" transform="scale(0.015625)"/>
      <path id="DejaVuSans-20" transform="scale(0.015625)"/>
      <path id="DejaVuSans-48" d="M 628 4666 
L 1259 4666 
L 1259 2753 
L 3553 2753 
L 3553 4666 
L 4184 4666 
L 4184 0 
L 3553 0 
L 3553 2222 
L 1259 2222 
L 1259 0 
L 628 0 
L 628 4666 
z
" transform="scale(0.015625)"/>
      <path id="DejaVuSans-72" d="M 2631 2963 
Q 2534 3019 2420 3045 
Q 2306 3072 2169 3072 
Q 1681 3072 1420 2755 
Q 1159 2438 1159 1844 
L 1159 0 
L 581 0 
L 581 3500 
L 1159 3500 
L 1159 2956 
Q 1341 3275 1631 3429 
Q 1922 3584 2338 3584 
Q 2397 3584 2469 3576 
Q 2541 3569 2628 3553 
L 2631 2963 
z
" transform="scale(0.015625)"/>
      <path id="DejaVuSans-6f" d="M 1959 3097 
Q 1497 3097 1228 2736 
Q 959 2375 959 1747 
Q 959 1119 1226 758 
Q 1494 397 1959 397 
Q 2419 397 2687 759 
Q 2956 1122 2956 1747 
Q 2956 2369 2687 2733 
Q 2419 3097 1959 3097 
z
M 1959 3584 
Q 2709 3584 3137 3096 
Q 3566 2609 3566 1747 
Q 3566 888 3137 398 
Q 2709 -91 1959 -91 
Q 1206 -91 779 398 
Q 353 888 353 1747 
Q 353 2609 779 3096 
Q 1206 3584 1959 3584 
z
" transform="scale(0.015625)"/>
      <path id="DejaVuSans-6e" d="M 3513 2113 
L 3513 0 
L 2938 0 
L 2938 2094 
Q 2938 2591 2744 2837 
Q 2550 3084 2163 3084 
Q 1697 3084 1428 2787 
Q 1159 2491 1159 1978 
L 1159 0 
L 581 0 
L 581 3500 
L 1159 3500 
L 1159 2956 
Q 1366 3272 1645 3428 
Q 1925 3584 2291 3584 
Q 2894 3584 3203 3211 
Q 3513 2838 3513 2113 
z
" transform="scale(0.015625)"/>
      <path id="DejaVuSans-69" d="M 603 3500 
L 1178 3500 
L 1178 0 
L 603 0 
L 603 3500 
z
M 603 4863 
L 1178 4863 
L 1178 4134 
L 603 4134 
L 603 4863 
z
" transform="scale(0.015625)"/>
      <path id="DejaVuSans-63" d="M 3122 3366 
L 3122 2828 
Q 2878 2963 2633 3030 
Q 2388 3097 2138 3097 
Q 1578 3097 1268 2742 
Q 959 2388 959 1747 
Q 959 1106 1268 751 
Q 1578 397 2138 397 
Q 2388 397 2633 464 
Q 2878 531 3122 666 
L 3122 134 
Q 2881 22 2623 -34 
Q 2366 -91 2075 -91 
Q 1284 -91 818 406 
Q 353 903 353 1747 
Q 353 2603 823 3093 
Q 1294 3584 2113 3584 
Q 2378 3584 2631 3529 
Q 2884 3475 3122 3366 
z
" transform="scale(0.015625)"/>
      <path id="DejaVuSans-4f" d="M 2522 4238 
Q 1834 4238 1429 3725 
Q 1025 3213 1025 2328 
Q 1025 1447 1429 934 
Q 1834 422 2522 422 
Q 3209 422 3611 934 
Q 4013 1447 4013 2328 
Q 4013 3213 3611 3725 
Q 3209 4238 2522 4238 
z
M 2522 4750 
Q 3503 4750 4090 4092 
Q 4678 3434 4678 2328 
Q 4678 1225 4090 567 
Q 3503 -91 2522 -91 
Q 1538 -91 948 565 
Q 359 1222 359 2328 
Q 359 3434 948 4092 
Q 1538 4750 2522 4750 
z
" transform="scale(0.015625)"/>
      <path id="DejaVuSans-73" d="M 2834 3397 
L 2834 2853 
Q 2591 2978 2328 3040 
Q 2066 3103 1784 3103 
Q 1356 3103 1142 2972 
Q 928 2841 928 2578 
Q 928 2378 1081 2264 
Q 1234 2150 1697 2047 
L 1894 2003 
Q 2506 1872 2764 1633 
Q 3022 1394 3022 966 
Q 3022 478 2636 193 
Q 2250 -91 1575 -91 
Q 1294 -91 989 -36 
Q 684 19 347 128 
L 347 722 
Q 666 556 975 473 
Q 1284 391 1588 391 
Q 1994 391 2212 530 
Q 2431 669 2431 922 
Q 2431 1156 2273 1281 
Q 2116 1406 1581 1522 
L 1381 1569 
Q 847 1681 609 1914 
Q 372 2147 372 2553 
Q 372 3047 722 3315 
Q 1072 3584 1716 3584 
Q 2034 3584 2315 3537 
Q 2597 3491 2834 3397 
z
" transform="scale(0.015625)"/>
      <path id="DejaVuSans-6c" d="M 603 4863 
L 1178 4863 
L 1178 0 
L 603 0 
L 603 4863 
z
" transform="scale(0.015625)"/>
      <path id="DejaVuSans-74" d="M 1172 4494 
L 1172 3500 
L 2356 3500 
L 2356 3053 
L 1172 3053 
L 1172 1153 
Q 1172 725 1289 603 
Q 1406 481 1766 481 
L 2356 481 
L 2356 0 
L 1766 0 
Q 1100 0 847 248 
Q 594 497 594 1153 
L 594 3053 
L 172 3053 
L 172 3500 
L 594 3500 
L 594 4494 
L 1172 4494 
z
" transform="scale(0.015625)"/>
      <path id="DejaVuSans-3a" d="M 750 794 
L 1409 794 
L 1409 0 
L 750 0 
L 750 794 
z
M 750 3309 
L 1409 3309 
L 1409 2516 
L 750 2516 
L 750 3309 
z
" transform="scale(0.015625)"/>
      <path id="DejaVuSans-53" d="M 3425 4513 
L 3425 3897 
Q 3066 4069 2747 4153 
Q 2428 4238 2131 4238 
Q 1616 4238 1336 4038 
Q 1056 3838 1056 3469 
Q 1056 3159 1242 3001 
Q 1428 2844 1947 2747 
L 2328 2669 
Q 3034 2534 3370 2195 
Q 3706 1856 3706 1288 
Q 3706 609 3251 259 
Q 2797 -91 1919 -91 
Q 1588 -91 1214 -16 
Q 841 59 441 206 
L 441 856 
Q 825 641 1194 531 
Q 1563 422 1919 422 
Q 2459 422 2753 634 
Q 3047 847 3047 1241 
Q 3047 1584 2836 1778 
Q 2625 1972 2144 2069 
L 1759 2144 
Q 1053 2284 737 2584 
Q 422 2884 422 3419 
Q 422 4038 858 4394 
Q 1294 4750 2059 4750 
Q 2388 4750 2728 4690 
Q 3069 4631 3425 4513 
z
" transform="scale(0.015625)"/>
      <path id="DejaVuSans-46" d="M 628 4666 
L 3309 4666 
L 3309 4134 
L 1259 4134 
L 1259 2759 
L 3109 2759 
L 3109 2228 
L 1259 2228 
L 1259 0 
L 628 0 
L 628 4666 
z
" transform="scale(0.015625)"/>
      <path id="DejaVuSans-75" d="M 544 1381 
L 544 3500 
L 1119 3500 
L 1119 1403 
Q 1119 906 1312 657 
Q 1506 409 1894 409 
Q 2359 409 2629 706 
Q 2900 1003 2900 1516 
L 2900 3500 
L 3475 3500 
L 3475 0 
L 2900 0 
L 2900 538 
Q 2691 219 2414 64 
Q 2138 -91 1772 -91 
Q 1169 -91 856 284 
Q 544 659 544 1381 
z
M 1991 3584 
L 1991 3584 
z
" transform="scale(0.015625)"/>
     </defs>
     <use xlink:href="#DejaVuSans-44"/>
     <use xlink:href="#DejaVuSans-61" transform="translate(77.001953 0)"/>
     <use xlink:href="#DejaVuSans-6d" transform="translate(138.28125 0)"/>
     <use xlink:href="#DejaVuSans-70" transform="translate(235.693359 0)"/>
     <use xlink:href="#DejaVuSans-65" transform="translate(299.169922 0)"/>
     <use xlink:href="#DejaVuSans-64" transform="translate(360.693359 0)"/>
     <use xlink:href="#DejaVuSans-20" transform="translate(424.169922 0)"/>
     <use xlink:href="#DejaVuSans-48" transform="translate(455.957031 0)"/>
     <use xlink:href="#DejaVuSans-61" transform="translate(531.152344 0)"/>
     <use xlink:href="#DejaVuSans-72" transform="translate(592.431641 0)"/>
     <use xlink:href="#DejaVuSans-6d" transform="translate(631.794922 0)"/>
     <use xlink:href="#DejaVuSans-6f" transform="translate(729.207031 0)"/>
     <use xlink:href="#DejaVuSans-6e" transform="translate(790.388672 0)"/>
     <use xlink:href="#DejaVuSans-69" transform="translate(853.767578 0)"/>
     <use xlink:href="#DejaVuSans-63" transform="translate(881.550781 0)"/>
     <use xlink:href="#DejaVuSans-20" transform="translate(936.53125 0)"/>
     <use xlink:href="#DejaVuSans-4f" transform="translate(968.318359 0)"/>
     <use xlink:href="#DejaVuSans-73" transform="translate(1047.029297 0)"/>
     <use xlink:href="#DejaVuSans-63" transform="translate(1099.128906 0)"/>
     <use xlink:href="#DejaVuSans-69" transform="translate(1154.109375 0)"/>
     <use xlink:href="#DejaVuSans-6c" transform="translate(1181.892578 0)"/>
     <use xlink:href="#DejaVuSans-6c" transform="translate(1209.675781 0)"/>
     <use xlink:href="#DejaVuSans-61" transform="translate(1237.458984 0)"/>
     <use xlink:href="#DejaVuSans-74" transform="translate(1298.738281 0)"/>
     <use xlink:href="#DejaVuSans-6f" transform="translate(1337.947266 0)"/>
     <use xlink:href="#DejaVuSans-72" transform="translate(1399.128906 0)"/>
     <use xlink:href="#DejaVuSans-3a" transform="translate(1438.492188 0)"/>
     <use xlink:href="#DejaVuSans-20" transform="translate(1472.183594 0)"/>
     <use xlink:href="#DejaVuSans-53" transform="translate(1503.970703 0)"/>
     <use xlink:href="#DejaVuSans-79" transform="translate(1567.447266 0)"/>
     <use xlink:href="#DejaVuSans-6d" transform="translate(1626.626953 0)"/>
     <use xlink:href="#DejaVuSans-6d" transform="translate(1724.039062 0)"/>
     <use xlink:href="#DejaVuSans-65" transform="translate(1821.451172 0)"/>
     <use xlink:href="#DejaVuSans-74" transform="translate(1882.974609 0)"/>
     <use xlink:href="#DejaVuSans-72" transform="translate(1922.183594 0)"/>
     <use xlink:href="#DejaVuSans-69" transform="translate(1963.296875 0)"/>
     <use xlink:href="#DejaVuSans-63" transform="translate(1991.080078 0)"/>
     <use xlink:href="#DejaVuSans-20" transform="translate(2046.060547 0)"/>
     <use xlink:href="#DejaVuSans-46" transform="translate(2077.847656 0)"/>
     <use xlink:href="#DejaVuSans-75" transform="translate(2129.867188 0)"/>
     <use xlink:href="#DejaVuSans-6e" transform="translate(2193.246094 0)"/>
     <use xlink:href="#DejaVuSans-63" transform="translate(2256.625 0)"/>
     <use xlink:href="#DejaVuSans-74" transform="translate(2311.605469 0)"/>
     <use xlink:href="#DejaVuSans-69" transform="translate(2350.814453 0)"/>
     <use xlink:href="#DejaVuSans-6f" transform="translate(2378.597656 0)"/>
     <use xlink:href="#DejaVuSans-6e" transform="translate(2439.779297 0)"/>
    </g>
   </g>
   <g id="legend_1">
    <g id="patch_7">
     <path d="M 583.9 52.9 
L 702.2 52.9 
Q 704.2 52.9 704.2 50.9 
L 704.2 34.6 
Q 704.2 32.6 702.2 32.6 
L 583.9 32.6 
Q 581.9 32.6 581.9 34.6 
L 581.9 50.9 
Q 581.9 52.9 583.9 52.9 
z
" style="fill: #ffffff; opacity: 0.8; stroke: #cccccc; stroke-linejoin: miter"/>
    </g>
    <g id="line2d_31">
     <path d="M 585.9 43.3 
L 595.9 43.3 
L 605.9 43.3 
" style="fill: none; stroke: #0000ff; stroke-width: 2; stroke-linecap: square"/>
    </g>
    <g id="text_18">
     <!-- $y = \sin(2\pi x) \cdot e^{-x^2}$ -->
     <g transform="translate(613.9 46.8) scale(0.1 -0.1)">
      <defs>
       <path id="DejaVuSans-Oblique-79" d="M 1588 -325 
Q 1188 -997 936 -1164 
Q 684 -1331 294 -1331 
L -159 -1331 
L -63 -850 
L 269 -850 
Q 509 -850 678 -719 
Q 847 -588 1056 -206 
L 1234 128 
L 459 3500 
L 1069 3500 
L 1650 819 
L 3256 3500 
L 3859 3500 
L 1588 -325 
z
" transform="scale(0.015625)"/>
       <path id="DejaVuSans-3d" d="M 678 2906 
L 4684 2906 
L 4684 2381 
L 678 2381 
L 678 2906 
z
M 678 1631 
L 4684 1631 
L 4684 1100 
L 678 1100 
L 678 1631 
z
" transform="scale(0.015625)"/>
       <path id="DejaVuSans-28" d="M 1984 4856 
Q 1566 4138 1362 3434 
Q 1159 2731 1159 2009 
Q 1159 1288 1364 580 
Q 1569 -128 1984 -844 
L 1484 -844 
Q 1016 -109 783 600 
Q 550 1309 550 2009 
Q 550 2706 781 3412 
Q 1013 4119 1484 4856 
L 1984 4856 
z
" transform="scale(0.015625)"/>
       <path id="DejaVuSans-Oblique-3c0" d="M 584 3500 
L 3938 3500 
L 3825 2925 
L 3384 2925 
L 2966 775 
Q 2922 550 2981 450 
Q 3038 353 3209 353 
Q 3256 353 3325 363 
Q 3397 369 3419 372 
L 3338 -44 
Q 3222 -84 3103 -103 
Q 2981 -122 2866 -122 
Q 2491 -122 2388 81 
Q 2284 288 2391 838 
L 2797 2925 
L 1506 2925 
L 938 0 
L 350 0 
L 919 2925 
L 472 2925 
L 584 3500 
z
" transform="scale(0.015625)"/>
       <path id="DejaVuSans-Oblique-78" d="M 3841 3500 
L 2234 1784 
L 3219 0 
L 2559 0 
L 1819 1388 
L 531 0 
L -166 0 
L 1556 1844 
L 641 3500 
L 1300 3500 
L 1972 2234 
L 3144 3500 
L 3841 3500 
z
" transform="scale(0.015625)"/>
       <path id="DejaVuSans-29" d="M 513 4856 
L 1013 4856 
Q 1481 4119 1714 3412 
Q 1947 2706 1947 2009 
Q 1947 1309 1714 600 
Q 1481 -109 1013 -844 
L 513 -844 
Q 928 -128 1133 580 
Q 1338 1288 1338 2009 
Q 1338 2731 1133 3434 
Q 928 4138 513 4856 
z
" transform="scale(0.015625)"/>
       <path id="DejaVuSans-22c5" d="M 684 2619 
L 1344 2619 
L 1344 1825 
L 684 1825 
L 684 2619 
z
" transform="scale(0.015625)"/>
       <path id="DejaVuSans-Oblique-65" d="M 3078 2063 
Q 3088 2113 3092 2166 
Q 3097 2219 3097 2272 
Q 3097 2653 2873 2875 
Q 2650 3097 2266 3097 
Q 1838 3097 1509 2826 
Q 1181 2556 1013 2059 
L 3078 2063 
z
M 3578 1613 
L 903 1613 
Q 884 1494 878 1425 
Q 872 1356 872 1306 
Q 872 872 1139 634 
Q 1406 397 1894 397 
Q 2269 397 2603 481 
Q 2938 566 3225 728 
L 3116 159 
Q 2806 34 2476 -28 
Q 2147 -91 1806 -91 
Q 1078 -91 686 257 
Q 294 606 294 1247 
Q 294 1794 489 2264 
Q 684 2734 1063 3103 
Q 1306 3334 1642 3459 
Q 1978 3584 2356 3584 
Q 2950 3584 3301 3228 
Q 3653 2872 3653 2272 
Q 3653 2128 3634 1964 
Q 3616 1800 3578 1613 
z
" transform="scale(0.015625)"/>
      </defs>
      <use xlink:href="#DejaVuSans-Oblique-79" transform="translate(0 0.554688)"/>
      <use xlink:href="#DejaVuSans-3d" transform="translate(78.662109 0.554688)"/>
      <use xlink:href="#DejaVuSans-73" transform="translate(181.933594 0.554688)"/>
      <use xlink:href="#DejaVuSans-69" transform="translate(234.033203 0.554688)"/>
      <use xlink:href="#DejaVuSans-6e" transform="translate(261.816406 0.554688)"/>
      <use xlink:href="#DejaVuSans-28" transform="translate(325.195312 0.554688)"/>
      <use xlink:href="#DejaVuSans-32" transform="translate(364.208984 0.554688)"/>
      <use xlink:href="#DejaVuSans-Oblique-3c0" transform="translate(427.832031 0.554688)"/>
      <use xlink:href="#DejaVuSans-Oblique-78" transform="translate(488.037109 0.554688)"/>
      <use xlink:href="#DejaVuSans-29" transform="translate(547.216797 0.554688)"/>
      <use xlink:href="#DejaVuSans-22c5" transform="translate(605.712891 0.554688)"/>
      <use xlink:href="#DejaVuSans-Oblique-65" transform="translate(656.982422 0.554688)"/>
      <use xlink:href="#DejaVuSans-2212" transform="translate(723.155755 38.835938) scale(0.7)"/>
      <use xlink:href="#DejaVuSans-Oblique-78" transform="translate(781.808099 38.835938) scale(0.7)"/>
      <use xlink:href="#DejaVuSans-32" transform="translate(826.360182 65.632812) scale(0.49)"/>
     </g>
    </g>
   </g>
  </g>
 </g>
 <defs>
  <clipPath id="p0024bff989">
   <rect x="63.29" y="27.6" width="645.91" height="361.72"/>
  </clipPath>
 </defs>
</svg>
